SplineFontDB: 3.0
FontName: SmolenskyUnicode
FullName: Smolensky Unicode
FamilyName: SmolenskyUnicode
Weight: Medium
Copyright: Smolensky Unicode is a font for archaic Znamenny Notation.\n\nCopyright 2017 Aleksandr Andreev. Slavonic Computing Initiative.\nhttp://sci.ponomar.net/
UComments: "2017-2-1: Created." 
Version: 1.000
ItalicAngle: 0
UnderlinePosition: -100
UnderlineWidth: 50
Ascent: 800
Descent: 200
LayerCount: 2
Layer: 0 0 "Back"  1
Layer: 1 0 "Fore"  0
XUID: [1021 187 1807321670 11892138]
FSType: 8
OS2Version: 0
OS2_WeightWidthSlopeOnly: 0
OS2_UseTypoMetrics: 1
CreationTime: 1485932044
ModificationTime: 1523819031
PfmFamily: 17
TTFWeight: 500
TTFWidth: 5
LineGap: 90
VLineGap: 0
OS2TypoAscent: 0
OS2TypoAOffset: 1
OS2TypoDescent: 0
OS2TypoDOffset: 1
OS2TypoLinegap: 90
OS2WinAscent: 0
OS2WinAOffset: 1
OS2WinDescent: 0
OS2WinDOffset: 1
HheadAscent: 0
HheadAOffset: 1
HheadDescent: 0
HheadDOffset: 1
OS2Vendor: 'PfEd'
Lookup: 4 0 0 "'ccmp' Znamenny Ligatures"  {"'ccmp' Znamenny Ligatures 0-1"  } ['ccmp' ('DFLT' <'dflt' > 'latn' <'dflt' > ) ]
Lookup: 260 0 0 "'mark' Mark Positioning"  {"'mark' Mark Positioning-1"  } ['mark' ('DFLT' <'dflt' > 'latn' <'dflt' > ) ]
MarkAttachClasses: 1
DEI: 91125

StartChar: uniEE73
Encoding: 61043 61043 0
Width: 975
VWidth: 0
Flags: W
HStem: 22 42<130.25 264.066> 143 42<734.469 923.68> 206 20G<409 482>
VStem: 20 101<74.1109 166.528> 409 65<182.555 208.154>
LayerCount: 2
Fore
SplineSet
474 226 m 1
 490 194 513 147 527 127 c 1
 598 148 777 185 879 185 c 0
 925 185 955 178 955 161 c 0
 955 159 955 157 955 155 c 0
 955 130 942 122 925 122 c 0
 897 122 858 143 858 143 c 1
 751 143 378 22 161 22 c 1
 77 22 20 41 20 96 c 1
 20 166 68 206 119 206 c 0
 131 206 135 201 135 192 c 0
 135 173 121 141 121 113 c 0
 121 87 135 64 189 64 c 0
 210 64 237 66 269 71 c 1
 230 154 l 1
 272 171 276 170 309 184 c 1
 328 161 334 138 362 90 c 1
 388 96 416 103 446 110 c 1
 432 138 l 2
 420 161 416 183 409 206 c 1
 474 226 l 1
EndSplineSet
Validated: 1
EndChar

StartChar: uniEE70
Encoding: 61040 61040 1
Width: 1149
VWidth: 0
Flags: W
HStem: 20 21G<129.5 161> 303 62<979.734 1126.42>
DStem2: 161 92 195 30 0.954302 0.298844<-1.9414 13.9179 868.361 982.509>
AnchorPoint: "Right" 1165.52 340.04 basechar 0
AnchorPoint: "Podchashie" 467.28 54.2803 basechar 0
AnchorPoint: "Tonal" 526.72 253.32 basechar 0
LayerCount: 2
Fore
SplineSet
20 150 m 1
 40 155 61 159 78 159 c 0
 105 159 130 152 144 129 c 0
 152 113 161 92 161 92 c 25
 1020 361 l 18
 1029 365 1057 365 1078 365 c 0
 1085 365 1090 365 1096 365 c 0
 1111 365 1127 365 1127 344 c 0
 1127 343 1127 341 1127 340 c 1
 1127 338 1127 336 1127 334 c 0
 1127 305 1114 303 1105 303 c 0
 1098 303 1092 303 1085 303 c 24
 1055 303 1045 301 1008 293 c 1
 805 229 554 155 195 30 c 8
 179 27 170 20 152 20 c 27
 107 20 34 136 20 150 c 1
EndSplineSet
Validated: 1
EndChar

StartChar: uniEE7B
Encoding: 61051 61051 2
Width: 604
VWidth: 0
Flags: W
HStem: 21 21G<128 156> 54 55<281.944 346.25> 120 63<73.5639 118.898> 162 44<508.842 580.204>
VStem: 122 106<77.109 119.758>
DStem2: 302 109 351 70 0.898765 0.438432<-17.9619 93.0335> 448 174 339 214 0.587892 -0.808939<-103.22 -16.2258 54.4059 137.188>
LayerCount: 2
Fore
SplineSet
138 21 m 0xe8
 118 21 92 33 92 64 c 0
 92 75 105 77 117 91 c 0
 121 95 122 98 122 101 c 0
 122 109 111 120 102 120 c 0
 99 119 85 109 73 109 c 0
 71 109 70 109 68 110 c 0
 45 119 40 135 20 151 c 1
 20 153 l 2
 20 174 57 183 93 183 c 0
 163 183 228 140 228 86 c 1
 228 49 174 21 138 21 c 0xe8
308 54 m 0
 292 54 281 64 281 81 c 0
 281 93 290 102 302 109 c 0
 334 125 360 137 386 149 c 1
 339 214 l 2
 337 216 337 220 337 221 c 0
 337 237 360 251 378 251 c 0
 386 251 394 250 399 242 c 2
 448 174 l 1
 466 181 522 206 552 206 c 0
 570 206 584 184 584 170 c 0
 584 167 582 163 577 162 c 0xd8
 547 154 515 142 480 130 c 1
 522 70 l 2
 524 66 526 63 526 61 c 0
 526 45 504 31 487 31 c 0
 478 31 469 35 464 42 c 2
 420 103 l 1
 397 93 376 82 351 70 c 0
 340 65 326 54 308 54 c 0
EndSplineSet
Validated: 1
EndChar

StartChar: uniEE81
Encoding: 61057 61057 3
Width: 398
VWidth: 0
Flags: W
HStem: 22 67<158.927 276.632> 256 85<136.584 213.717>
VStem: 122 104<270.373 327.636> 304 74<117.347 200.032>
LayerCount: 2
Fore
SplineSet
226 288 m 0
 226 268 200 256 181 256 c 0
 149 256 122 286 122 311 c 0
 122 330 144 341 165 341 c 0
 195 341 226 319 226 288 c 0
337 205 m 27
 360 205 378 187 378 161 c 0
 378 121 376 99 348 68 c 8
 314 31 277 22 226 22 c 19
 145 22 100 52 59 96 c 8
 36 121 20 143 20 170 c 0
 20 187 42 200 61 200 c 0
 68 200 75 198 80 194 c 8
 114 173 115 142 147 119 c 24
 172 99 189 89 221 89 c 27
 246 89 265 96 281 115 c 24
 300 140 286 166 304 193 c 24
 311 205 323 205 337 205 c 27
EndSplineSet
Validated: 1
EndChar

StartChar: uniEE87
Encoding: 61063 61063 4
Width: 417
VWidth: 0
Flags: W
HStem: 22 248<209 219>
AnchorPoint: "Tonal" 136.56 331.48 basechar 0
AnchorPoint: "Podchashie" 302 -15.2402 basechar 0
AnchorPoint: "Right" 372.6 211.8 basechar 0
LayerCount: 2
Fore
SplineSet
184 245 m 0
 184 265 209 270 226 270 c 0
 242 270 251 265 262 252 c 0
 276 238 397 124 397 71 c 0
 397 53 386 48 374 48 c 0
 358 48 341 55 332 64 c 8
 272 115 246 154 198 217 c 16
 191 226 184 235 184 245 c 0
20 240 m 0
 20 258 43 265 57 265 c 0
 84 265 93 259 105 243 c 16
 119 224 233 101 233 46 c 0
 233 31 219 22 203 22 c 0
 188 22 174 31 161 43 c 8
 101 101 78 143 33 212 c 16
 27 222 20 231 20 240 c 0
EndSplineSet
Validated: 1
EndChar

StartChar: uniEE72
Encoding: 61042 61042 5
Width: 711
VWidth: 0
Flags: W
HStem: 22 21G<49 78> 166 88<500.297 688.981>
VStem: 98 88<450.569 491.948>
LayerCount: 2
Fore
SplineSet
121 492 m 10
 174 492 l 25
 174 492 186 481 186 471 c 3
 186 451 203 450 218 450 c 0
 220 450 222 450 225 450 c 3
 262 450 254 464 286 464 c 1
 307 467 327 469 346 469 c 0
 362 469 378 467 394 464 c 9
 172 159 l 25
 172 147 172 138 172 126 c 1
 174 126 l 2
 182 126 249 157 300 180 c 1
 408 207 483 228 575 254 c 1
 677 254 l 2
 678 254 678 254 679 254 c 0
 688 254 691 243 691 230 c 2
 691 217 l 2
 691 209 691 198 689 187 c 1
 689 170 663 166 631 166 c 2
 545 166 l 1
 455 147 272 108 182 82 c 0
 161 77 100 22 56 22 c 0
 42 22 20 24 20 48 c 0
 20 59 31 92 50 117 c 1
 117 226 156 288 207 377 c 1
 144 386 133 429 100 473 c 16
 98 474 98 475 98 477 c 0
 98 484 112 492 121 492 c 10
EndSplineSet
Validated: 1
EndChar

StartChar: uniEE7A
Encoding: 61050 61050 6
Width: 249
VWidth: 0
Flags: W
HStem: 22 21G<128 156> 120 64<76.517 122.068>
VStem: 123 105<78.2809 119.135>
LayerCount: 2
Fore
SplineSet
138 22 m 0
 118 22 92 34 92 65 c 0
 92 76 105 78 119 92 c 0
 122 95 123 98 123 101 c 0
 123 110 112 120 102 120 c 0
 100 119 87 110 76 110 c 0
 74 110 72 110 70 111 c 8
 47 119 40 134 20 150 c 17
 20 152 l 2
 20 175 57 184 93 184 c 0
 163 184 228 141 228 87 c 1
 228 50 174 22 138 22 c 0
EndSplineSet
Validated: 1
EndChar

StartChar: uniEE75
Encoding: 61045 61045 7
Width: 305
VWidth: 0
Flags: W
HStem: 22 98<158.399 220.628>
VStem: 20 111<91.5816 180.609>
LayerCount: 2
Fore
SplineSet
131 90 m 9
 177 101 200 120 249 120 c 0
 269 120 284 113 284 85 c 0
 284 60 181 22 112 22 c 0
 84 22 63 29 56 45 c 0
 42 83 26 126 20 170 c 1
 49 187 77 192 89 192 c 0
 122 192 115 152 131 90 c 9
EndSplineSet
Validated: 1
EndChar

StartChar: uniEE78
Encoding: 61048 61048 8
Width: 432
VWidth: 0
Flags: W
HStem: 21 21G<356.5 388>
LayerCount: 2
Fore
SplineSet
20 403 m 0
 20 426 45 441 71 441 c 0
 78 441 86 440 93 433 c 0
 209 285 272 204 406 74 c 0
 409 68 411 63 411 58 c 0
 411 42 397 24 379 21 c 1
 334 22 332 33 311 54 c 1
 202 149 145 232 43 359 c 0
 31 373 20 383 20 403 c 0
EndSplineSet
Validated: 1
EndChar

StartChar: uniEE7C
Encoding: 61052 61052 9
Width: 468
VWidth: 0
Flags: W
HStem: 11 94<337.099 434.344> 22 21G<127 155> 122 62<73.5639 117.898> 168 88<263.353 345.09>
VStem: 121 106<78.5405 121.458> 247 114<185.25 239.625> 324 123<24.4822 90.2278>
LayerCount: 2
Fore
SplineSet
447 57 m 0x8a
 447 22 412 11 384 11 c 0
 349 11 324 39 324 64 c 0
 324 87 345 105 382 105 c 0
 412 105 447 82 447 57 c 0x8a
293 256 m 0x1c
 326 256 361 230 361 203 c 0
 361 178 338 168 315 168 c 0
 280 168 247 196 247 222 c 0
 247 238 263 256 293 256 c 0x1c
137 22 m 0x68
 117 22 91 35 91 66 c 0
 91 77 104 79 116 92 c 0
 120 96 121 100 121 103 c 0
 121 110 111 122 101 122 c 0
 99 121 85 111 73 111 c 0
 71 111 69 111 67 112 c 0
 44 121 39 136 19 152 c 1
 19 154 l 2
 19 175 56 184 92 184 c 0
 162 184 227 142 227 87 c 1
 227 50 173 22 137 22 c 0x68
EndSplineSet
Validated: 1
EndChar

StartChar: uniEE80
Encoding: 61056 61056 10
Width: 398
VWidth: 0
Flags: W
HStem: 22 67<158.927 276.632>
LayerCount: 2
Fore
SplineSet
337 205 m 27
 360 205 378 187 378 161 c 0
 378 120 376 99 348 67 c 9
 314 31 277 22 226 22 c 19
 145 22 100 52 59 96 c 8
 36 120 20 143 20 170 c 0
 20 187 42 199 61 199 c 0
 68 199 75 198 80 194 c 8
 114 173 115 141 147 119 c 25
 172 99 189 89 221 89 c 27
 246 89 265 96 281 115 c 25
 300 140 286 166 304 192 c 25
 311 205 323 205 337 205 c 27
EndSplineSet
Validated: 1
EndChar

StartChar: uniEE84
Encoding: 61060 61060 11
Width: 636
VWidth: 0
Flags: W
HStem: 21 74<160.685 248.759> 61 76<346.322 427.431>
VStem: 152 101<27.4121 71.8514> 341 91<66.61 130.95>
DStem2: 42 162 50 119 0.965768 0.259408<-8.25723 466.136>
AnchorPoint: "Tonal" 238.64 272.4 basechar 0
AnchorPoint: "Podchashie" 316.08 8.40039 basechar 0
AnchorPoint: "Right" 664.56 302.32 basechar 0
LayerCount: 2
Fore
SplineSet
341 107 m 0x70
 341 130 360 137 379 137 c 0x70
 409 137 432 126 432 95 c 0xb0
 432 68 409 61 390 61 c 0
 360 61 341 75 341 107 c 0x70
253 59 m 0
 253 31 225 21 198 21 c 0
 188 21 165 21 152 40 c 0
 152 42 152 44 152 46 c 0
 152 55 153 69 158 72 c 0
 177 82 198 95 219 95 c 0xb0
 235 95 253 84 253 59 c 0
587 306 m 0
 605 306 615 294 615 288 c 0
 615 281 610 274 601 267 c 1
 394 214 443 227 290 184 c 8
 205 160 133 139 50 119 c 1
 45 119 l 2
 33 119 20 128 20 140 c 0
 20 147 34 160 42 162 c 8
 135 193 235 220 281 234 c 0
 304 241 518 306 587 306 c 0
EndSplineSet
Validated: 1
EndChar

StartChar: uniEE7E
Encoding: 61054 61054 12
Width: 797
VWidth: 0
Flags: W
HStem: 22 21G<723.5 740.5> 221 62<51.6153 121.903> 269 52<279.397 339.574>
VStem: 122 106<177.54 220.458> 340 85<230.625 268.238>
AnchorPoint: "Tonal" 233.64 369.2 basechar 0
AnchorPoint: "Podchashie" 374.44 21.5996 basechar 0
AnchorPoint: "Right" 734.04 285.72 basechar 0
LayerCount: 2
Fore
SplineSet
454 368 m 1x98
 451 374 449 379 449 384 c 0
 449 404 477 421 500 421 c 0
 511 421 519 418 526 407 c 1
 634 282 679 226 771 75 c 0
 775 69 776 64 776 59 c 0
 776 39 752 22 729 22 c 0
 718 22 706 25 699 36 c 0
 540 272 514 302 454 368 c 1x98
353 189 m 0
 336 189 316 200 316 224 c 0
 316 233 326 234 337 247 c 0
 339 249 340 252 340 254 c 0
 340 262 331 269 323 269 c 0
 315 269 308 261 300 261 c 0
 299 261 298 261 297 261 c 0
 277 268 272 280 258 295 c 1
 258 296 l 2
 258 314 286 321 316 321 c 0xb8
 372 321 422 286 425 242 c 1
 425 212 381 189 353 189 c 0
122 202 m 0
 122 209 112 221 102 221 c 0
 92 221 83 210 73 210 c 0
 71 210 70 210 68 211 c 0
 45 220 40 235 21 251 c 1
 21 253 l 2
 21 274 58 283 93 283 c 0xd8
 163 283 223 241 228 186 c 1
 228 149 174 121 139 121 c 0
 118 121 92 134 92 165 c 0
 92 176 105 178 117 191 c 0
 121 195 122 199 122 202 c 0
EndSplineSet
Validated: 1
EndChar

StartChar: uniEE89
Encoding: 61065 61065 13
Width: 358
VWidth: 0
Flags: W
HStem: 21 21G<173.5 204.5> 57 47<22 85.87> 95 88<223.812 295.843>
VStem: 108 94<158 239.895> 144 89<34.6055 83.5469>
LayerCount: 2
Fore
SplineSet
144 84 m 25xa8
 103 73 53 57 47 57 c 0
 34 57 20 70 20 84 c 0
 20 91 22 97 22 104 c 1
 56 121 78 121 114 135 c 1
 114 156 108 169 108 185 c 0
 108 215 122 250 158 250 c 0
 165 250 174 248 182 246 c 0
 202 241 191 193 202 158 c 1xd0
 230 165 263 183 293 183 c 0
 307 183 337 165 337 151 c 0
 337 118 223 95 223 95 c 1
 225 81 233 61 233 46 c 0
 233 24 216 21 193 21 c 0
 154 21 163 60 144 84 c 25xa8
EndSplineSet
Validated: 1
EndChar

StartChar: uniEE8B
Encoding: 61067 61067 14
Width: 389
VWidth: 0
Flags: W
HStem: 21 54<179.286 227.451> 316 69<182.851 228.42>
VStem: 110 65<75.6461 184 255 310.59> 232 68<95.81 206> 232 54<276 314.755>
DStem2: 110 241 110 184 0.985961 0.166977<-80.2793 -9.5177 70.369 114.443 179.373 232.254>
LayerCount: 2
Fore
SplineSet
369 255 m 0xe8
 369 221 321 221 295 216 c 1
 297 193 300 169 300 146 c 0xf0
 300 77 279 21 196 21 c 0
 168 21 142 22 130 44 c 0
 112 72 110 96 110 126 c 0
 110 133 110 142 110 149 c 0
 110 158 110 169 110 179 c 0
 110 181 110 183 110 184 c 1
 91 181 70 177 47 174 c 0
 44 173 42 173 40 173 c 0
 29 173 20 181 20 197 c 0
 20 213 31 227 45 228 c 0
 68 234 91 237 110 241 c 1
 112 279 115 316 133 350 c 0
 147 378 182 385 218 385 c 0
 274 385 281 322 286 276 c 1
 302 278 320 285 339 285 c 0
 355 285 369 274 369 255 c 0xe8
175 133 m 0
 175 128 175 121 175 116 c 0
 175 89 188 89 193 75 c 1
 209 75 226 84 228 95 c 0
 232 112 232 147 232 172 c 0
 232 186 232 195 232 206 c 1
 214 202 196 198 177 195 c 1
 177 177 175 156 175 133 c 0
232 265 m 1xe8
 230 299 226 316 212 316 c 0
 188 313 181 299 181 285 c 0
 181 276 179 265 179 255 c 1
 196 258 214 262 232 265 c 1xe8
EndSplineSet
Validated: 1
EndChar

StartChar: uniEE8D
Encoding: 61069 61069 15
Width: 261
VWidth: 0
Flags: W
VStem: 20 113<343.558 405.639> 36 94<571.29 640.041> 101 88<-195.04 280.624>
LayerCount: 2
Fore
SplineSet
144 -199 m 0x20
 119 -199 100 -191 100 -170 c 2
 101 93 l 0x20
 101 124 103 142 103 175 c 0
 103 221 112 246 117 292 c 1
 71 295 20 313 20 358 c 0x80
 20 420 96 427 131 506 c 1
 86 533 36 543 36 596 c 0
 36 654 98 686 126 718 c 1
 126 709 128 705 128 696 c 0
 128 686 144 682 144 672 c 0
 144 640 130 624 130 593 c 0x40
 130 575 152 568 170 568 c 0
 200 568 240 566 240 536 c 0
 240 459 133 448 133 371 c 0x80
 133 330 212 341 212 300 c 0
 212 251 189 226 189 179 c 2
 189 93 l 1
 188 -170 l 2
 188 -184 174 -199 144 -199 c 0x20
EndSplineSet
Validated: 1
EndChar

StartChar: uniEE8F
Encoding: 61071 61071 16
Width: 407
VWidth: 0
Flags: W
HStem: 22 278
DStem2: 28 211 63 155 0.930951 0.365144<1.2961 244.58> 134 81 167 24 0.928934 0.370245<-0.347357 242.346>
AnchorPoint: "Right" 407.16 239.32 basechar 0
AnchorPoint: "Podchashie" 299 -14.2402 basechar 0
AnchorPoint: "Tonal" 349.08 286.84 basechar 0
LayerCount: 2
Fore
SplineSet
157 22 m 0
 138 22 121 40 121 61 c 0
 121 70 125 78 134 81 c 0
 241 123 255 130 348 167 c 0
 352 169 356 169 360 169 c 0
 378 169 391 153 391 134 c 0
 391 123 386 114 376 109 c 0
 288 74 251 56 167 24 c 0
 164 23 160 22 157 22 c 0
52 153 m 0
 33 153 18 169 18 191 c 0
 18 200 21 208 28 211 c 0
 137 253 151 260 244 297 c 0
 248 299 252 300 256 300 c 0
 272 300 287 284 287 265 c 0
 287 254 282 244 271 239 c 0
 185 204 148 186 63 155 c 0
 59 153 55 153 52 153 c 0
EndSplineSet
Validated: 1
EndChar

StartChar: uniEE93
Encoding: 61075 61075 17
Width: 684
VWidth: 0
Flags: W
HStem: 21 60<112.804 202.64> 82 62<290.029 383.264> 162 59<22.8134 109.558> 223 62<203.553 294.417> 357 20G<378.5 394.5>
DStem2: 412 368 363 294 0.645077 -0.764118<-20.21 409.5>
AnchorPoint: "Right" 632.04 266.04 basechar 0
AnchorPoint: "Podchashie" 302 -16.2402 basechar 0
AnchorPoint: "Tonal" 136.56 330.48 basechar 0
LayerCount: 2
Fore
SplineSet
340 338 m 0
 340 361 366 377 391 377 c 0
 398 377 407 375 412 368 c 0
 481 285 556 201 644 88 c 0
 657 72 664 62 664 42 c 1
 664 26 648 14 632 14 c 0
 600 14 588 33 567 55 c 1
 430 222 410 241 363 294 c 0
 350 308 340 319 340 338 c 0
144 21 m 2
 122 21 110 38 110 60 c 0
 110 70 113 78 122 81 c 0
 235 110 249 116 348 144 c 1
 355 144 l 2
 374 144 386 125 386 109 c 0
 386 96 381 86 367 82 c 0
 277 58 239 44 151 21 c 1
 144 21 l 2
54 162 m 0
 34 162 20 177 20 200 c 0
 20 211 24 220 34 221 c 1
 147 253 159 257 258 285 c 1
 267 285 l 2
 284 285 297 267 297 250 c 0
 297 237 291 227 279 223 c 0
 189 198 149 186 63 163 c 0
 59 162 57 162 54 162 c 0
EndSplineSet
Validated: 1
EndChar

StartChar: uniEE9A
Encoding: 61082 61082 18
Width: 1305
VWidth: 0
Flags: W
HStem: 21 21G<168.5 180.5> 220 21G<461 598.5>
DStem2: 33 176 66 120 0.932694 0.360668<0.665085 221.429> 156 79 191 23 0.930253 0.366918<0.24608 243.283> 438 273 463 220 0.925024 0.37991<-26.525 887.911>
AnchorPoint: "Right" 1334.12 612.32 basechar 0
AnchorPoint: "Podchashie" 740.24 149.48 basechar 0
AnchorPoint: "Tonal" 670.72 443.32 basechar 0
LayerCount: 2
Fore
SplineSet
443 221 m 0
 428 221 421 228 421 244 c 0
 421 256 427 268 438 273 c 0
 692 376 868 447 1229 596 c 1
 1236 602 1252 605 1262 605 c 0
 1278 605 1283 598 1285 581 c 1
 1285 567 1269 559 1255 554 c 0
 949 424 734 325 463 220 c 1
 459 221 456 221 452 221 c 0
 449 221 446 221 443 221 c 0
179 21 m 0
 158 21 145 39 145 61 c 0
 145 69 148 76 156 79 c 0
 265 121 277 128 372 165 c 0
 376 167 379 167 383 167 c 0
 401 167 415 148 415 130 c 0
 415 121 409 113 399 107 c 1
 313 72 274 54 191 23 c 0
 186 21 182 21 179 21 c 0
56 118 m 0
 36 118 20 134 20 157 c 0
 20 165 24 172 33 176 c 0
 140 218 137 215 230 253 c 0
 233 255 237 255 240 255 c 0
 260 255 274 236 274 218 c 0
 274 208 269 199 258 195 c 0
 170 160 151 151 66 120 c 0
 63 118 59 118 56 118 c 0
EndSplineSet
Validated: 1
EndChar

StartChar: uniEE9D
Encoding: 61085 61085 19
Width: 1490
VWidth: 0
Flags: W
HStem: 22 21G<159.5 179> 131 97<766.593 848.876> 185 94<1037.94 1108.05> 479 51<1378.01 1469.1>
VStem: 750 111<148 214.965> 1028 85<194.069 269.585>
DStem2: 33 187 63 129 0.95874 0.284284<3.45136 222.227> 149 82 179 22 0.956227 0.292625<-18.2958 240.369> 456 254 477 199 0.962639 0.270788<-25.6916 1026.33>
AnchorPoint: "Tonal" 889.12 461.72 basechar 0
AnchorPoint: "Podchashie" 971.84 106.2 basechar 0
AnchorPoint: "Right" 1539.44 530.36 basechar 0
LayerCount: 2
Fore
SplineSet
1028 236 m 0xbc
 1028 261 1058 279 1077 279 c 0
 1107 279 1113 251 1113 226 c 0
 1113 203 1095 185 1074 185 c 0
 1049 185 1028 212 1028 236 c 0xbc
750 189 m 0
 750 215 775 228 798 228 c 0
 831 228 861 207 861 173 c 0
 861 147 842 131 817 131 c 0xdc
 784 131 750 157 750 189 c 0
477 199 m 9
 456 207 437 196 437 224 c 0
 437 238 444 250 456 254 c 0
 755 346 1023 412 1414 525 c 1
 1421 529 1435 530 1445 530 c 0
 1463 530 1470 523 1470 507 c 0
 1470 490 1454 486 1438 479 c 1
 1121 377 754 277 477 199 c 9
170 22 m 0
 149 22 136 39 136 61 c 0
 136 70 139 79 149 82 c 0
 260 115 274 121 371 150 c 1
 374 152 378 152 379 152 c 0
 399 152 411 133 411 115 c 0
 411 105 406 94 394 91 c 0
 304 62 265 46 179 22 c 0
 175 20 172 22 170 22 c 0
63 129 m 0
 59 128 56 128 54 128 c 0
 34 128 20 145 20 166 c 0
 20 177 24 186 33 187 c 1
 145 221 140 219 237 249 c 1
 240 251 242 251 246 251 c 0
 263 251 277 231 277 214 c 0
 277 203 272 193 260 189 c 0
 170 161 149 154 63 129 c 0
EndSplineSet
Validated: 1
EndChar

StartChar: uniEE9E
Encoding: 61086 61086 20
Width: 1338
VWidth: 0
Flags: W
HStem: 23 21G<109 131> 104 53<44.6834 103.734> 152 52<266.374 303.136> 167 46<474.273 565.954> 329 58<1172.38 1314.04>
VStem: 104 87<66.1111 103.737>
AnchorPoint: "Tonal" 808.64 350.48 basechar 0
AnchorPoint: "Podchashie" 956.48 172.72 basechar 0
AnchorPoint: "Right" 1354.8 374.64 basechar 0
LayerCount: 2
Fore
SplineSet
513 167 m 9x9c
 498 171 474 163 474 188 c 0
 474 199 481 211 492 213 c 8
 789 292 909 308 1261 386 c 0
 1266 387 1272 387 1277 387 c 0
 1293 387 1316 379 1316 359 c 0
 1316 343 1296 333 1279 329 c 0
 981 271 802 233 513 167 c 9x9c
318 71 m 0
 300 71 280 82 280 107 c 0
 280 115 290 117 302 129 c 0
 311 138 300 148 291 152 c 16
 290 152 289 152 288 152 c 0
 281 152 274 144 266 144 c 0
 264 144 263 144 261 145 c 8
 242 152 237 164 221 176 c 17
 221 178 l 2
 221 197 251 204 281 204 c 0xac
 337 204 386 169 392 125 c 1
 392 94 346 71 318 71 c 0
117 23 m 0
 101 23 79 34 79 59 c 0
 79 67 89 69 101 81 c 0
 103 83 104 86 104 89 c 0
 104 96 97 104 88 104 c 0
 80 104 73 96 65 96 c 0
 64 96 62 96 61 97 c 8
 42 104 36 116 20 129 c 17
 20 130 l 2
 20 150 50 157 80 157 c 0xcc
 137 157 186 122 191 78 c 1
 191 46 145 23 117 23 c 0
EndSplineSet
Validated: 1
EndChar

StartChar: uniEE9F
Encoding: 61087 61087 21
Width: 1318
VWidth: 0
Flags: W
HStem: 61 96<737.572 820.464> 115 95<1009.64 1078.06> 117 52<43.9172 103.733> 162 53<260.374 297.136> 171 44<453.182 491.859>
VStem: 104 87<78.1111 116.237> 721 111<78.334 144.05> 999 84<124.41 200.828>
AnchorPoint: "Tonal" 828.12 368.56 basechar 0
AnchorPoint: "Podchashie" 944.28 57.04 basechar 0
AnchorPoint: "Right" 1354.92 375.84 basechar 0
LayerCount: 2
Fore
SplineSet
999 168 m 0x47
 999 193 1029 210 1048 210 c 0
 1078 210 1083 180 1083 156 c 0
 1083 134 1066 115 1045 115 c 0
 1020 115 999 143 999 168 c 0x47
721 119 m 0
 721 147 745 157 768 157 c 0
 802 157 832 136 832 105 c 0
 832 76 812 61 788 61 c 0x87
 754 61 721 89 721 119 c 0
475 171 m 0x0f
 463 171 453 176 453 190 c 0
 453 201 460 213 471 215 c 8
 768 295 888 310 1240 388 c 0
 1245 390 1251 390 1256 390 c 0
 1272 390 1295 381 1295 362 c 0
 1295 346 1275 335 1258 332 c 0
 960 274 781 235 492 170 c 1
 489 171 485 171 482 171 c 0
 479 171 477 171 475 171 c 0x0f
312 81 m 0
 294 81 274 92 274 117 c 0x27
 274 125 284 127 296 139 c 0
 305 148 294 158 285 162 c 16
 284 162 283 162 282 162 c 0
 275 162 268 154 260 154 c 0
 258 154 257 154 255 155 c 8
 236 162 231 174 215 187 c 17
 215 188 l 2
 215 208 245 215 275 215 c 0x17
 331 215 380 180 386 136 c 1
 386 104 340 81 312 81 c 0
117 35 m 0
 101 35 79 46 79 71 c 0
 79 79 89 81 101 93 c 0
 103 95 104 98 104 101 c 0
 104 109 96 117 87 117 c 0
 79 117 72 108 65 108 c 0
 64 108 62 108 61 109 c 8
 42 116 36 128 20 141 c 17
 20 143 l 2
 20 162 50 169 80 169 c 0
 137 169 186 134 191 90 c 1
 191 58 145 35 117 35 c 0
EndSplineSet
Validated: 1
EndChar

StartChar: uniEEA6
Encoding: 61094 61094 22
Width: 1099
VWidth: 0
Flags: W
HStem: 21 21G<109 131> 102 53<44.6834 103.734> 125 44<236.115 274.859>
VStem: 104 87<64.1111 101.737>
AnchorPoint: "Tonal" 569.4 296.16 basechar 0
AnchorPoint: "Podchashie" 692.6 130.72 basechar 0
AnchorPoint: "Right" 1134.56 334.36 basechar 0
LayerCount: 2
Fore
SplineSet
258 125 m 0xb0
 246 125 236 131 236 145 c 0
 236 156 244 167 254 169 c 8
 552 249 671 264 1023 342 c 0
 1029 344 1034 344 1039 344 c 0
 1055 344 1078 335 1078 316 c 0
 1078 300 1059 289 1041 286 c 0
 744 228 564 189 275 124 c 1
 272 125 268 125 265 125 c 0
 263 125 260 125 258 125 c 0xb0
117 21 m 0
 101 21 79 32 79 57 c 0
 79 65 89 67 101 79 c 0
 103 81 104 84 104 87 c 0
 104 94 97 102 88 102 c 0
 80 102 73 94 65 94 c 0
 64 94 62 94 61 95 c 8
 42 102 36 114 20 127 c 17
 20 128 l 2
 20 148 50 155 80 155 c 0xd0
 137 155 186 120 191 76 c 1
 191 44 145 21 117 21 c 0
EndSplineSet
Validated: 1
EndChar

StartChar: uniEEB0
Encoding: 61104 61104 23
Width: 1397
VWidth: 0
Flags: W
HStem: 20 60<135.804 216.03> 89 61<320.95 405.071> 201 62<186.205 273.498> 404 58<1252.38 1376.09>
DStem2: 509 219 543 158 0.95238 0.304912<-1.74355 858.731>
AnchorPoint: "Right" 1427.44 440.64 basechar 0
AnchorPoint: "Podchashie" 655.44 47 basechar 0
AnchorPoint: "Tonal" 780.844 412.407 basechar 0
LayerCount: 2
Fore
SplineSet
369 278 m 1
 388 283 409 286 427 286 c 0
 453 286 478 279 492 256 c 0
 501 241 502 234 509 219 c 25
 1268 462 l 17
 1273 462 1317 464 1333 464 c 0
 1357 464 1377 461 1377 439 c 0
 1377 438 1377 437 1377 436 c 1
 1377 408 1363 404 1342 404 c 2
 1322 404 l 2
 1312 404 1305 404 1282 399 c 1
 1081 336 902 283 543 158 c 8
 527 153 518 147 501 147 c 27
 428 147 383 263 369 278 c 1
166 20 m 0
 145 20 133 37 133 59 c 0
 133 69 136 77 145 80 c 0
 256 113 270 119 367 150 c 1
 376 150 l 2
 395 150 408 131 408 115 c 0
 408 103 402 94 390 89 c 1
 300 62 262 48 175 22 c 1
 172 20 168 20 166 20 c 0
63 141 m 1
 59 141 56 140 54 140 c 0
 34 140 20 159 20 178 c 0
 20 189 24 198 33 201 c 0
 145 235 140 231 237 263 c 1
 246 263 l 2
 263 263 277 243 277 226 c 0
 277 215 272 207 260 201 c 1
 170 175 149 168 63 141 c 1
EndSplineSet
Validated: 1
EndChar

StartChar: uniEEB5
Encoding: 61109 61109 24
Width: 1522
VWidth: 0
Flags: W
HStem: 22 21G<184 201>
DStem2: 516 235 550 173 0.958306 0.285743<-2.63092 987.756>
AnchorPoint: "Right" 1571.67 504.2 basechar 0
AnchorPoint: "Podchashie" 704.56 118.48 basechar 0
AnchorPoint: "Tonal" 829.964 483.888 basechar 0
LayerCount: 2
Fore
SplineSet
184 289 m 0
 186 304 202 310 217 310 c 0
 240 310 251 302 262 287 c 1
 272 270 373 150 373 96 c 0
 373 76 364 69 351 69 c 0
 336 69 314 82 306 90 c 8
 253 150 233 191 193 261 c 16
 188 270 182 279 184 289 c 0
221 47 m 0
 221 31 209 22 193 22 c 0
 175 22 161 31 149 45 c 8
 93 106 71 150 31 223 c 16
 26 231 20 240 20 249 c 0
 20 268 45 274 59 274 c 0
 86 274 93 265 105 249 c 17
 117 230 221 103 221 47 c 0
372 300 m 1
 391 305 411 310 428 310 c 0
 455 310 485 294 499 272 c 1
 507 256 509 249 516 235 c 25
 868 338 1120 419 1421 502 c 1
 1438 509 1453 511 1465 511 c 0
 1491 511 1502 496 1502 480 c 0
 1502 479 1502 477 1502 476 c 0
 1502 449 1312 395 1282 388 c 1
 1079 324 923 286 550 173 c 0
 534 168 525 162 507 162 c 27
 432 162 386 286 372 300 c 1
EndSplineSet
Validated: 1
EndChar

StartChar: uniEEBD
Encoding: 61117 61117 25
Width: 1063
VWidth: 0
Flags: W
HStem: 21 21G<112.5 122.5> 237 99<974.699 1031.03> 237 41<951.191 974.086>
DStem2: 138 72 140 24 0.95298 0.303032<-13.2996 862.098>
AnchorPoint: "Tonal" 442.56 219.6 basechar 0
AnchorPoint: "Podchashie" 611.52 110.48 basechar 0
AnchorPoint: "Right" 1113.12 334 basechar 0
LayerCount: 2
Fore
SplineSet
20 100 m 0xa0
 20 110 52 125 69 125 c 0
 101 125 110 88 138 72 c 1
 474 179 105 61 953 332 c 0
 962 334 972 336 985 336 c 0
 1006 336 1043 322 1043 279 c 0
 1043 258 1011 237 976 237 c 0xc0
 964 237 955 241 951 255 c 1
 946 264 948 274 960 278 c 8
 967 279 976 281 974 288 c 16
 971 297 962 295 951 292 c 0
 629 186 288 70 140 24 c 0
 133 22 126 21 119 21 c 0
 106 21 96 26 84 33 c 8
 59 49 20 72 20 100 c 0xa0
EndSplineSet
Validated: 1
EndChar

StartChar: uniEEBF
Encoding: 61119 61119 26
Width: 541
VWidth: 0
Flags: W
HStem: 22 21G<426 480.5> 83 34<340.31 368.137> 210 49<104.084 348.861>
VStem: 436 84<53 140.003>
LayerCount: 2
Fore
SplineSet
196 259 m 0
 341 259 520 201 520 67 c 0
 520 39 506 22 455 22 c 1
 397 22 367 83 335 83 c 1
 337 94 330 117 360 117 c 0
 406 117 409 85 434 85 c 1
 436 92 436 97 436 104 c 0
 436 184 307 210 247 210 c 0
 179 210 133 185 59 185 c 19
 42 185 20 185 20 210 c 0
 20 245 130 259 196 259 c 0
EndSplineSet
Validated: 1
EndChar

StartChar: uniEE50
Encoding: 61008 61008 27
Width: 0
VWidth: 0
GlyphClass: 4
Flags: W
HStem: 391 102<-163.439 -78.8262>
VStem: -176 113<404.109 476.092>
AnchorPoint: "Tonal" -114.367 387.286 mark 0
LayerCount: 2
Fore
SplineSet
-134 493 m 0
 -97 493 -63 465 -63 445 c 0
 -63 415 -84 391 -114 391 c 27
 -148 391 -176 414 -176 447 c 19
 -176 472 -162 493 -134 493 c 0
EndSplineSet
Validated: 1
EndChar

StartChar: uniEE51
Encoding: 61009 61009 28
Width: 0
VWidth: 0
GlyphClass: 4
Flags: W
HStem: 324 102<-364.777 -280.395> 394 102<-171.702 -86.25>
VStem: -378 112<337.295 410.25> -185 113<407.725 480.102>
AnchorPoint: "Tonal" -316.736 318.646 mark 0
LayerCount: 2
Fore
SplineSet
-143 496 m 0x70
 -106 496 -72 470 -72 449 c 0
 -72 419 -93 394 -123 394 c 27
 -157 394 -185 419 -185 451 c 19
 -185 475 -171 496 -143 496 c 0x70
-336 426 m 0xb0
 -299 426 -266 400 -266 378 c 0
 -266 348 -287 324 -317 324 c 27
 -350 324 -378 348 -378 380 c 19
 -378 405 -364 426 -336 426 c 0xb0
EndSplineSet
Validated: 1
EndChar

StartChar: uniEE52
Encoding: 61010 61010 29
Width: 0
VWidth: 0
Flags: W
HStem: 324 102<-535.777 -450.89> 394 102<-342.393 -257.143> 472 102<-167.777 -84.5926>
VStem: -549 113<337.295 409.939> -356 113<408.42 480.102> -181 112<485.295 557.5>
AnchorPoint: "Tonal" -490.112 320.406 mark 0
LayerCount: 2
Fore
SplineSet
-141 574 m 0x3c
 -102 574 -69 546 -69 526 c 0
 -69 496 -92 472 -120 472 c 27
 -153 472 -181 496 -181 528 c 19
 -181 553 -169 574 -141 574 c 0x3c
-315 496 m 0x5c
 -276 496 -243 470 -243 449 c 0
 -243 419 -266 394 -294 394 c 27
 -327 394 -356 419 -356 451 c 19
 -356 475 -343 496 -315 496 c 0x5c
-509 426 m 0x9c
 -470 426 -436 400 -436 378 c 0
 -436 348 -459 324 -488 324 c 27
 -521 324 -549 348 -549 380 c 19
 -549 405 -537 426 -509 426 c 0x9c
EndSplineSet
Validated: 1
EndChar

StartChar: uniEE58
Encoding: 61016 61016 30
Width: 0
VWidth: 0
Flags: W
HStem: 407 151
VStem: -348 278
AnchorPoint: "Tonal" -183.009 426.006 mark 0
LayerCount: 2
Fore
SplineSet
-181 480 m 0
 -250 480 -257 407 -294 407 c 0
 -322 407 -348 442 -348 465 c 1
 -260 553 -213 553 -151 558 c 1
 -118 554 -70 563 -70 517 c 0
 -70 493 -83 470 -109 470 c 0
 -136 470 -153 480 -181 480 c 0
EndSplineSet
Validated: 1
EndChar

StartChar: uniEE76
Encoding: 61046 61046 31
Width: 527
VWidth: 0
Flags: W
HStem: 22 97<158.399 220.628> 189 102<220.298 305.244> 277 102<407.289 491.605>
VStem: 20 111<89.209 180.453> 207 113<202.631 274.939> 394 112<290.631 363.25>
LayerCount: 2
Fore
SplineSet
436 379 m 0xbc
 473 379 506 353 506 331 c 0
 506 302 485 277 455 277 c 27
 422 277 394 302 394 333 c 19
 394 358 408 379 436 379 c 0xbc
249 291 m 0xdc
 286 291 320 265 320 243 c 0
 320 214 298 189 269 189 c 27
 235 189 207 214 207 245 c 19
 207 270 221 291 249 291 c 0xdc
131 89 m 9
 177 101 200 119 249 119 c 0
 269 119 284 113 284 85 c 0
 284 60 181 22 112 22 c 0
 84 22 61 29 56 45 c 0
 42 82 26 126 20 170 c 1
 49 187 75 191 89 191 c 0
 121 191 115 150 131 89 c 9
EndSplineSet
Validated: 1
LCarets2: 1 0 
Ligature2: "'ccmp' Znamenny Ligatures 0-1" uniEE75 uniEE51
EndChar

StartChar: uniEE79
Encoding: 61049 61049 32
Width: 484
VWidth: 0
Flags: W
HStem: 21 21G<356.5 388> 200 94<352.532 452.82> 346 83<254.34 348.206>
VStem: 242 116<359.76 417.098> 341 123<212.75 282.959>
LayerCount: 2
Fore
SplineSet
402 294 m 0xe8
 434 294 464 276 464 248 c 0
 464 218 429 200 399 200 c 0
 367 200 341 225 341 251 c 0
 341 274 365 294 402 294 c 0xe8
242 396 m 0xf0
 242 413 263 429 293 429 c 0
 325 429 358 411 358 383 c 0
 358 360 334 346 306 346 c 0
 276 346 242 367 242 396 c 0xf0
20 403 m 0
 20 426 45 441 71 441 c 0
 78 441 86 440 93 433 c 0
 209 285 272 204 406 74 c 0
 409 68 411 63 411 58 c 0
 411 42 397 24 379 21 c 1
 334 22 332 33 311 54 c 1
 202 149 145 232 43 359 c 0
 31 373 20 383 20 403 c 0
EndSplineSet
Validated: 1
LCarets2: 1 0 
Ligature2: "'ccmp' Znamenny Ligatures 0-1" uniEE78 uniEE5B
EndChar

StartChar: uniEE7D
Encoding: 61053 61053 33
Width: 396
VWidth: 0
Flags: W
HStem: 21 21G<128 156> 121 62<51.5741 120.446> 127 88<277.353 359.09>
VStem: 122 106<77.5405 120.458> 261 114<144.25 198.625>
LayerCount: 2
Fore
SplineSet
307 215 m 0xb8
 340 215 375 189 375 162 c 0
 375 137 352 127 329 127 c 0
 294 127 261 155 261 181 c 0
 261 197 277 215 307 215 c 0xb8
122 102 m 0
 122 109 112 121 102 121 c 0
 92 121 83 110 73 110 c 0
 72 110 70 110 68 111 c 0
 45 120 40 135 20 151 c 1
 20 153 l 2
 20 174 57 183 93 183 c 0xd8
 163 183 228 141 228 86 c 1
 228 49 174 21 138 21 c 0
 118 21 92 34 92 65 c 0
 92 76 105 78 117 91 c 0
 121 95 122 99 122 102 c 0
EndSplineSet
Validated: 1
EndChar

StartChar: uniEE7F
Encoding: 61055 61055 34
Width: 805
VWidth: 0
Flags: W
HStem: 21 21G<127.5 156> 121 62<51.5741 114.36> 126 67<566.923 684.126> 161 60<242.268 298.532>
VStem: 711 74<221.536 304.435>
AnchorPoint: "Tonal" 206.92 270.04 basechar 0
AnchorPoint: "Podchashie" 398.76 0 basechar 0
AnchorPoint: "Right" 819.36 360 basechar 0
LayerCount: 2
Fore
SplineSet
744 309 m 27xa8
 767 309 785 293 785 265 c 0
 785 224 785 203 755 172 c 8
 722 135 685 126 634 126 c 19
 553 126 507 156 466 200 c 8
 445 224 428 249 428 274 c 0
 428 291 449 304 468 304 c 0
 475 304 482 302 488 298 c 8
 521 277 523 247 554 223 c 24
 579 205 598 193 628 193 c 27
 655 193 672 200 688 219 c 24
 708 244 695 270 711 297 c 24
 718 309 730 309 744 309 c 27xa8
326 89 m 0
 308 89 292 98 289 121 c 0xc8
 288 123 288 124 288 125 c 0
 288 133 300 135 310 147 c 0
 319 156 308 165 299 168 c 0
 289 172 280 158 269 161 c 0
 250 168 245 181 231 195 c 1
 231 196 l 0
 231 214 259 221 289 221 c 0x98
 345 221 394 186 398 142 c 1
 398 112 354 89 326 89 c 0
138 21 m 0
 117 21 98 32 93 60 c 0
 93 62 92 64 92 65 c 0
 92 76 105 78 117 92 c 0
 130 104 117 114 107 120 c 0
 105 121 104 121 102 121 c 0
 92 121 83 110 73 110 c 0
 71 110 70 110 68 111 c 0
 45 120 40 136 20 151 c 1
 20 153 l 0
 20 174 57 183 93 183 c 0
 163 183 223 141 228 86 c 1
 228 49 174 21 138 21 c 0
EndSplineSet
Validated: 1
EndChar

StartChar: uniEE83
Encoding: 61059 61059 35
Width: 636
VWidth: 0
Flags: W
HStem: 22 75<279.536 360.949>
VStem: 274 91<28.0645 92.1484>
DStem2: 42 131 290 154 0.966206 0.257772<-7.9278 460>
AnchorPoint: "Tonal" 263.28 241.72 basechar 0
AnchorPoint: "Podchashie" 342.48 -17 basechar 0
AnchorPoint: "Right" 645.68 270.92 basechar 0
LayerCount: 2
Fore
SplineSet
274 67 m 0
 274 90 293 97 314 97 c 0
 344 97 365 87 365 55 c 0
 365 29 344 22 323 22 c 0
 295 22 274 36 274 67 c 0
587 275 m 0
 605 275 615 263 615 258 c 0
 615 251 610 243 601 236 c 1
 394 184 443 196 290 154 c 8
 205 129 133 108 50 89 c 0
 49 89 47 89 45 89 c 0
 33 89 20 97 20 110 c 0
 20 117 34 129 42 131 c 8
 135 163 235 189 281 203 c 0
 304 210 518 275 587 275 c 0
EndSplineSet
Validated: 1
EndChar

StartChar: uniEE85
Encoding: 61061 61061 36
Width: 636
VWidth: 0
Flags: W
HStem: 22 74<133.819 221.772> 62 76<319.554 401.431> 110 74<484.492 570.885>
VStem: 126 100<28.4121 72.855> 314 92<67.9532 131.95> 474 101<116.412 160.758>
DStem2: 42 166 290 189 0.965768 0.259408<-7.99782 460.015>
AnchorPoint: "Tonal" 296.72 298.04 basechar 0
AnchorPoint: "Podchashie" 404.08 -13.4805 basechar 0
AnchorPoint: "Right" 640.2 306.4 basechar 0
LayerCount: 2
Fore
SplineSet
575 148 m 0x3c
 575 120 548 110 520 110 c 0
 510 110 487 110 474 129 c 1
 474 130 474 131 474 133 c 0
 474 141 475 156 482 161 c 1
 499 170 522 184 541 184 c 0
 559 184 575 171 575 148 c 0x3c
314 108 m 0
 314 131 334 138 353 138 c 0x5c
 383 138 406 127 406 96 c 0x9c
 406 69 383 62 364 62 c 0x5c
 334 62 314 76 314 108 c 0
226 60 m 0
 226 32 198 22 172 22 c 0
 161 22 138 22 126 41 c 1
 126 53 l 2
 126 61 127 70 131 73 c 0
 151 83 172 96 193 96 c 0x9c
 209 96 226 85 226 60 c 0
587 310 m 0
 605 310 615 298 615 293 c 0
 615 286 610 279 601 272 c 1
 394 219 443 231 290 189 c 9
 205 164 133 143 50 124 c 1
 45 124 l 2
 33 124 20 133 20 145 c 0
 20 152 34 164 42 166 c 8
 135 198 235 224 281 238 c 0
 304 245 518 310 587 310 c 0
EndSplineSet
Validated: 1
EndChar

StartChar: uniEE88
Encoding: 61064 61064 37
Width: 615
VWidth: 0
Flags: W
HStem: 22 21G<195.5 211> 178 64<443.516 488.068>
VStem: 489 105<136.133 177.135>
AnchorPoint: "Right" 614.92 211.8 basechar 0
AnchorPoint: "Podchashie" 302 -17 basechar 0
AnchorPoint: "Tonal" 136.56 329.72 basechar 0
LayerCount: 2
Fore
SplineSet
504 80 m 0
 483 80 464 90 459 119 c 0
 459 121 458 122 458 124 c 0
 458 134 471 136 485 150 c 0
 488 153 489 156 489 159 c 0
 489 168 478 178 468 178 c 0
 466 177 454 169 443 169 c 0
 440 169 438 169 436 170 c 8
 413 177 406 192 386 208 c 17
 386 210 l 2
 386 233 423 242 459 242 c 0
 529 242 594 199 594 145 c 1
 594 106 540 80 504 80 c 0
184 245 m 0
 184 265 209 270 226 270 c 0
 242 270 251 265 262 252 c 1
 276 238 397 124 397 71 c 0
 397 53 386 48 374 48 c 0
 358 48 341 55 332 64 c 9
 272 115 246 154 198 217 c 16
 191 226 184 235 184 245 c 0
20 240 m 0
 20 258 43 265 57 265 c 0
 84 265 93 259 105 243 c 16
 119 224 233 101 233 46 c 0
 233 31 219 22 203 22 c 0
 188 22 174 31 161 43 c 8
 101 101 78 143 33 212 c 16
 27 222 20 231 20 240 c 0
EndSplineSet
Validated: 1
EndChar

StartChar: uniEE8E
Encoding: 61070 61070 38
Width: 696
VWidth: 0
Flags: W
HStem: 225 21G<42.5 53.5> 352 20G<254 264>
VStem: 456 112<344.153 406.723> 473 92<570.801 640.658> 537 88<-194.468 289.859>
DStem2: 28 283 63 227 0.930951 0.365144<1.2961 244.58> 134 153 167 96 0.928934 0.370245<-0.347355 242.346>
LayerCount: 2
Fore
SplineSet
579 -199 m 0xc8
 554 -199 537 -190 537 -169 c 2
 537 93 l 1xc8
 537 125 538 142 538 176 c 0
 538 221 547 246 552 292 c 1
 508 295 456 313 456 359 c 0xe0
 456 420 531 427 567 507 c 1
 521 533 473 544 473 596 c 0
 473 654 533 686 561 718 c 1
 563 709 565 705 565 697 c 0
 565 686 579 683 579 672 c 0
 579 640 565 624 565 593 c 0xd0
 565 575 588 568 607 568 c 0
 635 568 676 566 676 536 c 0
 676 459 568 448 568 371 c 0xe0
 568 331 647 341 647 301 c 0
 647 251 625 227 625 179 c 0
 625 63 625 -53 625 -169 c 0
 625 -183 609 -199 579 -199 c 0xc8
157 94 m 0
 138 94 121 112 121 133 c 0
 121 142 125 150 134 153 c 0
 241 195 255 202 348 239 c 0
 352 241 356 241 360 241 c 0
 378 241 391 225 391 206 c 0
 391 195 386 186 376 181 c 0
 288 146 251 128 167 96 c 0
 164 95 160 94 157 94 c 0
52 225 m 0
 33 225 18 241 18 263 c 0
 18 272 21 280 28 283 c 0
 137 325 151 332 244 369 c 0
 248 371 252 372 256 372 c 0
 272 372 287 356 287 337 c 0
 287 326 282 316 271 311 c 0
 185 276 148 258 63 227 c 0
 59 225 55 225 52 225 c 0
EndSplineSet
Validated: 1
EndChar

StartChar: uniEE82
Encoding: 61058 61058 39
Width: 636
VWidth: 0
Flags: W
HStem: 21 86<266.254 312.472>
VStem: 335 44<84.3296 119.26>
DStem2: 42 133 290 156 0.965768 0.259408<-7.99782 466.395>
AnchorPoint: "Podchashie" 312.56 -21.5195 basechar 0
AnchorPoint: "Right" 638.76 268.4 basechar 0
AnchorPoint: "Tonal" 291.44 281.2 basechar 0
LayerCount: 2
Fore
SplineSet
262 63 m 0
 262 86 274 107 295 107 c 0
 313 107 307 100 313 84 c 0
 316 75 327 79 332 84 c 25
 337 91 330 100 335 107 c 25
 346 118 357 118 371 125 c 17
 377 122 379 116 379 109 c 0
 379 99 376 87 371 75 c 0
 357 42 327 21 298 21 c 0
 274 21 262 40 262 63 c 0
587 278 m 0
 605 278 615 265 615 260 c 0
 615 253 610 246 601 239 c 1
 394 186 443 198 290 156 c 9
 205 132 133 110 50 91 c 0
 49 91 47 91 45 91 c 0
 33 91 20 100 20 112 c 0
 20 119 34 132 42 133 c 8
 135 165 235 191 281 206 c 0
 304 213 518 278 587 278 c 0
EndSplineSet
Validated: 1
EndChar

StartChar: uniEE90
Encoding: 61072 61072 40
Width: 659
VWidth: 0
Flags: W
HStem: 20 21G<146.5 157.5> 166 62<463.52 533.06>
VStem: 534 105<123.196 165.696>
DStem2: 28 209 63 153 0.930253 0.366918<0.288998 244.579> 132 79 167 22 0.927702 0.373321<0.37031 243.31>
AnchorPoint: "Right" 659.04 214.32 basechar 0
AnchorPoint: "Podchashie" 299 -18 basechar 0
AnchorPoint: "Tonal" 384.48 328.72 basechar 0
LayerCount: 2
Fore
SplineSet
534 146 m 0
 534 154 523 166 512 166 c 0
 502 166 495 155 485 155 c 0
 483 155 482 155 480 156 c 8
 457 165 450 181 431 197 c 17
 431 198 l 2
 431 221 468 228 503 228 c 0
 574 228 633 186 639 132 c 1
 639 95 584 66 549 66 c 0
 529 66 503 79 503 109 c 0
 503 121 515 122 530 137 c 0
 533 140 534 143 534 146 c 0
156 20 m 0
 137 20 121 38 121 60 c 0
 121 68 124 76 132 79 c 0
 241 121 255 128 348 165 c 0
 352 167 356 167 359 167 c 0
 376 167 391 152 391 133 c 0
 391 122 386 112 375 107 c 0
 288 72 251 54 167 22 c 0
 163 21 159 20 156 20 c 0
51 151 m 0
 31 151 17 169 17 191 c 0
 17 199 20 206 28 209 c 0
 137 251 149 258 244 295 c 0
 248 297 252 298 256 298 c 0
 272 298 287 282 287 263 c 0
 287 252 282 242 271 237 c 0
 185 202 146 184 63 153 c 0
 59 151 55 151 51 151 c 0
EndSplineSet
Validated: 1
EndChar

StartChar: uniEE91
Encoding: 61073 61073 41
Width: 775
VWidth: 0
Flags: W
HStem: 22 21G<147.5 158.5> 141 47<438 499.272> 179 88<640.234 715.728>
VStem: 526 92<243 325.77>
DStem2: 28 211 63 155 0.930951 0.365144<1.2961 244.58> 134 81 167 24 0.928934 0.370245<-0.347357 242.346>
AnchorPoint: "Right" 801.76 293.76 basechar 0
AnchorPoint: "Podchashie" 299 -14.2402 basechar 0
AnchorPoint: "Tonal" 415.16 381.76 basechar 0
LayerCount: 2
Fore
SplineSet
559 169 m 25xb0
 519 156 469 141 463 141 c 0
 451 141 436 154 436 169 c 0
 436 174 438 179 438 188 c 1xd0
 473 206 496 206 530 220 c 1
 530 225 l 2
 530 243 526 254 526 269 c 0
 526 299 538 334 574 334 c 0
 581 334 589 332 598 331 c 1
 618 324 607 276 618 243 c 1
 647 250 679 267 709 267 c 0
 725 267 755 248 755 234 c 0
 755 200 639 179 639 179 c 1
 639 165 649 144 649 128 c 0
 649 109 632 105 609 105 c 0
 570 105 579 144 559 169 c 25xb0
157 22 m 0
 138 22 121 40 121 61 c 0
 121 70 125 78 134 81 c 0
 241 123 255 130 348 167 c 0
 352 169 356 169 360 169 c 0
 378 169 391 153 391 134 c 0
 391 123 386 114 376 109 c 0
 288 74 251 56 167 24 c 0
 164 23 160 22 157 22 c 0
52 153 m 0
 33 153 18 169 18 191 c 0
 18 200 21 208 28 211 c 0
 137 253 151 260 244 297 c 0
 248 299 252 300 256 300 c 0
 272 300 287 284 287 265 c 0
 287 254 282 244 271 239 c 0
 185 204 148 186 63 155 c 0
 59 153 55 153 52 153 c 0
EndSplineSet
Validated: 1
EndChar

StartChar: uniEE92
Encoding: 61074 61074 42
Width: 964
VWidth: 0
Flags: W
HStem: 22 21G<146.5 157.5> 198 62<429.52 499.06> 206 46<627.668 688.272>
VStem: 500 105<155.196 197.696> 715 92<307 391.219> 749 79<194.752 233>
DStem2: 28 211 63 155 0.930253 0.366918<0.288998 244.579>
AnchorPoint: "Right" 981.38 327.92 basechar 0
AnchorPoint: "Podchashie" 299 -16 basechar 0
AnchorPoint: "Tonal" 425.16 362.48 basechar 0
LayerCount: 2
Fore
SplineSet
749 233 m 25xb4
 710 221 658 206 654 206 c 0
 642 206 627 218 627 233 c 0
 627 240 629 245 627 252 c 1
 662 270 685 270 719 284 c 1
 719 286 719 288 719 290 c 0
 719 307 715 318 715 333 c 0
 715 365 727 400 763 400 c 0
 771 400 778 398 787 395 c 0
 808 390 798 342 807 307 c 1xb8
 837 316 870 331 898 331 c 0
 914 331 944 314 944 300 c 0
 944 266 828 243 828 243 c 1
 831 229 840 210 840 194 c 0
 840 173 821 170 800 170 c 0
 761 170 768 208 749 233 c 25xb4
500 178 m 0
 500 186 489 198 478 198 c 0
 468 198 461 187 451 187 c 0
 449 187 448 187 446 188 c 8
 423 197 416 213 397 229 c 17
 397 230 l 2
 397 253 434 260 469 260 c 0xd0
 540 260 599 218 605 164 c 1
 605 127 550 98 515 98 c 0
 495 98 469 111 469 141 c 0
 469 153 481 154 496 169 c 0
 499 172 500 175 500 178 c 0
156 22 m 0
 137 22 121 40 121 62 c 0
 121 70 124 78 132 81 c 0
 241 123 255 130 348 167 c 0
 352 169 356 169 359 169 c 0
 376 169 391 154 391 135 c 0
 391 124 386 114 375 109 c 0
 288 74 251 56 167 24 c 0
 163 23 159 22 156 22 c 0
51 153 m 0
 31 153 17 171 17 193 c 0
 17 201 20 208 28 211 c 0
 137 253 149 260 244 297 c 0
 248 299 252 300 256 300 c 0
 272 300 287 284 287 265 c 0
 287 254 282 244 271 239 c 0
 185 204 146 186 63 155 c 0
 59 153 55 153 51 153 c 0
EndSplineSet
Validated: 1
EndChar

StartChar: uniEE94
Encoding: 61076 61076 43
Width: 841
VWidth: 0
Flags: W
HStem: 21 60<111.766 204.549> 82 62<290.029 382.922> 162 59<22.8134 108.315> 223 64<202.043 293.405 642.818 714.53> 361 20G<370.5 387.5>
DStem2: 405 372 356 298 0.641996 -0.766708<-20.1705 408.317>
AnchorPoint: "Right" 858.56 278.6 basechar 0
AnchorPoint: "Podchashie" 302 -18 basechar 0
AnchorPoint: "Tonal" 136.56 328.72 basechar 0
LayerCount: 2
Fore
SplineSet
715 205 m 0
 715 213 704 223 694 223 c 0
 684 223 675 213 666 213 c 2
 662 213 l 9
 639 222 632 238 613 254 c 17
 613 256 l 2
 613 279 650 287 685 287 c 0
 755 287 820 243 820 191 c 0
 820 152 766 125 731 125 c 0
 709 125 690 136 685 164 c 0
 684 166 684 167 684 169 c 0
 684 180 697 180 711 196 c 0
 714 199 715 202 715 205 c 0
333 342 m 0
 333 365 357 381 384 381 c 0
 391 381 398 379 405 372 c 0
 474 289 547 205 635 92 c 1
 650 76 655 66 655 46 c 0
 655 30 641 18 623 18 c 0
 591 18 579 37 558 59 c 1
 423 226 403 245 356 298 c 0
 343 312 333 323 333 342 c 0
142 21 m 2
 125 21 109 36 109 58 c 0
 109 68 112 78 122 81 c 0
 235 110 249 116 348 144 c 1
 355 144 l 2
 372 144 386 125 386 109 c 0
 386 96 379 86 367 82 c 0
 277 58 237 44 151 21 c 1
 142 21 l 2
54 162 m 0
 34 162 20 177 20 200 c 0
 20 211 24 220 33 221 c 1
 145 253 159 257 258 285 c 1
 265 285 l 2
 284 285 297 267 297 250 c 0
 297 237 291 227 277 223 c 0
 188 198 149 186 61 163 c 0
 59 162 56 162 54 162 c 0
EndSplineSet
Validated: 1
EndChar

StartChar: uniEE96
Encoding: 61078 61078 44
Width: 835
VWidth: 0
Flags: W
HStem: 19 21G<146.5 157.5> 189 62<435.52 505.06> 217 63<640.028 709.085>
VStem: 710 105<174.111 216.757>
DStem2: 28 208 63 152 0.930253 0.366918<0.809675 244.579> 132 78 167 21 0.927702 0.373321<0.37031 243.683>
AnchorPoint: "Right" 834.96 256.44 basechar 0
AnchorPoint: "Podchashie" 299 -19 basechar 0
AnchorPoint: "Tonal" 399.32 306.6 basechar 0
LayerCount: 2
Fore
SplineSet
710 198 m 0xb0
 710 205 699 217 688 217 c 0xb0
 679 217 671 206 661 206 c 0
 660 206 658 207 656 207 c 8
 634 216 627 232 609 248 c 17
 609 251 l 2xd0
 609 273 646 280 679 280 c 0
 750 280 810 237 815 183 c 1
 815 146 760 118 725 118 c 0
 704 118 685 128 679 156 c 0
 679 157 679 157 679 158 c 0
 679 172 691 173 706 188 c 0
 709 191 710 195 710 198 c 0xb0
506 169 m 0
 506 177 495 189 484 189 c 0
 475 189 467 178 457 178 c 0
 456 178 454 179 452 179 c 8
 429 188 422 204 403 220 c 17
 403 221 l 2
 403 244 440 251 475 251 c 0xd0
 546 251 605 209 611 155 c 1
 611 118 556 89 521 89 c 0
 500 89 480 100 475 128 c 1
 475 133 l 2
 475 144 487 146 502 160 c 0
 504 163 506 166 506 169 c 0
156 19 m 0
 137 19 121 36 121 58 c 0
 121 67 124 75 132 78 c 0
 241 120 255 127 348 164 c 0
 352 166 356 167 359 167 c 0
 377 167 391 148 391 131 c 0
 391 121 386 111 375 106 c 0
 288 71 251 53 167 21 c 0
 163 20 159 19 156 19 c 0
52 149 m 0
 31 149 17 168 17 190 c 0
 17 198 20 205 28 208 c 0
 137 250 149 257 244 294 c 0
 248 296 252 297 256 297 c 0
 273 297 287 278 287 261 c 0
 287 251 282 241 271 236 c 0
 185 201 146 183 63 152 c 0
 59 150 55 149 52 149 c 0
EndSplineSet
Validated: 1
EndChar

StartChar: uniEE98
Encoding: 61080 61080 45
Width: 761
VWidth: 0
Flags: W
HStem: 22 61<111.639 210.646> 78 62<284.35 383.473> 119 66<522.432 639.268> 119 59<22.5 119.391> 175 61<196.35 295.264>
VStem: 667 74<214.46 297.502>
AnchorPoint: "Right" 814.72 236.44 basechar 0
AnchorPoint: "Podchashie" 302 -17 basechar 0
AnchorPoint: "Tonal" 556 371.96 basechar 0
LayerCount: 2
Fore
SplineSet
700 302 m 27x24
 725 302 741 284 741 258 c 0
 741 217 741 196 711 164 c 8
 677 127 640 119 589 119 c 19
 510 119 463 148 422 192 c 9
 401 217 384 240 384 266 c 0
 384 284 405 296 424 296 c 0
 431 296 438 295 443 291 c 8
 477 270 479 238 510 215 c 24
 535 196 554 185 584 185 c 27
 611 185 628 192 644 212 c 24
 663 236 651 263 667 289 c 24
 676 302 686 302 700 302 c 27x24
142 22 m 2x84
 122 22 109 37 109 60 c 0
 109 71 112 81 122 83 c 0x84
 235 110 249 115 348 140 c 1
 355 140 l 2
 374 140 386 122 386 104 c 0
 386 92 381 82 367 78 c 0x44
 276 55 237 43 149 22 c 1
 142 22 l 2x84
54 119 m 2x14
 34 119 20 134 20 155 c 0
 20 166 24 177 34 178 c 1x14
 147 207 161 210 260 236 c 1
 267 236 l 2
 286 236 298 217 298 201 c 0
 298 189 293 178 279 175 c 0x0c
 188 152 149 140 61 119 c 1
 54 119 l 2x14
EndSplineSet
Validated: 1
EndChar

StartChar: uniEE97
Encoding: 61079 61079 46
Width: 989
VWidth: 0
Flags: W
HStem: 101 66<314.437 387.125 751.498 866.752> 186 62<436.52 506.06>
VStem: 507 105<143.196 185.696> 895 74<196.46 279.874>
DStem2: 28 207 63 151 0.930253 0.366918<0.288998 244.579> 132 77 167 20 0.927702 0.373321<0.37031 243.267>
AnchorPoint: "Right" 1002.94 286.88 basechar 0
AnchorPoint: "Podchashie" 299 -20 basechar 0
AnchorPoint: "Tonal" 427.48 310.88 basechar 0
LayerCount: 2
Fore
SplineSet
928 284 m 27
 953 284 969 268 969 240 c 0
 969 199 969 178 939 146 c 9
 906 109 869 101 818 101 c 19
 738 101 691 130 650 174 c 9
 629 199 612 224 612 248 c 0
 612 266 633 278 652 278 c 0
 659 278 666 277 672 273 c 8
 705 252 707 222 738 197 c 25
 765 180 782 167 812 167 c 27
 839 167 856 174 872 194 c 25
 893 218 879 245 895 271 c 24
 904 284 916 284 928 284 c 27
507 166 m 0
 507 174 496 186 485 186 c 0
 475 186 468 175 458 175 c 0
 456 175 455 175 453 176 c 8
 430 185 423 201 404 217 c 17
 404 218 l 2
 404 241 441 248 476 248 c 0
 547 248 606 206 612 152 c 1
 612 115 557 86 522 86 c 0
 502 86 476 99 476 129 c 0
 476 141 488 142 503 157 c 0
 506 160 507 163 507 166 c 0
156 18 m 0
 137 18 121 36 121 58 c 0
 121 66 124 74 132 77 c 0
 241 119 255 126 348 163 c 0
 352 165 355 165 359 165 c 0
 377 165 391 147 391 129 c 0
 391 119 386 110 375 105 c 0
 288 70 251 52 167 20 c 0
 163 19 159 18 156 18 c 0
51 149 m 0
 31 149 17 167 17 189 c 0
 17 197 20 204 28 207 c 0
 137 249 149 256 244 293 c 0
 248 295 252 296 256 296 c 0
 272 296 287 280 287 261 c 0
 287 250 282 240 271 235 c 0
 185 200 146 182 63 151 c 0
 59 149 55 149 51 149 c 0
EndSplineSet
Validated: 1
EndChar

StartChar: uniEE9C
Encoding: 61084 61084 47
Width: 1294
VWidth: 0
Flags: W
HStem: 20 21G<169 180.5> 116 46<729 789.5> 222 21G<449.5 587.5>
VStem: 816 93<217 298.108>
DStem2: 31 175 66 119 0.934743 0.355325<2.89183 223.3> 156 78 189 22 0.92916 0.369677<0.0607471 241.505> 427 275 451 222 0.924484 0.381221<-25.6287 886.977>
AnchorPoint: "Right" 1315.36 614.56 basechar 0
AnchorPoint: "Podchashie" 922.96 -12.2803 basechar 0
AnchorPoint: "Tonal" 713.52 475.24 basechar 0
LayerCount: 2
Fore
SplineSet
851 143 m 25
 810 131 760 116 755 116 c 0
 742 116 728 128 728 143 c 0
 728 150 729 155 729 162 c 1
 763 180 786 180 821 194 c 1
 821 215 816 227 816 243 c 0
 816 273 830 308 865 308 c 0
 872 308 879 305 890 305 c 1
 909 299 898 252 909 217 c 1
 937 224 970 241 1000 241 c 0
 1014 241 1044 224 1044 209 c 0
 1044 176 930 153 930 153 c 1
 932 139 941 120 941 104 c 0
 941 83 921 79 900 79 c 0
 861 79 870 118 851 143 c 25
432 223 m 0
 418 223 411 231 411 246 c 0
 411 258 417 270 427 275 c 0
 682 378 858 449 1217 598 c 1
 1224 604 1240 607 1250 607 c 0
 1268 607 1273 600 1273 583 c 0
 1273 569 1257 561 1245 556 c 0
 939 426 724 327 451 222 c 1
 448 223 444 223 441 223 c 0
 438 223 435 223 432 223 c 0
179 20 m 0
 159 20 144 36 144 58 c 0
 144 67 147 75 156 78 c 0
 263 120 277 127 372 164 c 0
 376 166 379 166 381 166 c 0
 401 166 415 147 415 129 c 0
 415 120 409 112 399 106 c 1
 313 71 274 53 189 22 c 0
 186 20 182 20 179 20 c 0
56 117 m 0
 36 117 20 133 20 156 c 0
 20 164 24 171 31 175 c 1
 140 217 137 214 230 252 c 0
 233 254 237 254 240 254 c 0
 258 254 272 235 272 217 c 0
 272 207 269 198 256 194 c 1
 170 159 151 150 66 119 c 0
 63 117 59 117 56 117 c 0
EndSplineSet
Validated: 1
EndChar

StartChar: uniEEA2
Encoding: 61090 61090 48
Width: 1339
VWidth: 0
Flags: W
HStem: 21 21G<184 201> 153 52<458.189 483.86>
AnchorPoint: "Right" 1388.68 546.64 basechar 0
AnchorPoint: "Tonal" 767.4 446.32 basechar 0
AnchorPoint: "Podchashie" 707.56 52.0801 basechar 0
LayerCount: 2
Fore
SplineSet
1295 538 m 0
 1311 538 1318 531 1318 513 c 1
 1318 499 1302 492 1288 487 c 0
 982 357 767 258 496 152 c 1
 492 153 488 154 484 154 c 0
 481 154 479 153 476 153 c 0
 468 153 462 154 458 161 c 0
 456 166 455 172 455 177 c 0
 455 189 461 200 472 205 c 0
 725 309 901 379 1262 529 c 1
 1269 534 1285 538 1295 538 c 0
195 278 m 0
 197 293 213 299 228 299 c 0
 251 299 262 291 273 276 c 1
 283 259 384 139 384 84 c 0
 384 65 375 58 362 58 c 0
 347 58 325 70 317 79 c 8
 264 139 244 179 204 250 c 16
 199 259 193 267 195 278 c 0
221 45 m 0
 221 30 209 21 193 21 c 0
 175 21 161 30 149 44 c 8
 93 105 71 149 31 221 c 16
 26 230 20 239 20 248 c 0
 20 267 45 272 59 272 c 0
 86 272 93 264 105 248 c 17
 117 228 221 102 221 45 c 0
EndSplineSet
Validated: 1
EndChar

StartChar: uniEEA3
Encoding: 61091 61091 49
Width: 1320
VWidth: 0
Flags: W
HStem: 22 21G<184 201> 56 95<774.04 866.819> 118 52<439.19 476.766> 165 95<1035.16 1102.73>
VStem: 762 115<69.344 140.144> 1025 86<175.103 250.35>
AnchorPoint: "Tonal" 810 390.2 basechar 0
AnchorPoint: "Podchashie" 978.96 55.7998 basechar 0
AnchorPoint: "Right" 1347.44 514.16 basechar 0
LayerCount: 2
Fore
SplineSet
1025 207 m 1x9c
 1025 234 1046 260 1074 260 c 0
 1095 260 1111 232 1111 205 c 0
 1111 188 1097 165 1074 165 c 0
 1053 165 1030 184 1025 207 c 1x9c
877 100 m 0
 877 73 854 56 826 56 c 0
 798 56 768 73 762 100 c 1
 762 135 782 151 819 151 c 0xcc
 847 151 877 133 877 100 c 0
1276 503 m 0
 1292 503 1299 496 1299 478 c 0
 1299 464 1283 455 1269 450 c 0
 963 320 748 223 477 117 c 1
 472 118 467 118 462 118 c 0
 461 118 460 118 459 118 c 0
 451 118 443 119 439 126 c 0
 437 131 436 137 436 142 c 0
 436 154 442 165 453 170 c 0xac
 706 274 882 344 1243 494 c 1
 1250 499 1266 503 1276 503 c 0
195 250 m 16
 190 259 188 267 188 274 c 0
 188 289 197 299 218 299 c 0
 243 299 253 290 264 276 c 1
 274 259 375 139 375 84 c 0
 375 65 366 58 353 58 c 0
 338 58 316 70 308 79 c 8
 255 139 235 179 195 250 c 16
221 46 m 0
 221 31 209 22 193 22 c 0
 175 22 161 31 149 45 c 8
 93 106 71 150 31 222 c 16
 26 231 20 240 20 249 c 0
 20 268 45 273 59 273 c 0
 86 273 93 265 105 249 c 17
 117 229 221 103 221 46 c 0
EndSplineSet
Validated: 1
EndChar

StartChar: uniEEA4
Encoding: 61092 61092 50
Width: 1315
VWidth: 0
Flags: W
HStem: 21 21G<184 201> 55 46<793 822> 92 88<993.498 1067.12>
VStem: 881 91<156 240.368>
DStem2: 448 186 452 134 0.926239 0.376937<-26.0845 887.375>
AnchorPoint: "Tonal" 748.68 379.8 basechar 0
AnchorPoint: "Podchashie" 982.6 -29.2803 basechar 0
AnchorPoint: "Right" 1344.68 526.68 basechar 0
LayerCount: 2
Fore
SplineSet
1064 180 m 0xb0
 1079 180 1109 163 1109 148 c 0
 1109 115 993 92 993 92 c 1xb0
 997 78 1005 59 1005 43 c 0
 1005 22 986 18 963 18 c 0
 926 18 933 57 914 82 c 25
 879 71 822 55 822 55 c 2
 821 55 820 55 818 55 c 0
 806 55 791 67 791 82 c 0
 791 89 793 94 793 101 c 1xd0
 828 119 851 119 884 133 c 1
 884 136 884 138 884 141 c 0
 884 157 881 168 881 182 c 0
 881 212 893 249 928 249 c 0
 937 249 944 247 953 244 c 0
 974 238 963 191 972 156 c 1
 1002 164 1035 180 1064 180 c 0xb0
452 134 m 1
 437 134 431 142 431 158 c 0
 431 170 437 181 448 186 c 0
 701 290 877 360 1238 510 c 1
 1245 515 1261 519 1271 519 c 0
 1287 519 1294 512 1294 494 c 0
 1294 480 1274 477 1260 472 c 0
 954 342 723 240 452 134 c 1
187 277 m 0
 189 292 205 298 220 298 c 0
 243 298 254 290 265 275 c 0
 277 258 377 138 377 83 c 0
 377 64 367 57 354 57 c 0
 339 57 317 69 309 78 c 8
 258 138 236 178 198 249 c 17
 191 258 185 266 187 277 c 0
221 45 m 0
 221 30 209 21 193 21 c 0
 175 21 161 30 149 44 c 8
 94 105 71 149 31 221 c 16
 26 230 20 239 20 248 c 0
 20 267 45 272 59 272 c 0
 86 272 93 264 105 248 c 17
 117 228 221 102 221 45 c 0
EndSplineSet
Validated: 1
EndChar

StartChar: uniEEA5
Encoding: 61093 61093 51
Width: 1157
VWidth: 0
Flags: W
HStem: 23 21G<180.5 194.5>
DStem2: 290 150 295 98 0.928842 0.370477<-26.3048 888.251>
AnchorPoint: "Tonal" 576.8 350.6 basechar 0
AnchorPoint: "Podchashie" 721.12 155.24 basechar 0
AnchorPoint: "Right" 1185.64 488.92 basechar 0
LayerCount: 2
Fore
SplineSet
295 98 m 1
 280 98 273 105 273 121 c 0
 273 134 279 145 290 150 c 0
 545 254 721 324 1080 474 c 1
 1087 479 1103 483 1114 483 c 0
 1131 483 1136 476 1136 458 c 0
 1136 444 1121 437 1108 432 c 0
 802 301 567 204 295 98 c 1
54 263 m 0
 78 263 87 256 100 241 c 1
 110 223 210 104 210 49 c 0
 210 30 200 23 189 23 c 0
 172 23 151 35 144 44 c 8
 91 104 70 144 31 215 c 17
 26 222 20 230 20 239 c 0
 20 257 38 263 54 263 c 0
EndSplineSet
Validated: 1
EndChar

StartChar: uniEEB1
Encoding: 61105 61105 52
Width: 1416
VWidth: 0
Flags: W
HStem: 20 60<135.804 216.03> 87 97<794.593 878.151> 89 61<320.95 405.071> 140 61<23.5367 104.608> 142 93<1066.54 1137.72> 201 62<186.205 273.586> 410 59<1265.23 1395.64>
VStem: 778 113<104.529 170.242> 1058 85<149.444 226.333>
DStem2: 528 225 562 163 0.95238 0.304912<-2.10056 858.426>
AnchorPoint: "Right" 1439.73 444.48 basechar 0
AnchorPoint: "Podchashie" 635.72 10 basechar 0
AnchorPoint: "Tonal" 799.844 417.647 basechar 0
LayerCount: 2
Fore
SplineSet
1058 193 m 0x8b80
 1058 218 1086 235 1107 235 c 0
 1136 235 1143 207 1143 182 c 0
 1143 160 1123 142 1102 142 c 0
 1077 142 1058 168 1058 193 c 0x8b80
778 146 m 0
 778 172 803 184 828 184 c 0
 859 184 891 163 891 130 c 0
 891 103 870 87 845 87 c 0xc380
 812 87 778 114 778 146 c 0
388 283 m 1
 407 288 428 292 446 292 c 0
 472 292 497 285 511 262 c 0
 520 246 521 239 528 225 c 25
 1287 468 l 17
 1292 468 1336 469 1352 469 c 0
 1376 469 1396 466 1396 444 c 0
 1396 443 1396 440 1396 438 c 0
 1396 410 1382 410 1361 410 c 2
 1341 410 l 2
 1331 410 1324 410 1301 404 c 1
 1100 341 921 288 562 163 c 8
 546 157 537 153 520 153 c 27
 448 153 402 269 388 283 c 1
166 20 m 0
 145 20 133 37 133 59 c 0
 133 69 136 78 145 80 c 0
 256 113 270 119 367 150 c 1
 376 150 l 2
 395 150 408 131 408 115 c 0
 408 103 402 94 390 89 c 1xa380
 300 62 262 48 175 22 c 1
 172 20 168 20 166 20 c 0
63 142 m 1x8b80
 59 142 56 140 54 140 c 0
 34 140 20 159 20 179 c 0
 20 189 24 198 33 201 c 0x9380
 145 235 140 231 237 263 c 1
 246 263 l 2
 263 263 277 244 277 226 c 0
 277 216 272 207 260 201 c 1x8780
 170 175 149 168 63 142 c 1x8b80
EndSplineSet
Validated: 1
EndChar

StartChar: uni0001
Encoding: 1 1 54
Width: 500
Flags: W
HStem: 0 19<66 435> 748 22<66 435>
VStem: 37 22<34 733> 442 22<34 733>
DStem2: 66 748 59 733 0.465951 -0.884811<10.0105 395.419 421.078 806.952> 59 34 66 19 0.465951 0.884811<0 385.408 411.068 796.942>
LayerCount: 2
Fore
SplineSet
37 770 m 1
 464 770 l 1
 464 0 l 1
 37 0 l 1
 37 770 l 1
66 748 m 1
 250 398 l 1
 435 748 l 1
 66 748 l 1
258 383 m 1
 442 34 l 1
 442 733 l 1
 258 383 l 1
435 19 m 1
 250 369 l 1
 66 19 l 1
 435 19 l 1
59 733 m 1
 59 34 l 1
 243 383 l 1
 59 733 l 1
EndSplineSet
Validated: 1
EndChar

StartChar: uni0002
Encoding: 2 2 55
Width: 500
Flags: W
HStem: 0 19<66 435> 748 22<66 435>
VStem: 37 22<34 733> 442 22<34 733>
DStem2: 66 748 59 733 0.465951 -0.884811<10.0105 395.419 421.078 806.952> 59 34 66 19 0.465951 0.884811<0 385.408 411.068 796.942>
LayerCount: 2
Fore
SplineSet
37 770 m 1
 464 770 l 1
 464 0 l 1
 37 0 l 1
 37 770 l 1
66 748 m 1
 250 398 l 1
 435 748 l 1
 66 748 l 1
258 383 m 1
 442 34 l 1
 442 733 l 1
 258 383 l 1
435 19 m 1
 250 369 l 1
 66 19 l 1
 435 19 l 1
59 733 m 1
 59 34 l 1
 243 383 l 1
 59 733 l 1
EndSplineSet
Validated: 1
EndChar

StartChar: uni0003
Encoding: 3 3 56
Width: 500
Flags: W
HStem: 0 19<66 435> 748 22<66 435>
VStem: 37 22<34 733> 442 22<34 733>
DStem2: 66 748 59 733 0.465951 -0.884811<10.0105 395.419 421.078 806.952> 59 34 66 19 0.465951 0.884811<0 385.408 411.068 796.942>
LayerCount: 2
Fore
SplineSet
37 770 m 1
 464 770 l 1
 464 0 l 1
 37 0 l 1
 37 770 l 1
66 748 m 1
 250 398 l 1
 435 748 l 1
 66 748 l 1
258 383 m 1
 442 34 l 1
 442 733 l 1
 258 383 l 1
435 19 m 1
 250 369 l 1
 66 19 l 1
 435 19 l 1
59 733 m 1
 59 34 l 1
 243 383 l 1
 59 733 l 1
EndSplineSet
Validated: 1
EndChar

StartChar: uni0004
Encoding: 4 4 57
Width: 500
Flags: W
HStem: 0 19<66 435> 748 22<66 435>
VStem: 37 22<34 733> 442 22<34 733>
DStem2: 66 748 59 733 0.465951 -0.884811<10.0105 395.419 421.078 806.952> 59 34 66 19 0.465951 0.884811<0 385.408 411.068 796.942>
LayerCount: 2
Fore
SplineSet
37 770 m 1
 464 770 l 1
 464 0 l 1
 37 0 l 1
 37 770 l 1
66 748 m 1
 250 398 l 1
 435 748 l 1
 66 748 l 1
258 383 m 1
 442 34 l 1
 442 733 l 1
 258 383 l 1
435 19 m 1
 250 369 l 1
 66 19 l 1
 435 19 l 1
59 733 m 1
 59 34 l 1
 243 383 l 1
 59 733 l 1
EndSplineSet
Validated: 1
EndChar

StartChar: uni0005
Encoding: 5 5 58
Width: 500
Flags: W
HStem: 0 19<66 435> 748 22<66 435>
VStem: 37 22<34 733> 442 22<34 733>
DStem2: 66 748 59 733 0.465951 -0.884811<10.0105 395.419 421.078 806.952> 59 34 66 19 0.465951 0.884811<0 385.408 411.068 796.942>
LayerCount: 2
Fore
SplineSet
37 770 m 1
 464 770 l 1
 464 0 l 1
 37 0 l 1
 37 770 l 1
66 748 m 1
 250 398 l 1
 435 748 l 1
 66 748 l 1
258 383 m 1
 442 34 l 1
 442 733 l 1
 258 383 l 1
435 19 m 1
 250 369 l 1
 66 19 l 1
 435 19 l 1
59 733 m 1
 59 34 l 1
 243 383 l 1
 59 733 l 1
EndSplineSet
Validated: 1
EndChar

StartChar: uni0006
Encoding: 6 6 59
Width: 500
Flags: W
HStem: 0 19<66 435> 748 22<66 435>
VStem: 37 22<34 733> 442 22<34 733>
DStem2: 66 748 59 733 0.465951 -0.884811<10.0105 395.419 421.078 806.952> 59 34 66 19 0.465951 0.884811<0 385.408 411.068 796.942>
LayerCount: 2
Fore
SplineSet
37 770 m 1
 464 770 l 1
 464 0 l 1
 37 0 l 1
 37 770 l 1
66 748 m 1
 250 398 l 1
 435 748 l 1
 66 748 l 1
258 383 m 1
 442 34 l 1
 442 733 l 1
 258 383 l 1
435 19 m 1
 250 369 l 1
 66 19 l 1
 435 19 l 1
59 733 m 1
 59 34 l 1
 243 383 l 1
 59 733 l 1
EndSplineSet
Validated: 1
EndChar

StartChar: uni0007
Encoding: 7 7 60
Width: 500
Flags: W
HStem: 0 19<66 435> 748 22<66 435>
VStem: 37 22<34 733> 442 22<34 733>
DStem2: 66 748 59 733 0.465951 -0.884811<10.0105 395.419 421.078 806.952> 59 34 66 19 0.465951 0.884811<0 385.408 411.068 796.942>
LayerCount: 2
Fore
SplineSet
37 770 m 1
 464 770 l 1
 464 0 l 1
 37 0 l 1
 37 770 l 1
66 748 m 1
 250 398 l 1
 435 748 l 1
 66 748 l 1
258 383 m 1
 442 34 l 1
 442 733 l 1
 258 383 l 1
435 19 m 1
 250 369 l 1
 66 19 l 1
 435 19 l 1
59 733 m 1
 59 34 l 1
 243 383 l 1
 59 733 l 1
EndSplineSet
Validated: 1
EndChar

StartChar: uni000B
Encoding: 11 11 64
Width: 500
Flags: W
HStem: 0 19<66 435> 748 22<66 435>
VStem: 37 22<34 733> 442 22<34 733>
DStem2: 66 748 59 733 0.465951 -0.884811<10.0105 395.419 421.078 806.952> 59 34 66 19 0.465951 0.884811<0 385.408 411.068 796.942>
LayerCount: 2
Fore
SplineSet
37 770 m 1
 464 770 l 1
 464 0 l 1
 37 0 l 1
 37 770 l 1
66 748 m 1
 250 398 l 1
 435 748 l 1
 66 748 l 1
258 383 m 1
 442 34 l 1
 442 733 l 1
 258 383 l 1
435 19 m 1
 250 369 l 1
 66 19 l 1
 435 19 l 1
59 733 m 1
 59 34 l 1
 243 383 l 1
 59 733 l 1
EndSplineSet
Validated: 1
EndChar

StartChar: uni000C
Encoding: 12 12 65
Width: 500
Flags: W
HStem: 0 19<66 435> 748 22<66 435>
VStem: 37 22<34 733> 442 22<34 733>
DStem2: 66 748 59 733 0.465951 -0.884811<10.0105 395.419 421.078 806.952> 59 34 66 19 0.465951 0.884811<0 385.408 411.068 796.942>
LayerCount: 2
Fore
SplineSet
37 770 m 1
 464 770 l 1
 464 0 l 1
 37 0 l 1
 37 770 l 1
66 748 m 1
 250 398 l 1
 435 748 l 1
 66 748 l 1
258 383 m 1
 442 34 l 1
 442 733 l 1
 258 383 l 1
435 19 m 1
 250 369 l 1
 66 19 l 1
 435 19 l 1
59 733 m 1
 59 34 l 1
 243 383 l 1
 59 733 l 1
EndSplineSet
Validated: 1
EndChar

StartChar: uni000E
Encoding: 14 14 67
Width: 500
Flags: W
HStem: 0 19<66 435> 748 22<66 435>
VStem: 37 22<34 733> 442 22<34 733>
DStem2: 66 748 59 733 0.465951 -0.884811<10.0105 395.419 421.078 806.952> 59 34 66 19 0.465951 0.884811<0 385.408 411.068 796.942>
LayerCount: 2
Fore
SplineSet
37 770 m 1
 464 770 l 1
 464 0 l 1
 37 0 l 1
 37 770 l 1
66 748 m 1
 250 398 l 1
 435 748 l 1
 66 748 l 1
258 383 m 1
 442 34 l 1
 442 733 l 1
 258 383 l 1
435 19 m 1
 250 369 l 1
 66 19 l 1
 435 19 l 1
59 733 m 1
 59 34 l 1
 243 383 l 1
 59 733 l 1
EndSplineSet
Validated: 1
EndChar

StartChar: uni000F
Encoding: 15 15 68
Width: 500
Flags: W
HStem: 0 19<66 435> 748 22<66 435>
VStem: 37 22<34 733> 442 22<34 733>
DStem2: 66 748 59 733 0.465951 -0.884811<10.0105 395.419 421.078 806.952> 59 34 66 19 0.465951 0.884811<0 385.408 411.068 796.942>
LayerCount: 2
Fore
SplineSet
37 770 m 1
 464 770 l 1
 464 0 l 1
 37 0 l 1
 37 770 l 1
66 748 m 1
 250 398 l 1
 435 748 l 1
 66 748 l 1
258 383 m 1
 442 34 l 1
 442 733 l 1
 258 383 l 1
435 19 m 1
 250 369 l 1
 66 19 l 1
 435 19 l 1
59 733 m 1
 59 34 l 1
 243 383 l 1
 59 733 l 1
EndSplineSet
Validated: 1
EndChar

StartChar: uni0010
Encoding: 16 16 69
Width: 500
Flags: W
HStem: 0 19<66 435> 748 22<66 435>
VStem: 37 22<34 733> 442 22<34 733>
DStem2: 66 748 59 733 0.465951 -0.884811<10.0105 395.419 421.078 806.952> 59 34 66 19 0.465951 0.884811<0 385.408 411.068 796.942>
LayerCount: 2
Fore
SplineSet
37 770 m 1
 464 770 l 1
 464 0 l 1
 37 0 l 1
 37 770 l 1
66 748 m 1
 250 398 l 1
 435 748 l 1
 66 748 l 1
258 383 m 1
 442 34 l 1
 442 733 l 1
 258 383 l 1
435 19 m 1
 250 369 l 1
 66 19 l 1
 435 19 l 1
59 733 m 1
 59 34 l 1
 243 383 l 1
 59 733 l 1
EndSplineSet
Validated: 1
EndChar

StartChar: uni0011
Encoding: 17 17 70
Width: 500
Flags: W
HStem: 0 19<66 435> 748 22<66 435>
VStem: 37 22<34 733> 442 22<34 733>
DStem2: 66 748 59 733 0.465951 -0.884811<10.0105 395.419 421.078 806.952> 59 34 66 19 0.465951 0.884811<0 385.408 411.068 796.942>
LayerCount: 2
Fore
SplineSet
37 770 m 1
 464 770 l 1
 464 0 l 1
 37 0 l 1
 37 770 l 1
66 748 m 1
 250 398 l 1
 435 748 l 1
 66 748 l 1
258 383 m 1
 442 34 l 1
 442 733 l 1
 258 383 l 1
435 19 m 1
 250 369 l 1
 66 19 l 1
 435 19 l 1
59 733 m 1
 59 34 l 1
 243 383 l 1
 59 733 l 1
EndSplineSet
Validated: 1
EndChar

StartChar: uni0012
Encoding: 18 18 71
Width: 500
Flags: W
HStem: 0 19<66 435> 748 22<66 435>
VStem: 37 22<34 733> 442 22<34 733>
DStem2: 66 748 59 733 0.465951 -0.884811<10.0105 395.419 421.078 806.952> 59 34 66 19 0.465951 0.884811<0 385.408 411.068 796.942>
LayerCount: 2
Fore
SplineSet
37 770 m 1
 464 770 l 1
 464 0 l 1
 37 0 l 1
 37 770 l 1
66 748 m 1
 250 398 l 1
 435 748 l 1
 66 748 l 1
258 383 m 1
 442 34 l 1
 442 733 l 1
 258 383 l 1
435 19 m 1
 250 369 l 1
 66 19 l 1
 435 19 l 1
59 733 m 1
 59 34 l 1
 243 383 l 1
 59 733 l 1
EndSplineSet
Validated: 1
EndChar

StartChar: uni0013
Encoding: 19 19 72
Width: 500
Flags: W
HStem: 0 19<66 435> 748 22<66 435>
VStem: 37 22<34 733> 442 22<34 733>
DStem2: 66 748 59 733 0.465951 -0.884811<10.0105 395.419 421.078 806.952> 59 34 66 19 0.465951 0.884811<0 385.408 411.068 796.942>
LayerCount: 2
Fore
SplineSet
37 770 m 1
 464 770 l 1
 464 0 l 1
 37 0 l 1
 37 770 l 1
66 748 m 1
 250 398 l 1
 435 748 l 1
 66 748 l 1
258 383 m 1
 442 34 l 1
 442 733 l 1
 258 383 l 1
435 19 m 1
 250 369 l 1
 66 19 l 1
 435 19 l 1
59 733 m 1
 59 34 l 1
 243 383 l 1
 59 733 l 1
EndSplineSet
Validated: 1
EndChar

StartChar: uni0014
Encoding: 20 20 73
Width: 500
Flags: W
HStem: 0 19<66 435> 748 22<66 435>
VStem: 37 22<34 733> 442 22<34 733>
DStem2: 66 748 59 733 0.465951 -0.884811<10.0105 395.419 421.078 806.952> 59 34 66 19 0.465951 0.884811<0 385.408 411.068 796.942>
LayerCount: 2
Fore
SplineSet
37 770 m 1
 464 770 l 1
 464 0 l 1
 37 0 l 1
 37 770 l 1
66 748 m 1
 250 398 l 1
 435 748 l 1
 66 748 l 1
258 383 m 1
 442 34 l 1
 442 733 l 1
 258 383 l 1
435 19 m 1
 250 369 l 1
 66 19 l 1
 435 19 l 1
59 733 m 1
 59 34 l 1
 243 383 l 1
 59 733 l 1
EndSplineSet
Validated: 1
EndChar

StartChar: uni0015
Encoding: 21 21 74
Width: 500
Flags: W
HStem: 0 19<66 435> 748 22<66 435>
VStem: 37 22<34 733> 442 22<34 733>
DStem2: 66 748 59 733 0.465951 -0.884811<10.0105 395.419 421.078 806.952> 59 34 66 19 0.465951 0.884811<0 385.408 411.068 796.942>
LayerCount: 2
Fore
SplineSet
37 770 m 1
 464 770 l 1
 464 0 l 1
 37 0 l 1
 37 770 l 1
66 748 m 1
 250 398 l 1
 435 748 l 1
 66 748 l 1
258 383 m 1
 442 34 l 1
 442 733 l 1
 258 383 l 1
435 19 m 1
 250 369 l 1
 66 19 l 1
 435 19 l 1
59 733 m 1
 59 34 l 1
 243 383 l 1
 59 733 l 1
EndSplineSet
Validated: 1
EndChar

StartChar: uni0016
Encoding: 22 22 75
Width: 500
Flags: W
HStem: 0 19<66 435> 748 22<66 435>
VStem: 37 22<34 733> 442 22<34 733>
DStem2: 66 748 59 733 0.465951 -0.884811<10.0105 395.419 421.078 806.952> 59 34 66 19 0.465951 0.884811<0 385.408 411.068 796.942>
LayerCount: 2
Fore
SplineSet
37 770 m 1
 464 770 l 1
 464 0 l 1
 37 0 l 1
 37 770 l 1
66 748 m 1
 250 398 l 1
 435 748 l 1
 66 748 l 1
258 383 m 1
 442 34 l 1
 442 733 l 1
 258 383 l 1
435 19 m 1
 250 369 l 1
 66 19 l 1
 435 19 l 1
59 733 m 1
 59 34 l 1
 243 383 l 1
 59 733 l 1
EndSplineSet
Validated: 1
EndChar

StartChar: uni0017
Encoding: 23 23 76
Width: 500
Flags: W
HStem: 0 19<66 435> 748 22<66 435>
VStem: 37 22<34 733> 442 22<34 733>
DStem2: 66 748 59 733 0.465951 -0.884811<10.0105 395.419 421.078 806.952> 59 34 66 19 0.465951 0.884811<0 385.408 411.068 796.942>
LayerCount: 2
Fore
SplineSet
37 770 m 1
 464 770 l 1
 464 0 l 1
 37 0 l 1
 37 770 l 1
66 748 m 1
 250 398 l 1
 435 748 l 1
 66 748 l 1
258 383 m 1
 442 34 l 1
 442 733 l 1
 258 383 l 1
435 19 m 1
 250 369 l 1
 66 19 l 1
 435 19 l 1
59 733 m 1
 59 34 l 1
 243 383 l 1
 59 733 l 1
EndSplineSet
Validated: 1
EndChar

StartChar: uni0018
Encoding: 24 24 77
Width: 500
Flags: W
HStem: 0 19<66 435> 748 22<66 435>
VStem: 37 22<34 733> 442 22<34 733>
DStem2: 66 748 59 733 0.465951 -0.884811<10.0105 395.419 421.078 806.952> 59 34 66 19 0.465951 0.884811<0 385.408 411.068 796.942>
LayerCount: 2
Fore
SplineSet
37 770 m 1
 464 770 l 1
 464 0 l 1
 37 0 l 1
 37 770 l 1
66 748 m 1
 250 398 l 1
 435 748 l 1
 66 748 l 1
258 383 m 1
 442 34 l 1
 442 733 l 1
 258 383 l 1
435 19 m 1
 250 369 l 1
 66 19 l 1
 435 19 l 1
59 733 m 1
 59 34 l 1
 243 383 l 1
 59 733 l 1
EndSplineSet
Validated: 1
EndChar

StartChar: uni0019
Encoding: 25 25 78
Width: 500
Flags: W
HStem: 0 19<66 435> 748 22<66 435>
VStem: 37 22<34 733> 442 22<34 733>
DStem2: 66 748 59 733 0.465951 -0.884811<10.0105 395.419 421.078 806.952> 59 34 66 19 0.465951 0.884811<0 385.408 411.068 796.942>
LayerCount: 2
Fore
SplineSet
37 770 m 1
 464 770 l 1
 464 0 l 1
 37 0 l 1
 37 770 l 1
66 748 m 1
 250 398 l 1
 435 748 l 1
 66 748 l 1
258 383 m 1
 442 34 l 1
 442 733 l 1
 258 383 l 1
435 19 m 1
 250 369 l 1
 66 19 l 1
 435 19 l 1
59 733 m 1
 59 34 l 1
 243 383 l 1
 59 733 l 1
EndSplineSet
Validated: 1
EndChar

StartChar: uni001A
Encoding: 26 26 79
Width: 500
Flags: W
HStem: 0 19<66 435> 748 22<66 435>
VStem: 37 22<34 733> 442 22<34 733>
DStem2: 66 748 59 733 0.465951 -0.884811<10.0105 395.419 421.078 806.952> 59 34 66 19 0.465951 0.884811<0 385.408 411.068 796.942>
LayerCount: 2
Fore
SplineSet
37 770 m 1
 464 770 l 1
 464 0 l 1
 37 0 l 1
 37 770 l 1
66 748 m 1
 250 398 l 1
 435 748 l 1
 66 748 l 1
258 383 m 1
 442 34 l 1
 442 733 l 1
 258 383 l 1
435 19 m 1
 250 369 l 1
 66 19 l 1
 435 19 l 1
59 733 m 1
 59 34 l 1
 243 383 l 1
 59 733 l 1
EndSplineSet
Validated: 1
EndChar

StartChar: uni001B
Encoding: 27 27 80
Width: 500
Flags: W
HStem: 0 19<66 435> 748 22<66 435>
VStem: 37 22<34 733> 442 22<34 733>
DStem2: 66 748 59 733 0.465951 -0.884811<10.0105 395.419 421.078 806.952> 59 34 66 19 0.465951 0.884811<0 385.408 411.068 796.942>
LayerCount: 2
Fore
SplineSet
37 770 m 1
 464 770 l 1
 464 0 l 1
 37 0 l 1
 37 770 l 1
66 748 m 1
 250 398 l 1
 435 748 l 1
 66 748 l 1
258 383 m 1
 442 34 l 1
 442 733 l 1
 258 383 l 1
435 19 m 1
 250 369 l 1
 66 19 l 1
 435 19 l 1
59 733 m 1
 59 34 l 1
 243 383 l 1
 59 733 l 1
EndSplineSet
Validated: 1
EndChar

StartChar: uni001C
Encoding: 28 28 81
Width: 500
Flags: W
HStem: 0 19<66 435> 748 22<66 435>
VStem: 37 22<34 733> 442 22<34 733>
DStem2: 66 748 59 733 0.465951 -0.884811<10.0105 395.419 421.078 806.952> 59 34 66 19 0.465951 0.884811<0 385.408 411.068 796.942>
LayerCount: 2
Fore
SplineSet
37 770 m 1
 464 770 l 1
 464 0 l 1
 37 0 l 1
 37 770 l 1
66 748 m 1
 250 398 l 1
 435 748 l 1
 66 748 l 1
258 383 m 1
 442 34 l 1
 442 733 l 1
 258 383 l 1
435 19 m 1
 250 369 l 1
 66 19 l 1
 435 19 l 1
59 733 m 1
 59 34 l 1
 243 383 l 1
 59 733 l 1
EndSplineSet
Validated: 1
EndChar

StartChar: uni001E
Encoding: 30 30 83
Width: 500
Flags: W
HStem: 0 19<66 435> 748 22<66 435>
VStem: 37 22<34 733> 442 22<34 733>
DStem2: 66 748 59 733 0.465951 -0.884811<10.0105 395.419 421.078 806.952> 59 34 66 19 0.465951 0.884811<0 385.408 411.068 796.942>
LayerCount: 2
Fore
SplineSet
37 770 m 1
 464 770 l 1
 464 0 l 1
 37 0 l 1
 37 770 l 1
66 748 m 1
 250 398 l 1
 435 748 l 1
 66 748 l 1
258 383 m 1
 442 34 l 1
 442 733 l 1
 258 383 l 1
435 19 m 1
 250 369 l 1
 66 19 l 1
 435 19 l 1
59 733 m 1
 59 34 l 1
 243 383 l 1
 59 733 l 1
EndSplineSet
Validated: 1
EndChar

StartChar: uni001F
Encoding: 31 31 84
Width: 500
Flags: W
HStem: 0 19<66 435> 748 22<66 435>
VStem: 37 22<34 733> 442 22<34 733>
DStem2: 66 748 59 733 0.465951 -0.884811<10.0105 395.419 421.078 806.952> 59 34 66 19 0.465951 0.884811<0 385.408 411.068 796.942>
LayerCount: 2
Fore
SplineSet
37 770 m 1
 464 770 l 1
 464 0 l 1
 37 0 l 1
 37 770 l 1
66 748 m 1
 250 398 l 1
 435 748 l 1
 66 748 l 1
258 383 m 1
 442 34 l 1
 442 733 l 1
 258 383 l 1
435 19 m 1
 250 369 l 1
 66 19 l 1
 435 19 l 1
59 733 m 1
 59 34 l 1
 243 383 l 1
 59 733 l 1
EndSplineSet
Validated: 1
EndChar

StartChar: asterisk
Encoding: 42 42 86
Width: 443
VWidth: 1760
Flags: W
HStem: 440 123.2<150.838 179.038 266.465 295.033>
VStem: 149.6 29.9199<473.95 523.337> 265.76 29.9199<474.807 521.724>
LayerCount: 2
Fore
SplineSet
274.56 563.2 m 0
 309.76 563.2 323.84 587.84 355.52 587.84 c 0
 362.56 587.84 367.84 582.56 367.84 577.28 c 0
 367.84 563.2 344.96 547.36 336.16 542.08 c 0
 323.84 533.28 295.68 513.92 295.68 499.84 c 0
 295.68 480.48 325.6 462.88 337.92 454.08 c 0
 350.24 445.28 373.12 432.96 373.12 418.88 c 0
 373.12 411.84 366.08 406.56 357.28 406.56 c 0
 325.6 406.56 297.44 434.72 267.52 434.72 c 0
 244.64 434.72 246.4 346.72 223.52 346.72 c 0
 193.6 346.72 198.88 440 176 440 c 0
 165.44 440 139.04 422.4 130.24 420.64 c 0
 123.2 417.12 102.08 406.56 89.7598 406.56 c 0
 82.7197 406.56 75.6797 410.08 75.6797 415.36 c 0
 75.6797 427.68 102.08 447.04 109.12 452.32 c 0
 121.44 464.64 149.6 480.48 149.6 496.32 c 0
 149.6 517.44 121.44 535.04 105.6 545.6 c 0
 98.5596 552.64 72.1602 570.24 72.1602 582.56 c 0
 72.1602 582.56 72.1602 584.32 72.1602 586.08 c 0
 73.9199 589.6 80.96 591.36 86.2402 591.36 c 0
 123.2 591.36 137.28 563.2 176 563.2 c 0
 200.64 563.2 200.64 598.4 205.92 621.28 c 0
 209.44 637.12 214.72 665.28 228.8 665.28 c 256
 255.2 665.28 246.4 573.76 264 564.96 c 0
 267.52 563.2 271.04 563.2 274.56 563.2 c 0
179.52 501.6 m 0
 179.52 478.72 197.12 464.64 221.76 464.64 c 0
 242.88 464.64 265.76 476.96 265.76 499.84 c 0
 265.76 520.96 246.4 545.6 221.76 545.6 c 0
 198.88 545.6 179.52 524.48 179.52 501.6 c 0
EndSplineSet
Validated: 1
EndChar

StartChar: parenleft
Encoding: 40 40 87
Width: 323
VWidth: 1760
Flags: W
VStem: 53.7354 72.6533<232.66 493.684>
LayerCount: 2
Fore
SplineSet
259.866 -1.75977 m 1
 197.351 36.2549 53.7354 157.062 53.7354 360.659 c 0
 53.7354 575.238 193.127 674.08 262.4 718.854 c 1
 270.003 705.338 l 1
 182.989 635.219 126.389 570.17 126.389 363.193 c 0
 126.389 147.77 182.989 80.1846 270.003 11.7559 c 1
 259.866 -1.75977 l 1
EndSplineSet
Validated: 1
EndChar

StartChar: parenright
Encoding: 41 41 88
Width: 323
VWidth: 1760
Flags: W
VStem: 197.12 72.1602<232.574 493.663>
LayerCount: 2
Fore
SplineSet
63.3604 -1.75977 m 1
 54.5596 12.3203 l 1
 140.8 80.96 197.12 147.84 197.12 362.56 c 0
 197.12 570.24 140.8 635.36 54.5596 705.76 c 1
 61.5996 718.08 l 1
 130.24 674.08 269.28 575.52 269.28 360.8 c 0
 269.28 156.64 126.72 36.96 63.3604 -1.75977 c 1
EndSplineSet
Validated: 1
EndChar

StartChar: uniEA60
Encoding: 60000 60000 89
Width: 375
VWidth: 0
Flags: W
HStem: 20.7197 96.8003<156.927 220.817> 217.84 88<256.471 340.03>
VStem: 20.5801 110.881<87.7785 178.411> 238.82 116.16<235.88 289.942>
LayerCount: 2
Fore
SplineSet
286.34 305.84 m 0
 319.779 305.84 354.98 281.2 354.98 254.8 c 0
 354.98 228.4 330.34 217.84 307.461 217.84 c 0
 272.26 217.84 238.82 247.76 238.82 272.4 c 0
 238.82 288.24 254.66 305.84 286.34 305.84 c 0
131.461 87.5996 m 9
 177.221 99.9199 200.1 117.52 249.381 117.52 c 0
 268.74 117.52 284.58 112.24 284.58 84.0801 c 0
 284.58 59.4404 180.74 20.7197 112.1 20.7197 c 0
 83.9395 20.7197 61.0605 27.7598 55.7793 43.5996 c 0
 41.6992 80.5596 25.8594 124.56 20.5801 168.56 c 1
 48.7402 186.16 75.1406 189.68 89.2207 189.68 c 0
 120.9 189.68 115.621 149.2 131.461 87.5996 c 9
EndSplineSet
Validated: 1
LCarets2: 1 0 
Ligature2: "'ccmp' Znamenny Ligatures 0-1" uniEE75 uniEE5A
Ligature2: "'ccmp' Znamenny Ligatures 0-1" uniEE75 uniEE50
EndChar

StartChar: uniEA62
Encoding: 60002 60002 90
Width: 432
VWidth: 0
Flags: W
HStem: 20.7197 21G<356.56 388.24> 302.32 84.48<288.709 382.483>
VStem: 277.36 117.92<315.418 372.806>
LayerCount: 2
Fore
SplineSet
277.36 349.84 m 0
 277.36 365.68 293.2 386.8 326.64 386.8 c 0
 356.56 386.8 395.28 367.44 395.28 339.28 c 0
 395.28 316.4 368.88 302.32 342.48 302.32 c 0
 310.8 302.32 277.36 323.44 277.36 349.84 c 0
310.8 54.1602 m 0
 206.96 156.24 145.36 231.92 43.2803 358.64 c 0
 30.96 372.72 20.4004 383.28 20.4004 402.64 c 0
 20.4004 425.52 45.04 441.36 71.4404 441.36 c 0
 78.4805 441.36 85.5195 439.6 92.5596 432.56 c 0
 208.72 284.72 272.08 203.76 405.84 73.5195 c 0
 409.36 68.2402 411.12 62.96 411.12 57.6797 c 0
 411.12 41.8398 397.04 24.2402 379.44 20.7197 c 1
 333.68 22.4805 331.92 33.04 310.8 54.1602 c 0
EndSplineSet
Validated: 1
LCarets2: 1 0 
Ligature2: "'ccmp' Znamenny Ligatures 0-1" uniEE78 uniEE5A
EndChar

StartChar: uniEA6C
Encoding: 60012 60012 91
Width: 562
VWidth: 0
Flags: W
HStem: 22 21G<147 158> 147 81<444.898 533.511> 282 76<380.547 457.031>
VStem: 369 99<294.701 345.973> 436 106<156.21 217.625>
DStem2: 28 210 63 154 0.928418 0.371537<0.8641 243.686> 134 80 167 24 0.928934 0.370245<-0.86413 242.716>
LayerCount: 2
Fore
SplineSet
542 186 m 0xe8
 542 157 512 147 487 147 c 0
 457 147 436 172 436 193 c 0
 436 212 454 228 486 228 c 0
 512 228 542 209 542 186 c 0xe8
410 358 m 0
 438 358 468 335 468 312 c 0
 468 291 449 282 427 282 c 0
 398 282 369 307 369 328 c 0xf0
 369 342 383 358 410 358 c 0
156 22 m 0
 138 22 121 39 121 60 c 0
 121 69 125 77 134 80 c 0
 241 122 255 129 348 166 c 0
 352 168 356 169 360 169 c 0
 378 169 391 153 391 133 c 0
 391 122 386 113 376 108 c 0
 288 73 251 55 167 24 c 0
 163 22 160 22 156 22 c 0
52 152 m 0
 33 152 18 168 18 190 c 0
 18 199 21 207 28 210 c 0
 137 253 151 260 244 297 c 0
 248 299 252 299 255 299 c 0
 273 299 287 280 287 263 c 0
 287 253 282 243 271 238 c 0
 185 203 148 186 63 154 c 0
 59 152 55 152 52 152 c 0
EndSplineSet
Validated: 1
LCarets2: 1 0 
Ligature2: "'ccmp' Znamenny Ligatures 0-1" uniEE8F uniEE51
EndChar

StartChar: uniEA6B
Encoding: 60011 60011 92
Width: 488
VWidth: 0
Flags: W
HStem: 22 21G<146 157> 282 76<380.268 456.031>
VStem: 369 98<294.476 345.973>
DStem2: 27 210 62 154 0.92853 0.371257<0.883039 244.573> 133 80 166 24 0.929047 0.369961<-0.84516 243.646>
LayerCount: 2
Fore
SplineSet
409 358 m 0
 437 358 467 335 467 312 c 0
 467 291 448 282 427 282 c 0
 397 282 369 307 369 328 c 0
 369 342 383 358 409 358 c 0
155 22 m 0
 137 22 121 38 121 60 c 0
 121 69 124 77 133 80 c 0
 240 122 254 129 348 166 c 0
 352 168 356 169 360 169 c 0
 378 169 390 152 390 132 c 0
 390 122 386 112 376 108 c 0
 288 73 251 55 166 24 c 0
 162 22 159 22 155 22 c 0
51 152 m 0
 32 152 17 168 17 190 c 0
 17 199 20 207 27 210 c 0
 136 253 150 260 244 297 c 0
 248 299 251 299 255 299 c 0
 272 299 286 280 286 263 c 0
 286 253 281 243 270 238 c 0
 184 203 147 186 62 154 c 0
 58 152 54 152 51 152 c 0
EndSplineSet
Validated: 1
LCarets2: 1 0 
Ligature2: "'ccmp' Znamenny Ligatures 0-1" uniEE8F uniEE50
EndChar

StartChar: uniEA70
Encoding: 60016 60016 93
Width: 736
VWidth: 0
Flags: W
HStem: 21 60<112.804 201.279> 83 61<293.307 383.264> 162 60<22.8427 110.517> 223 62<200.307 294.417> 248 76<628.268 704.031>
VStem: 617 98<260.476 311.973>
DStem2: 460 357 411 283 0.645077 -0.764118<-20.21 409.43>
LayerCount: 2
Fore
SplineSet
657 324 m 0xec
 685 324 715 301 715 278 c 0
 715 257 696 248 675 248 c 0
 645 248 617 273 617 294 c 0
 617 308 631 324 657 324 c 0xec
388 327 m 0
 388 350 414 366 439 366 c 0
 446 366 455 364 460 357 c 0
 529 274 604 190 692 77 c 0
 705 61 710 51 712 32 c 1
 712 16 696 3 680 3 c 0
 648 3 636 23 615 44 c 1
 478 211 458 230 411 283 c 0
 398 297 388 308 388 327 c 0
144 21 m 0
 122 21 110 38 110 60 c 0
 110 70 113 78 122 81 c 0
 235 111 249 116 348 144 c 0
 350 144 353 144 355 144 c 0
 374 144 386 125 386 109 c 0
 386 97 381 86 367 83 c 0
 277 58 239 44 151 21 c 0
 149 21 145 21 144 21 c 0
54 162 m 0
 34 162 20 178 20 200 c 0
 20 211 24 220 34 222 c 1
 147 253 159 257 258 285 c 0
 262 285 263 285 267 285 c 0
 284 285 297 267 297 250 c 0
 297 237 291 227 279 223 c 0xf4
 189 199 149 186 63 164 c 0
 59 162 57 162 54 162 c 0
EndSplineSet
Validated: 1
LCarets2: 1 0 
Ligature2: "'ccmp' Znamenny Ligatures 0-1" uniEE93 uniEE50
EndChar

StartChar: uniEE5A
Encoding: 61018 61018 94
Width: 0
VWidth: 0
GlyphClass: 4
Flags: W
HStem: 399.52 75.68<-157.643 -81.3521>
VStem: -168.96 98.5596<412.078 463.235>
AnchorPoint: "Right" -160.16 422.4 mark 0
LayerCount: 2
Fore
SplineSet
-128.48 475.2 m 4
 -100.32 475.2 -70.4004 452.32 -70.4004 429.44 c 4
 -70.4004 408.32 -89.7598 399.52 -110.88 399.52 c 4
 -140.8 399.52 -168.96 424.16 -168.96 445.28 c 4
 -168.96 459.36 -156.64 475.2 -128.48 475.2 c 4
EndSplineSet
Validated: 1
EndChar

StartChar: uni25CC
Encoding: 9676 9676 95
Width: 841
VWidth: 1760
Flags: W
HStem: -19 121<377.586 465.146> 74 121<141.586 231.681 609.586 699.347> 306 122<36.4514 126.091 719.365 807.146> 561 122<144.636 228.215> 570 123<610.365 698.681> 662 121<378.451 467.091>
VStem: 20 118<319.397 411.549> 126 119<87.3973 179.344 575.142 664.306> 362 117<-4.62744 87.1143 675.397 766.549> 594 118<87.3973 179.344 584.142 676.521> 703 118<320.102 411.521>
AnchorPoint: "Right" 908.48 374.384 basechar 0
AnchorPoint: "Podchashie" 424.88 -102.08 basechar 0
AnchorPoint: "Tonal" 89.5996 800.096 basechar 0
LayerCount: 2
Fore
SplineSet
80 428 m 0x2280
 105 428 110 428 126 410 c 0x2180
 137 398 138 394 138 384 c 0
 138 380 138 374 138 366 c 0
 138 340 138 340 122 323 c 0
 106 306 106 306 80 306 c 0
 54 306 54 306 37 324 c 0
 20 341 20 341 20 366 c 0
 20 391 20 391 39 409 c 0
 57 428 57 428 80 428 c 0x2280
186 195 m 0x6180
 212 195 212 195 229 178 c 0
 245 160 245 160 245 134 c 0
 245 109 245 109 228 92 c 0
 210 74 210 74 186 74 c 0
 161 74 161 74 143 92 c 0
 126 109 126 109 126 134 c 0
 126 157 126 157 144 176 c 0
 163 195 163 195 186 195 c 0x6180
186 683 m 0x3180
 210 683 210 679 228 662 c 0x2580
 245 644 245 648 245 623 c 0
 245 597 245 597 229 579 c 0
 212 561 212 561 186 561 c 0x3180
 161 561 161 561 143 580 c 0
 126 598 126 598 126 623 c 0
 126 644 126 642 145 662 c 0x2580
 164 681 164 683 186 683 c 0x3180
421 102 m 0xa080
 448 102 448 102 464 84 c 0
 479 67 479 67 479 40 c 0
 479 16 479 18 463 0 c 0
 446 -18 446 -19 421 -19 c 0
 397 -19 397 -18 379 0 c 0
 362 18 362 16 362 40 c 0
 362 63 362 63 380 83 c 0
 398 102 398 102 421 102 c 0xa080
421 783 m 0x2480
 446 783 446 783 463 766 c 0
 479 748 479 748 479 723 c 0
 479 697 479 697 464 679 c 0
 448 662 448 662 421 662 c 0
 397 662 397 662 379 680 c 0
 362 699 362 699 362 723 c 0
 362 744 362 744 381 764 c 0
 400 783 400 783 421 783 c 0x2480
652 195 m 0x60c0
 678 195 678 195 695 178 c 0
 712 160 712 160 712 134 c 0
 712 107 712 107 695 91 c 0
 678 74 678 74 652 74 c 0
 629 74 629 74 611 92 c 0
 594 109 594 109 594 134 c 0
 594 157 594 157 612 176 c 0
 631 195 631 195 652 195 c 0x60c0
652 693 m 0x28c0
 678 693 678 693 695 676 c 0
 712 658 712 658 712 632 c 0
 712 605 712 605 695 588 c 0
 678 570 678 570 652 570 c 0
 629 570 629 570 611 589 c 0
 594 607 594 607 594 632 c 0
 594 653 594 653 612 673 c 0
 631 693 631 693 652 693 c 0x28c0
763 428 m 0
 787 428 787 428 804 410 c 0
 821 392 821 392 821 366 c 0
 821 340 821 340 805 323 c 0
 789 306 789 306 763 306 c 0
 738 306 738 306 721 324 c 0
 703 341 703 341 703 366 c 0x20a0
 703 389 703 389 721 408 c 0
 740 428 740 428 763 428 c 0
EndSplineSet
Validated: 1
EndChar

StartChar: bracketleft
Encoding: 91 91 96
Width: 265
VWidth: 0
Flags: HW
HStem: 8 31.291<128.15 211.842> 676.27 32.102<137.025 218.546>
VStem: 48.6973 78.4127<39.183 495.72> 57.9219 78.4161<256.051 676.27>
LayerCount: 2
Fore
SplineSet
212 22 m 0xe0
 212 12 206 10 194 8 c 1
 97 8 l 2
 86 8 77 12 69 12 c 0
 59 12 49 19 49 27 c 0
 48 29 48 32 48 34 c 0
 48 39 49 47 49 57 c 2
 49 125 l 2xe0
 49 156 54 197 54 252 c 0
 54 335 58 404 58 460 c 2
 58 668 l 2
 58 675 58 679 58 683 c 0
 58 695 60 699 73 702 c 0
 80 704 90 706 100 706 c 1
 110 708 122 708 134 708 c 0
 146 708 158 708 169 708 c 0
 179 708 189 708 197 708 c 1
 212 705 219 705 219 691 c 0
 219 677 215 676 200 676 c 2
 154 676 l 2
 139 676 137 672 137 657 c 0
 137 653 137 648 137 642 c 0
 137 626 136 604 136 577 c 2
 136 494 l 1xd0
 136 409 l 2
 136 364 130 319 130 277 c 0
 130 234 127 196 127 163 c 2
 127 80 l 2
 127 49 128 39 148 39 c 0
 155 38 163 39 171 39 c 2
 193 39 l 2
 208 39 212 35 212 22 c 0xe0
EndSplineSet
Validated: 1
EndChar

StartChar: bracketright
Encoding: 93 93 97
Width: 265
VWidth: 0
Flags: HW
HStem: 8.7998 29.9199<47.685 130.886> 675.84 31.68<40.5269 123.096>
VStem: 123.2 79.2<278.303 675.836> 132 79.2<38.7197 495.055>
LayerCount: 2
Fore
SplineSet
48 23 m 1xd0
 48 35 51 39 67 39 c 2
 111 39 l 2
 132 39 132 49 132 79 c 2
 132 162 l 2xd0
 132 197 128 234 128 276 c 0
 128 319 123 364 123 410 c 2
 123 642 l 2
 123 646 123 650 123 653 c 0
 123 671 122 676 106 676 c 2
 60 676 l 2
 44 676 40 678 40 690 c 0
 40 706 48 704 62 708 c 1
 125 708 l 2
 137 708 150 708 158 706 c 1
 169 706 180 704 187 702 c 0
 201 699 202 696 202 679 c 0
 202 676 202 672 202 667 c 2
 202 459 l 2xe0
 202 405 206 334 206 252 c 0
 206 197 211 157 211 125 c 2
 211 28 l 2
 211 19 201 12 190 12 c 0
 183 12 172 9 162 9 c 2
 65 9 l 2
 53 9 48 12 48 23 c 1xd0
EndSplineSet
Validated: 1
EndChar

StartChar: less
Encoding: 60 60 98
Width: 739
VWidth: 1760
Flags: W
VStem: 25.499 62.7383<311.182 400.476>
DStem2: 88.2373 355.828 25.499 311.182 0.910979 -0.412454<0 689.34>
LayerCount: 2
Fore
SplineSet
712.8 0 m 1
 25.499 311.182 l 1
 25.499 400.476 l 1
 712.8 711.656 l 1
 712.8 647.682 l 1
 88.2373 355.828 l 1
 712.8 63.9717 l 1
 712.8 0 l 1
EndSplineSet
Validated: 1
EndChar

StartChar: greater
Encoding: 62 62 99
Width: 739
VWidth: 1760
Flags: W
VStem: 652.96 63.3604<311.52 401.28>
DStem2: 28.1602 63.3604 28.1602 0 0.911004 0.412398<0 689.681>
LayerCount: 2
Fore
SplineSet
28.1602 0 m 1
 28.1602 63.3604 l 1
 652.96 355.52 l 1
 28.1602 647.68 l 1
 28.1602 711.04 l 1
 716.32 401.28 l 1
 716.32 311.52 l 1
 28.1602 0 l 1
EndSplineSet
Validated: 1
EndChar

StartChar: question
Encoding: 63 63 100
Width: 436
VWidth: 1760
Flags: W
HStem: -0.705078 112.566<172.557 255.648> 687.318 31.5625<134.173 242.855>
VStem: 43.832 51.3418<545.297 644.335> 160.61 107.72<9.76702 99.3986> 203.899 17.1143<180.245 220.914> 299.536 92.6201<466.119 634.91>
LayerCount: 2
Fore
SplineSet
206.918 718.881 m 0xec
 304.571 718.881 392.156 657.863 392.156 555.816 c 0
 392.156 475.863 342.827 413.792 286.45 342.255 c 0
 249.202 292.81 232.086 250.729 221.014 180.245 c 1
 203.899 180.245 l 1
 205.941 274.09 229.313 318.197 262.287 396.961 c 0
 286.45 454.821 299.536 512.683 299.536 561.077 c 0
 299.536 631.563 251.216 687.318 190.812 687.318 c 0
 141.482 687.318 95.1738 655.76 95.1738 622.093 c 0
 95.1738 600.002 133.429 576.857 133.429 544.243 c 0
 133.429 518.996 116.314 501.112 92.1543 501.112 c 0
 60.9453 501.112 43.832 524.257 43.832 566.338 c 0
 43.832 653.655 114.301 718.881 206.918 718.881 c 0xec
213.965 111.861 m 0
 243.161 111.861 268.33 85.5615 268.33 54.001 c 0
 268.33 22.4404 245.175 -0.705078 212.96 -0.705078 c 0
 182.759 -0.705078 160.61 22.4404 160.61 52.9482 c 0xf4
 160.61 86.6133 183.764 111.861 213.965 111.861 c 0
EndSplineSet
Validated: 1
EndChar

StartChar: uniEE55
Encoding: 61013 61013 105
Width: 0
VWidth: 0
GlyphClass: 4
Flags: W
HStem: 214.72 66.88<-289.053 -171.723>
VStem: -144.32 73.9196<309.241 393.185>
AnchorPoint: "Podchashie" -243.76 395.12 mark 0
LayerCount: 2
Fore
SplineSet
-110.88 397.76 m 27
 -88 397.76 -70.4004 380.16 -70.4004 353.76 c 0
 -70.4004 313.28 -72.1602 292.16 -100.32 260.48 c 8
 -133.76 223.52 -170.72 214.72 -221.76 214.72 c 19
 -302.72 214.72 -348.48 244.64 -388.96 288.64 c 8
 -411.84 313.28 -427.68 336.16 -427.68 362.56 c 0
 -427.68 380.16 -406.56 392.48 -387.2 392.48 c 0
 -380.16 392.48 -373.12 390.72 -367.84 387.2 c 8
 -334.4 366.08 -332.64 334.4 -300.96 311.52 c 24
 -276.32 292.16 -258.72 281.6 -227.04 281.6 c 27
 -202.4 281.6 -183.04 288.64 -167.2 308 c 24
 -147.84 332.64 -161.92 359.04 -144.32 385.44 c 24
 -137.28 397.76 -124.96 397.76 -110.88 397.76 c 27
EndSplineSet
Validated: 1
EndChar

StartChar: uniEE63
Encoding: 61027 61027 106
Width: 445
VWidth: 0
Flags: W
HStem: 137 64<76.517 121.813> 199 64<272.517 317.813>
VStem: 123 105<95.2809 136.135>
LayerCount: 2
Fore
SplineSet
334 101 m 0x60
 314 101 288 114 288 145 c 0
 288 156 301 158 315 172 c 0
 318 175 319 178 319 181 c 0
 319 190 308 199 298 199 c 0
 296 198 283 190 272 190 c 0
 270 190 268 190 266 191 c 8
 243 198 236 214 216 230 c 17
 216 232 l 2
 216 254 253 263 289 263 c 0
 359 263 419 221 424 166 c 1
 424 129 370 101 334 101 c 0x60
138 39 m 0
 118 39 92 51 92 82 c 0
 92 93 105 95 119 109 c 0
 122 112 123 115 123 118 c 0
 123 127 112 137 102 137 c 0
 100 136 87 127 76 127 c 0
 74 127 72 127 70 128 c 8
 47 136 40 151 20 167 c 17
 20 169 l 2
 20 192 57 201 93 201 c 0xa0
 163 201 223 158 228 104 c 1
 228 67 174 39 138 39 c 0
EndSplineSet
Validated: 1
EndChar

StartChar: uniEEB9
Encoding: 61113 61113 107
Width: 511
VWidth: 0
Flags: W
HStem: 21 21G<128 156> 120 63<73.5639 118.898> 154 99<364.399 426.241>
VStem: 122 106<77.109 119.758> 226 111<224.017 312.716>
LayerCount: 2
Fore
SplineSet
337 223 m 9xa8
 383 234 406 253 455 253 c 0
 474 253 490 246 490 218 c 0
 490 193 386 154 318 154 c 0
 290 154 269 162 262 177 c 1
 247 216 232 258 226 302 c 1
 254 320 283 325 295 325 c 0
 328 325 321 285 337 223 c 9xa8
138 21 m 0
 118 21 92 33 92 64 c 0
 92 75 105 77 117 91 c 0
 121 95 122 98 122 101 c 0
 122 109 111 120 102 120 c 0
 99 119 85 109 73 109 c 0
 71 109 70 109 68 110 c 0
 45 119 40 135 20 151 c 1
 20 153 l 2
 20 174 57 183 93 183 c 0
 163 183 228 140 228 86 c 1xd0
 228 49 174 21 138 21 c 0
EndSplineSet
Validated: 1
EndChar

StartChar: uniEEAE
Encoding: 61102 61102 108
Width: 653
VWidth: 0
Flags: W
HStem: 20.7197 38.7207<250.064 310.682> 57.6797 40.4805<393.909 513.681> 115.76 38.72<220.56 286.693> 126.32 63.36<593.68 629.672> 210.8 52.8<49.2453 214.84>
VStem: 185.36 63.36<61.9658 113.417>
LayerCount: 2
Fore
SplineSet
283.92 115.76 m 27xac
 264.56 115.76 248.72 103.44 248.72 84.0801 c 27
 248.72 66.4805 268.08 59.4404 285.68 59.4404 c 27
 299.76 59.4404 312.08 71.7598 312.08 85.8398 c 27
 312.08 101.68 299.76 115.76 283.92 115.76 c 27xac
136.08 263.6 m 2
 264.56 263.6 361.36 184.4 361.36 136.88 c 9
 394.8 121.04 412.4 98.1602 449.36 98.1602 c 16
 539.12 99.9199 562 189.68 609.52 189.68 c 2
 611.28 189.68 l 10
 625.36 189.68 632.4 175.6 632.4 161.52 c 27
 632.4 140.4 614.8 126.32 593.68 126.32 c 17
 593.68 73.5195 535.6 57.6797 474 57.6797 c 0x5c
 435.28 57.6797 394.8 62.96 368.4 70 c 9
 333.2 50.6396 317.36 20.7197 276.88 20.7197 c 27
 234.64 20.7197 185.36 38.3203 185.36 80.5596 c 27
 185.36 115.76 202.96 154.48 238.16 154.48 c 27
 257.52 154.48 268.08 152.72 287.44 150.96 c 25
 229.36 173.84 201.2 210.8 139.6 210.8 c 19
 111.44 210.8 72.7197 196.72 48.0801 196.72 c 0
 30.4805 196.72 19.9199 203.76 19.9199 221.36 c 3
 19.9199 260.08 63.9199 263.6 106.16 263.6 c 2
 136.08 263.6 l 2
EndSplineSet
Validated: 1
EndChar

StartChar: uniEEAF
Encoding: 61103 61103 109
Width: 797
VWidth: 0
Flags: W
HStem: 95 46<22.0635 55.9055> 118 39<394.348 454.754> 155 41<537.721 657.872> 199 50<393.007 432> 224 63<738 774.227> 309 52<193.182 359.125>
VStem: 330 63<159.501 198.408>
DStem2: 30 141 56 97 0.936285 0.351241<-0.0648727 200.921> 104 62 128 19 0.924581 0.380984<-0.957407 183.04>
LayerCount: 2
Fore
SplineSet
466 195 m 19x56
 451 195 431 199 416 199 c 0
 403 199 393 196 393 182 c 11
 393 164 413 157 430 157 c 27
 445 157 456 169 456 184 c 27
 456 190 472 195 466 195 c 19x56
280 361 m 2
 409 361 506 282 506 235 c 9
 539 219 557 196 594 196 c 16
 683 196 706 287 754 287 c 2
 756 287 l 10
 770 287 777 273 777 259 c 27
 777 238 759 224 738 224 c 17
 738 171 680 155 618 155 c 0x2e
 580 155 539 161 513 168 c 9
 477 148 462 118 421 118 c 27
 379 118 330 136 330 178 c 27
 330 213 347 252 382 252 c 27
 402 252 412 249 432 249 c 25
 374 272 345 309 284 309 c 19
 256 309 217 294 192 294 c 0
 175 294 164 301 164 319 c 3
 164 358 208 361 250 361 c 2
 280 361 l 2
104 62 m 1
 185 95 195 100 266 129 c 1
 269 129 273 130 274 130 c 0
 288 130 299 115 299 102 c 0
 299 95 295 88 287 83 c 1
 220 56 192 44 128 19 c 0
 127 18 123 18 121 18 c 0
 107 18 93 35 93 48 c 0
 93 55 95 60 104 62 c 1
206 208 m 1
 219 208 229 190 229 183 c 0
 229 174 223 166 215 162 c 0
 149 136 121 122 56 97 c 0
 54 97 51 95 47 95 c 0
 33 95 21 109 21 125 c 0
 21 132 24 137 30 141 c 1x86
 91 164 156 190 206 208 c 1
EndSplineSet
Validated: 1
EndChar

StartChar: uniEEB2
Encoding: 61106 61106 110
Width: 1551
VWidth: 0
Flags: W
HStem: 20 21G<109 131> 101 52<44.6472 103.734> 147 52<240.67 300.552>
VStem: 104 87<62.6348 100.237> 301 87<108.131 146.237>
DStem2: 545 192 579 130 0.958306 0.285743<-2.63092 987.756>
AnchorPoint: "Right" 1588.91 455.52 basechar 0
AnchorPoint: "Tonal" 858.964 368.607 basechar 0
AnchorPoint: "Podchashie" 733.56 3.2002 basechar 0
LayerCount: 2
Fore
SplineSet
314 65 m 0xb8
 296 65 276 76 276 101 c 0xd8
 276 109 286 111 298 124 c 0
 300 126 301 128 301 131 c 0
 301 138 292 147 284 147 c 0
 276 147 269 138 261 138 c 0
 260 138 259 138 257 139 c 8
 238 146 233 159 217 171 c 17
 217 173 l 2
 217 192 247 199 277 199 c 0
 333 199 382 164 388 120 c 1
 388 88 342 65 314 65 c 0xb8
117 20 m 0
 101 20 79 31 79 55 c 0
 79 64 89 66 101 78 c 0
 103 80 104 83 104 86 c 0
 104 93 97 101 88 101 c 0
 80 101 73 93 66 93 c 0
 64 93 63 93 61 94 c 8
 42 101 36 113 20 125 c 17
 20 127 l 2
 20 146 50 153 80 153 c 0
 137 153 186 118 191 74 c 1
 191 43 145 20 117 20 c 0
401 257 m 1
 420 262 440 267 457 267 c 0
 484 267 514 251 528 228 c 0
 536 213 538 206 545 192 c 25
 897 295 1149 376 1450 459 c 1
 1467 466 1482 468 1494 468 c 0
 1520 468 1531 453 1531 437 c 0
 1531 436 1531 434 1531 433 c 0
 1531 406 1341 352 1311 345 c 1
 1108 281 952 243 579 130 c 0
 563 125 554 119 536 119 c 27
 461 119 415 243 401 257 c 1
EndSplineSet
Validated: 1
EndChar

StartChar: exclam
Encoding: 33 33 111
Width: 253
VWidth: 1760
Flags: W
HStem: 0 102.08<84.7035 167.094>
VStem: 73.9199 103.84<10.7835 92.0498 509.435 645.157>
LayerCount: 2
Fore
SplineSet
73.9199 591.36 m 0
 73.9199 626.56 93.2803 656.48 126.72 656.48 c 256
 161.92 656.48 179.52 624.8 179.52 586.08 c 0
 177.76 582.56 177.76 579.04 177.76 573.76 c 0
 177.76 568.48 177.76 563.2 177.76 556.16 c 2
 135.52 179.52 l 1
 117.92 179.52 l 1
 75.6797 556.16 l 2
 73.9199 572 73.9199 582.56 73.9199 591.36 c 0
73.9199 52.7998 m 0
 73.9199 79.2002 98.5596 102.08 126.72 102.08 c 256
 153.12 102.08 177.76 79.2002 177.76 52.7998 c 0
 177.76 24.6396 153.12 0 126.72 0 c 256
 98.5596 0 73.9199 24.6396 73.9199 52.7998 c 0
EndSplineSet
Validated: 1
EndChar

StartChar: quotedbl
Encoding: 34 34 112
Width: 378
VWidth: 1760
Flags: W
HStem: 422.4 241.119<103.84 123.2 255.2 274.56>
VStem: 72.1602 82.7197<479.325 658.116> 103.84 19.3604<422.4 460.093> 223.52 82.7207<555.399 659.121> 255.2 19.3594<422.4 456.899>
LayerCount: 2
Fore
SplineSet
265.76 663.52 m 4x90
 290.4 663.52 306.24 645.92 306.24 619.52 c 4x90
 306.24 596.64 304.48 570.24 299.2 543.84 c 6
 274.56 422.4 l 5
 255.2 422.4 l 5x88
 223.52 593.12 l 6
 223.52 596.64 223.52 600.16 223.52 603.68 c 6
 223.52 614.24 l 6
 223.52 644.16 235.84 663.52 265.76 663.52 c 4x90
112.64 663.52 m 0
 137.28 663.52 154.88 644.16 154.88 619.52 c 0xc0
 154.88 594.88 149.6 573.76 144.32 543.84 c 2
 123.2 422.4 l 1
 103.84 422.4 l 1xa0
 80.96 545.6 l 2
 75.6797 579.04 72.1602 601.92 72.1602 614.24 c 0xc0
 72.1602 644.16 84.4805 663.52 112.64 663.52 c 0
EndSplineSet
Validated: 1
EndChar

StartChar: numbersign
Encoding: 35 35 113
Width: 638
VWidth: 1760
Flags: W
HStem: 209.44 38.7197<72.1602 161.92 212.96 381.92 432.96 566.72> 404.8 36.96<72.1602 205.92 258.72 425.92 476.96 566.72>
VStem: 112.64 44<0 44> 262.24 44<607.2 651.2> 334.4 42.2393<0 42.2393> 484 42.2402<608.96 651.2>
DStem2: 112.64 0 156.64 0 0.223898 0.974613<9.85152 215.157 264.322 415.408 463.252 668.163> 334.4 0 376.64 0 0.223898 0.974613<9.4573 214.763 263.927 415.014 462.463 668.163>
LayerCount: 2
Fore
SplineSet
112.64 0 m 1
 161.92 209.44 l 1
 72.1602 209.44 l 1
 72.1602 248.16 l 1
 168.96 248.16 l 1
 205.92 404.8 l 1
 72.1602 404.8 l 1
 72.1602 441.76 l 1
 214.72 441.76 l 1
 262.24 651.2 l 1
 306.24 651.2 l 1
 258.72 441.76 l 1
 432.96 441.76 l 1
 484 651.2 l 1
 526.24 651.2 l 1
 476.96 441.76 l 1
 566.72 441.76 l 1
 566.72 404.8 l 1
 469.92 404.8 l 1
 432.96 248.16 l 1
 566.72 248.16 l 1
 566.72 209.44 l 1
 424.16 209.44 l 1
 376.64 0 l 1
 334.4 0 l 1
 381.92 209.44 l 1
 205.92 209.44 l 1
 156.64 0 l 1
 112.64 0 l 1
212.96 248.16 m 1
 388.96 248.16 l 1
 425.92 404.8 l 1
 249.92 404.8 l 1
 212.96 248.16 l 1
EndSplineSet
Validated: 1
EndChar

StartChar: dollar
Encoding: 36 36 114
Width: 528
VWidth: 1760
Flags: W
HStem: -5.28027 31.6807<164.352 239.36 269.28 317.17> 616 29.9199<192.231 239.36 269.28 337.17>
VStem: 75.6797 72.1602<459.952 572.564> 75.6797 19.3604<108.322 163.68> 239.36 29.9199<-63.3604 -5.28027 26.4004 276.32 401.28 616 646.186 689.92> 378.4 73.9199<85.6225 203.449> 403.04 19.3604<468.16 534.756>
DStem2: 239.36 401.28 239.36 295.68 0.812182 -0.583404<-119.867 0 36.622 61.6078 97.2025 243.613>
LayerCount: 2
Fore
SplineSet
75.6797 496.32 m 0xe8
 75.6797 591.36 153.12 638.88 239.36 647.68 c 1
 239.36 689.92 l 1
 269.28 689.92 l 1
 269.28 647.68 l 1
 278.08 645.92 283.36 645.92 288.64 645.92 c 2
 295.68 645.92 l 2
 302.72 645.92 308 645.92 318.56 644.16 c 0
 353.76 633.6 374.88 624.8 422.4 607.2 c 1
 422.4 468.16 l 1
 403.04 468.16 l 1xea
 403.04 563.2 359.04 616 269.28 616 c 1
 269.28 380.16 l 1
 308 353.76 341.44 329.12 364.32 311.52 c 0
 413.6 272.8 452.32 242.88 452.32 163.68 c 0
 452.32 86.2402 401.28 38.7197 344.96 14.0801 c 0
 323.84 3.51953 297.44 -5.28027 269.28 -5.28027 c 1
 269.28 -63.3604 l 1
 239.36 -63.3604 l 1
 239.36 -5.28027 l 1
 170.72 -5.28027 130.24 10.5596 75.6797 31.6797 c 1
 75.6797 163.68 l 1
 95.04 163.68 l 1xdc
 95.04 75.6797 149.6 26.4004 239.36 26.4004 c 1
 239.36 295.68 l 1
 188.32 327.36 146.08 355.52 112.64 394.24 c 0
 88 422.4 75.6797 450.56 75.6797 496.32 c 0xe8
239.36 616 m 1
 184.8 608.96 147.84 580.8 147.84 526.24 c 0
 147.84 505.12 153.12 484 167.2 462.88 c 0
 181.28 443.52 205.92 422.4 239.36 401.28 c 1
 239.36 616 l 1
269.28 26.4004 m 1
 330.88 36.96 378.4 73.9199 378.4 142.56 c 0xcc
 378.4 186.56 355.52 207.68 327.36 232.32 c 0
 313.28 244.64 293.92 258.72 269.28 276.32 c 1
 269.28 26.4004 l 1
EndSplineSet
Validated: 1
EndChar

StartChar: percent
Encoding: 37 37 115
Width: 860
VWidth: 1760
Flags: W
HStem: 0 24.6396<625.199 681.5> 308 24.6396<626.56 683.636> 322.08 24.6396<174.272 233.128> 631.84 24.6406<175.357 234.4>
VStem: 73.9199 73.9199<394.03 582.925> 184.8 40.4805<0 40.4805> 264 72.1602<391.454 586.376> 524.48 72.1592<71.4912 261.66> 635.36 40.4795<616.001 656.48> 714.56 72.1602<69.7561 261.783>
DStem2: 184.8 0 225.28 0 0.565872 0.824493<22.9068 796.223>
LayerCount: 2
Fore
SplineSet
675.84 656.48 m 1x9fc0
 225.28 0 l 1
 184.8 0 l 1
 635.36 656.48 l 1
 675.84 656.48 l 1x9fc0
336.16 489.28 m 0
 336.16 396 292.16 322.08 200.64 322.08 c 256xbfc0
 114.4 322.08 73.9199 406.56 73.9199 494.56 c 0
 73.9199 566.72 109.12 617.76 154.88 644.16 c 0
 168.96 652.96 184.8 656.48 200.64 656.48 c 2
 207.68 656.48 l 2
 293.92 656.48 336.16 575.52 336.16 489.28 c 0
264 487.52 m 0
 264 550.88 256.96 631.84 205.92 631.84 c 0
 151.36 631.84 147.84 552.64 147.84 489.28 c 0
 147.84 424.16 151.36 346.72 204.16 346.72 c 0
 255.2 346.72 264 424.16 264 487.52 c 0
786.72 174.24 m 0
 786.72 79.2002 744.48 0 656.48 0 c 0
 568.48 0 524.48 82.7197 524.48 172.48 c 0
 524.48 242.88 557.92 295.68 603.68 320.32 c 0
 619.52 327.36 633.6 332.64 649.44 332.64 c 2
 654.72 332.64 l 2xdfc0
 735.68 332.64 786.72 256.96 786.72 174.24 c 0
714.56 163.68 m 0
 714.56 228.8 705.76 308 654.72 308 c 0
 637.12 308 623.04 297.44 612.48 274.56 c 0
 601.92 253.44 596.64 214.72 596.64 161.92 c 0
 596.64 96.7998 605.44 24.6396 654.72 24.6396 c 0
 672.32 24.6396 686.4 35.2002 696.96 58.0801 c 0
 709.28 79.2002 714.56 114.4 714.56 163.68 c 0
EndSplineSet
Validated: 1
EndChar

StartChar: ampersand
Encoding: 38 38 116
Width: 848
VWidth: 1760
Flags: W
HStem: -14.0801 73.9199<595.248 704.075> -14.0801 58.0801<224.754 352.829> 371.36 19.3594<538.56 563.723 688.835 740.96> 633.6 33.4404<352.583 444.969>
VStem: 73.9199 100.32<95.7325 216.922> 234.08 82.7197<450.246 591.579> 475.2 56.3193<482.802 609.422> 755.04 19.3604<107.409 122.374>
LayerCount: 2
Fore
SplineSet
584.32 318.56 m 0x7f
 584.32 344.96 564.96 371.36 538.56 371.36 c 1
 538.56 390.72 l 1
 740.96 390.72 l 1
 740.96 371.36 l 1
 689.92 371.36 675.84 359.04 652.96 323.84 c 0
 630.08 288.64 598.4 256.96 572 218.24 c 0
 556.16 193.6 540.32 170.72 522.72 149.6 c 1
 550.88 116.16 577.28 93.2803 598.4 79.2002 c 0
 621.28 65.1201 644.16 59.8398 667.04 59.8398 c 0
 716.32 59.8398 744.48 88 755.04 130.24 c 1
 774.4 117.92 l 1
 753.28 42.2402 711.04 -14.0801 624.8 -14.0801 c 0xbf
 598.4 -14.0801 572 -7.04004 545.6 7.04004 c 0
 517.44 21.1201 489.28 44 455.84 79.2002 c 1
 401.28 29.9199 344.96 -14.0801 246.4 -14.0801 c 0
 167.2 -14.0801 110.88 21.1201 86.2402 73.9199 c 0
 77.4404 91.5195 73.9199 109.12 73.9199 128.48 c 0
 73.9199 214.72 123.2 262.24 176 302.72 c 0
 202.4 323.84 234.08 343.2 272.8 364.32 c 1
 249.92 417.12 234.08 448.8 234.08 508.64 c 0
 234.08 605.44 304.48 667.04 401.28 667.04 c 0
 475.2 667.04 531.52 623.04 531.52 549.12 c 0
 531.52 482.24 491.04 450.56 447.04 420.64 c 0
 427.68 406.56 403.04 392.48 373.12 376.64 c 1
 411.84 304.48 454.08 239.36 499.84 177.76 c 1
 557.92 244.64 584.32 272.8 584.32 318.56 c 0x7f
401.28 633.6 m 0
 352 633.6 316.8 594.88 316.8 545.6 c 0
 316.8 491.04 337.92 450.56 357.28 408.32 c 1
 434.72 443.52 475.2 492.8 475.2 552.64 c 0
 475.2 596.64 443.52 633.6 401.28 633.6 c 0
174.24 172.48 m 0
 174.24 98.5596 221.76 44 295.68 44 c 0x7f
 359.04 44 392.48 73.9199 431.2 105.6 c 1
 371.36 186.56 332.64 242.88 288.64 332.64 c 1
 211.2 288.64 174.24 234.08 174.24 172.48 c 0
EndSplineSet
Validated: 1
EndChar

StartChar: quotesingle
Encoding: 39 39 117
Width: 232
VWidth: 1760
Flags: W
HStem: 422.4 241.119<105.6 126.72>
VStem: 73.9199 84.4805<555.398 658.631> 105.6 21.1201<422.4 456.899>
LayerCount: 2
Fore
SplineSet
73.9199 593.12 m 1xc0
 73.9199 614.24 l 2
 73.9199 644.16 88 663.52 116.16 663.52 c 0
 140.8 663.52 158.4 645.92 158.4 619.52 c 0xc0
 158.4 596.64 154.88 570.24 151.36 543.84 c 2
 126.72 422.4 l 1
 105.6 422.4 l 1xa0
 73.9199 593.12 l 1xc0
EndSplineSet
Validated: 1
EndChar

StartChar: plus
Encoding: 43 43 118
Width: 800
VWidth: 1760
Flags: W
HStem: 308 52.7998<75.6797 374.88 422.4 723.36>
VStem: 374.88 47.5205<0 308 360.8 661.76>
LayerCount: 2
Fore
SplineSet
374.88 0 m 1
 374.88 308 l 1
 75.6797 308 l 1
 75.6797 360.8 l 1
 374.88 360.8 l 1
 374.88 661.76 l 1
 422.4 661.76 l 1
 422.4 360.8 l 1
 723.36 360.8 l 1
 723.36 308 l 1
 422.4 308 l 1
 422.4 0 l 1
 374.88 0 l 1
EndSplineSet
Validated: 1
EndChar

StartChar: comma
Encoding: 44 44 119
Width: 227
VWidth: 1760
Flags: W
HStem: -163.68 29.9199<40.3974 69.8595> 0 119.68<58.6962 142.448>
VStem: 144.32 47.5195<-76.4569 37.8398>
LayerCount: 2
Fore
SplineSet
110.88 119.68 m 4
 160.16 119.68 191.84 75.6797 191.84 0 c 4
 191.84 -86.2402 119.68 -149.6 45.7598 -163.68 c 5
 36.96 -154.88 35.2002 -146.08 35.2002 -133.76 c 5
 98.5596 -117.92 144.32 -59.8398 144.32 -33.4404 c 4
 144.32 -5.28027 123.2 0 98.5596 0 c 4
 77.4404 0 44 19.3604 44 59.8398 c 4
 44 93.2803 72.1602 119.68 110.88 119.68 c 4
EndSplineSet
Validated: 1
EndChar

StartChar: period
Encoding: 46 46 120
Width: 214
VWidth: 1760
Flags: W
HStem: 0 121.44<60.9768 153.743>
VStem: 45.7598 123.2<15.217 106.98>
LayerCount: 2
Fore
SplineSet
45.7598 61.5996 m 0
 45.7598 95.04 73.9199 121.44 107.36 121.44 c 0
 140.8 121.44 168.96 95.04 168.96 61.5996 c 0
 168.96 28.1602 140.8 0 107.36 0 c 0
 73.9199 0 45.7598 28.1602 45.7598 61.5996 c 0
EndSplineSet
Validated: 1
EndChar

StartChar: uniEE74
Encoding: 61044 61044 121
Width: 1148
VWidth: 0
Flags: W
HStem: 19 21G<129.5 161 454 468> 158 37<300.182 309> 302 62<975.156 1126.42>
VStem: 360 60<191.995 265.383>
DStem2: 161 91 195 29 0.954302 0.298844<-1.9414 186.601 642.696 982.509> 381 172 339 147 0.937425 -0.348187<-62.379 -30.6672 122.08 167.785> 420 248 364 221 0.359313 -0.933217<-9.29319 56.9113 162.689 212.082>
AnchorPoint: "Right" 1174.96 339.04 basechar 0
AnchorPoint: "Podchashie" 351.28 -14.7197 basechar 0
AnchorPoint: "Tonal" 601.2 300.32 basechar 0
LayerCount: 2
Fore
SplineSet
496 131 m 1
 533 117 l 2
 540 114 543 107 543 100 c 0
 543 89 538 80 526 80 c 0
 522 80 520 80 517 82 c 2
 478 96 l 1
 492 61 l 2
 494 57 494 54 494 49 c 0
 494 31 476 19 460 19 c 0
 448 19 438 26 430 40 c 1
 408 101 l 1
 341 80 270 56 195 29 c 1
 179 26 170 19 152 19 c 0
 107 19 34 135 20 149 c 1
 40 154 61 158 78 158 c 0
 105 158 130 151 144 128 c 1
 152 112 161 91 161 91 c 1
 339 147 l 1
 309 158 l 2
 302 160 300 167 300 174 c 0
 300 184 307 195 318 195 c 2
 323 195 l 1
 381 172 l 1
 364 221 l 2
 362 226 360 232 360 235 c 0
 360 256 376 267 392 267 c 0
 402 267 415 260 420 248 c 0
 429 225 438 202 446 181 c 1
 1020 360 l 1
 1029 364 1057 364 1078 364 c 2
 1096 364 l 2
 1111 364 1127 364 1127 343 c 0
 1127 342 1127 340 1127 339 c 0
 1127 337 1127 335 1127 333 c 0
 1127 304 1114 302 1105 302 c 2
 1085 302 l 2
 1055 302 1045 300 1008 292 c 1
 867 248 703 198 496 131 c 1
EndSplineSet
Validated: 1
EndChar

StartChar: uniEE77
Encoding: 61047 61047 122
Width: 507
VWidth: 0
Flags: W
HStem: 22 98<158.399 220.628> 148 64<335.516 380.433>
VStem: 20 111<91.5816 180.609>
AnchorPoint: "Tonal" 208.72 273.4 basechar 0
AnchorPoint: "Podchashie" 298.48 -17 basechar 0
AnchorPoint: "Right" 558.96 169.56 basechar 0
LayerCount: 2
Fore
SplineSet
397 50 m 0
 376 50 357 60 351 89 c 0
 351 90 351 92 351 93 c 0
 351 104 363 105 378 120 c 0
 380 123 381 126 381 129 c 0
 381 138 371 148 360 148 c 0
 358 147 346 139 335 139 c 0
 332 139 330 139 328 140 c 8
 306 147 298 163 279 178 c 17
 279 180 l 2
 279 203 316 212 351 212 c 0
 422 212 487 170 487 115 c 0
 487 78 432 50 397 50 c 0
131 90 m 9
 177 101 200 120 249 120 c 0
 269 120 284 113 284 85 c 0
 284 60 181 22 112 22 c 0
 84 22 63 29 56 45 c 1
 42 83 26 126 20 170 c 1
 49 187 77 192 89 192 c 0
 122 192 115 152 131 90 c 9
EndSplineSet
Validated: 1
EndChar

StartChar: uniEE86
Encoding: 61062 61062 123
Width: 738
VWidth: 0
Flags: W
HStem: 22.7197 73.9199<261.372 350.265> 63.2002 75.6798<447.923 529.494> 269.12 38.72<631.843 716.942>
VStem: 254.2 100.32<29.4497 73.6709> 442.52 91.52<68.8189 133.333>
DStem2: 167.96 170.56 152.12 121.28 0.965824 0.259199<-1.39148 428.929>
AnchorPoint: "Tonal" 352.76 277.92 basechar 0
AnchorPoint: "Podchashie" 419.64 22.7197 basechar 0
AnchorPoint: "Right" 775.16 306.08 basechar 0
LayerCount: 2
Fore
SplineSet
167.96 170.56 m 17x38
 254.2 196.96 340.44 223.36 382.68 235.68 c 0
 405.56 242.72 620.28 307.84 688.92 307.84 c 0
 706.52 307.84 717.08 295.52 717.08 290.24 c 0
 717.08 283.2 711.8 276.16 703 269.12 c 1
 495.32 216.32 544.6 228.64 391.48 186.4 c 8
 298.2 160 234.84 140.64 152.12 121.28 c 9
 79.96 121.28 34.2002 239.2 20.1201 253.28 c 1
 41.2402 258.56 62.3604 262.08 79.96 262.08 c 0
 104.6 262.08 129.24 255.04 143.32 232.16 c 0
 153.88 216.32 159.16 195.2 167.96 170.56 c 17x38
442.52 108.96 m 0
 442.52 131.84 461.88 138.88 481.24 138.88 c 0x78
 511.16 138.88 534.04 128.32 534.04 96.6396 c 0xb8
 534.04 70.2402 511.16 63.2002 491.8 63.2002 c 0x78
 461.88 63.2002 442.52 77.2803 442.52 108.96 c 0
354.52 61.4404 m 0
 354.52 33.2803 326.36 22.7197 299.96 22.7197 c 0
 289.4 22.7197 266.52 22.7197 254.2 42.0801 c 0
 254.2 43.8398 254.2 49.1201 254.2 52.6396 c 0
 254.2 61.4404 254.2 72 259.48 73.7598 c 0
 278.84 84.3203 299.96 96.6396 321.08 96.6396 c 0xb8
 336.92 96.6396 354.52 86.0801 354.52 61.4404 c 0
EndSplineSet
Validated: 1
EndChar

StartChar: uniEE95
Encoding: 61077 61077 124
Width: 703
VWidth: 0
Flags: W
HStem: 21 21G<150 161> 48 68<543.568 614.643> 387 83<480.193 545.419>
VStem: 413 66<333.121 384.307> 462 76<119.557 227.149> 547 77<296.496 385.334>
DStem2: 31 209 66 153 0.930951 0.365144<2.22705 243.285> 137 79 170 22 0.928934 0.370245<-0.864132 241.418>
AnchorPoint: "Right" 702.8 390.76 basechar 0
AnchorPoint: "Podchashie" 302 -18 basechar 0
AnchorPoint: "Tonal" 136.56 328.72 basechar 0
LayerCount: 2
Fore
SplineSet
479 351 m 0xf4
 479 337 460 329 450 329 c 0
 429 329 413 350 413 373 c 0xf4
 413 435 471 470 528 470 c 0
 582 470 624 419 624 361 c 0
 624 345 621 329 616 310 c 8
 600 250 538 232 538 171 c 0
 538 130 554 116 575 116 c 0
 645 116 596 188 654 188 c 0
 679 188 682 162 682 136 c 0
 682 129 682 122 682 116 c 0
 682 79 628 48 570 48 c 0
 543 48 506 49 482 78 c 0
 462 100 462 102 462 146 c 0xec
 462 190 475 208 492 246 c 1
 506 280 547 306 547 354 c 0
 547 377 533 387 515 387 c 0
 502 387 479 378 479 362 c 0
 479 358 479 355 479 351 c 0xf4
159 21 m 0
 141 21 125 37 125 59 c 0
 125 68 128 76 137 79 c 0
 244 121 258 128 351 165 c 0
 355 167 358 167 362 167 c 0
 381 167 395 147 395 132 c 0
 395 121 390 112 379 107 c 0
 291 72 254 54 170 22 c 0
 166 21 163 21 159 21 c 0
56 151 m 0
 36 151 20 169 20 190 c 0
 20 198 24 206 31 209 c 0
 140 251 154 258 247 295 c 0
 251 297 254 297 258 297 c 0
 276 297 290 279 290 262 c 0
 290 251 284 242 274 237 c 0
 188 202 151 184 66 153 c 0
 63 151 59 151 56 151 c 0
EndSplineSet
Validated: 1
EndChar

StartChar: uniEE8A
Encoding: 61066 61066 125
Width: 310
VWidth: 0
Flags: W
HStem: 21 68<150.881 221.975> 360 83<87.2019 152.436>
VStem: 20 67<306.089 357.307> 70 75<92.6269 200.635> 154 78<268.779 358.334>
LayerCount: 2
Fore
SplineSet
87 325 m 0xe8
 87 310 67 302 57 302 c 0
 36 302 20 323 20 346 c 0xe8
 20 408 78 443 135 443 c 0
 189 443 232 392 232 334 c 0
 232 318 228 302 223 283 c 8
 207 223 145 206 145 144 c 0
 145 103 161 89 182 89 c 0
 253 89 203 162 262 162 c 0
 286 162 290 135 290 109 c 2
 290 89 l 2
 290 52 235 21 177 21 c 0
 151 21 114 22 89 51 c 0
 70 74 70 75 70 119 c 0xd8
 70 163 82 181 100 220 c 1
 114 253 154 279 154 327 c 0
 154 350 140 360 122 360 c 0
 110 360 86 351 86 335 c 0
 86 332 87 328 87 325 c 0xe8
EndSplineSet
Validated: 1
EndChar

StartChar: uniEEA0
Encoding: 61088 61088 126
Width: 1445
VWidth: 0
Flags: W
HStem: 22 21G<108.5 131> 92 46<226.625 256> 103 53<44.6834 103.733> 129 88<427.485 500.985>
VStem: 104 87<63.8775 102.737> 318 88<193 279.503> 348 79<80.7522 119>
AnchorPoint: "Tonal" 931.72 376.72 basechar 0
AnchorPoint: "Podchashie" 1046.12 221.84 basechar 0
AnchorPoint: "Right" 1464.8 399.36 basechar 0
LayerCount: 2
Fore
SplineSet
362 286 m 0xcc
 416 286 394 244 406 193 c 1xcc
 436 201 469 217 497 217 c 0
 513 217 543 200 543 186 c 0
 543 152 427 129 427 129 c 1
 430 115 439 96 439 80 c 0
 439 59 420 55 399 55 c 0
 360 55 367 94 348 119 c 25x9a
 313 108 348 119 256 92 c 0
 255 92 254 92 252 92 c 0
 240 92 226 105 226 119 c 0
 226 126 228 131 226 138 c 1
 262 156 284 156 318 170 c 1
 318 173 318 176 318 178 c 0
 318 195 314 206 314 219 c 0
 314 251 327 286 362 286 c 0xcc
608 197 m 0
 595 197 583 200 583 216 c 0
 583 227 590 239 601 241 c 8
 898 320 1018 336 1370 414 c 0
 1375 415 1381 415 1386 415 c 0
 1402 415 1425 407 1425 387 c 0
 1425 371 1405 361 1388 357 c 0
 1090 299 911 261 622 195 c 1
 617 197 612 197 608 197 c 0
117 22 m 0
 100 22 80 33 80 58 c 0
 80 66 89 68 101 80 c 0
 103 82 104 85 104 87 c 0
 104 95 96 103 88 103 c 0xa8
 80 103 73 95 65 95 c 0
 64 95 62 95 61 96 c 8
 42 103 36 115 20 128 c 17
 20 129 l 2x98
 20 149 50 156 80 156 c 0xa8
 137 156 186 121 191 77 c 1
 191 45 145 22 117 22 c 0
EndSplineSet
Validated: 1
EndChar

StartChar: uniEEA1
Encoding: 61089 61089 127
Width: 1441
VWidth: 0
Flags: W
HStem: 22 21G<109 131> 83 96<863.572 946.464> 92 46<226.668 287.489> 103 53<44.6834 103.734> 137 95<1135.64 1204.06> 355 58<1277.38 1419.04>
VStem: 104 87<65.1111 102.737> 314 92<193 276.767> 348 79<80.7522 119> 847 111<100.334 166.05> 1125 84<146.41 222.828>
AnchorPoint: "Tonal" 908.36 378.24 basechar 0
AnchorPoint: "Podchashie" 1057.96 91.3604 basechar 0
AnchorPoint: "Right" 1466.04 399.36 basechar 0
LayerCount: 2
Fore
SplineSet
1125 190 m 0x8e60
 1125 215 1155 232 1174 232 c 0
 1204 232 1209 202 1209 178 c 0
 1209 156 1192 137 1171 137 c 0
 1146 137 1125 165 1125 190 c 0x8e60
847 141 m 0
 847 169 871 179 894 179 c 0
 928 179 958 158 958 127 c 0
 958 98 938 83 914 83 c 0xc660
 880 83 847 111 847 141 c 0
348 119 m 25xa6e0
 310 107 257 92 253 92 c 0
 241 92 226 104 226 119 c 0
 226 126 228 131 226 138 c 1
 262 156 284 156 318 170 c 1
 318 173 318 176 318 178 c 0
 318 195 314 205 314 219 c 0
 314 251 327 286 362 286 c 0
 416 286 394 244 406 193 c 1xa760
 436 201 469 217 497 217 c 0
 513 217 543 200 543 186 c 0
 543 152 427 129 427 129 c 1
 430 115 439 96 439 80 c 0
 439 59 420 55 399 55 c 0
 360 55 367 94 348 119 c 25xa6e0
618 193 m 9
 603 197 579 189 579 214 c 0
 579 225 586 237 597 239 c 8
 894 318 1014 334 1366 412 c 0
 1371 413 1377 413 1382 413 c 0
 1398 413 1421 405 1421 385 c 0
 1421 369 1401 359 1384 355 c 0
 1086 297 907 259 618 193 c 9
117 22 m 0
 101 22 79 33 79 58 c 0
 79 66 89 68 101 80 c 0
 103 82 104 85 104 88 c 0
 104 95 97 103 88 103 c 0
 80 103 73 95 65 95 c 0
 64 95 62 95 61 96 c 8
 42 103 36 115 20 128 c 17
 20 129 l 2
 20 149 50 156 80 156 c 0x9660
 137 156 186 121 191 77 c 1
 191 45 145 22 117 22 c 0
EndSplineSet
Validated: 1
EndChar

StartChar: uniEEA7
Encoding: 61095 61095 128
Width: 1345
VWidth: 0
Flags: W
HStem: 8 93<341.099 438.344> 22 21G<128 156> 121 63<73.5639 118.898> 165 88<267.353 348.975> 361 20G<1283.5 1294>
VStem: 122 106<78.109 120.758> 251 114<182.25 236.097> 328 123<21.4822 86.5>
AnchorPoint: "Tonal" 800.08 322.44 basechar 0
AnchorPoint: "Podchashie" 954.96 190.44 basechar 0
AnchorPoint: "Right" 1375.96 368.2 basechar 0
LayerCount: 2
Fore
SplineSet
451 54 m 0x8d
 451 19 416 8 388 8 c 0
 353 8 328 36 328 61 c 0
 328 84 349 101 386 101 c 0
 416 101 451 78 451 54 c 0x8d
297 253 m 0x1e
 330 253 365 226 365 200 c 0
 365 175 342 165 319 165 c 0
 284 165 251 193 251 219 c 0
 251 235 267 253 297 253 c 0x1e
138 22 m 0x6c
 118 22 92 34 92 65 c 0
 92 76 105 78 117 92 c 0
 121 96 122 99 122 102 c 0
 122 110 111 121 102 121 c 1
 99 120 85 110 73 110 c 0
 71 110 70 110 68 111 c 0
 45 120 40 136 20 152 c 1
 20 154 l 2
 20 175 57 184 93 184 c 0
 163 184 228 141 228 87 c 0
 228 50 174 22 138 22 c 0x6c
522 161 m 0
 516 159 510 158 505 158 c 0
 493 158 483 164 483 182 c 0
 483 192 490 203 501 206 c 8
 798 285 918 301 1270 379 c 0
 1275 381 1281 381 1286 381 c 0
 1302 381 1325 372 1325 352 c 0
 1325 337 1305 326 1288 322 c 0
 990 264 811 226 522 161 c 0
EndSplineSet
Validated: 1
EndChar

StartChar: uniEEA8
Encoding: 61096 61096 129
Width: 1478
VWidth: 0
Flags: W
HStem: 20 21G<107.5 130> 83 93<489.693 587.344> 92 60<31.3359 87.4873> 158 63<221.364 294.557> 219 21G<631.5 640> 240 88<415.76 497.707>
VStem: 295 106<115.281 157.758> 399 115<257.355 310.303> 477 123<95.7551 161.5>
AnchorPoint: "Tonal" 933.52 382.44 basechar 0
AnchorPoint: "Podchashie" 1104.24 266.28 basechar 0
AnchorPoint: "Right" 1502 428.2 basechar 0
LayerCount: 2
Fore
SplineSet
116 20 m 0xa0
 99 20 77 30 77 55 c 0
 77 64 89 65 98 78 c 1
 109 87 98 96 88 99 c 0
 77 103 70 89 59 92 c 0
 38 99 35 112 21 126 c 1
 21 127 l 2
 21 145 49 152 77 152 c 0
 133 152 186 117 186 73 c 0
 186 43 144 20 116 20 c 0xa0
600 129 m 0xc080
 600 94 565 83 536 83 c 0
 501 83 477 111 477 136 c 0
 477 159 498 176 535 176 c 0
 565 176 600 153 600 129 c 0xc080
445 328 m 0x85
 478 328 514 301 514 275 c 0
 514 250 491 240 468 240 c 0
 433 240 399 268 399 294 c 0
 399 310 415 328 445 328 c 0x85
295 140 m 0x92
 295 147 284 158 274 158 c 0
 264 158 255 148 245 148 c 2
 240 148 l 1
 217 157 212 173 193 189 c 1
 193 191 l 2
 193 212 230 221 265 221 c 0
 335 221 401 178 401 124 c 0
 401 87 346 59 311 59 c 0
 290 59 270 69 265 97 c 0
 265 99 264 101 264 102 c 0
 264 113 277 115 290 129 c 0
 293 133 295 136 295 140 c 0x92
655 221 m 0
 649 220 643 219 637 219 c 0x88
 626 219 617 224 617 242 c 0
 617 252 624 263 634 266 c 8
 932 345 1051 361 1403 439 c 0
 1409 441 1414 441 1419 441 c 0
 1435 441 1458 432 1458 412 c 0
 1458 397 1439 386 1421 382 c 0
 1124 324 944 286 655 221 c 0
EndSplineSet
Validated: 1
EndChar

StartChar: uniEEAA
Encoding: 61098 61098 130
Width: 1110
VWidth: 0
Flags: W
HStem: 23 77<113.909 218.721> 115 45<262.255 329.225> 200 20G<106.5 124>
AnchorPoint: "Tonal" 552.8 295.44 basechar 0
AnchorPoint: "Podchashie" 697.12 170.48 basechar 0
AnchorPoint: "Right" 1147.48 386.68 basechar 0
LayerCount: 2
Fore
SplineSet
281 115 m 0
 272 115 262 123 262 135 c 0
 262 145 269 156 278 160 c 8
 569 262 688 287 1033 390 c 0
 1039 392 1044 394 1051 394 c 0
 1068 394 1090 385 1090 368 c 0
 1090 352 1070 341 1054 336 c 0
 762 255 586 202 303 116 c 0
 301 116 300 116 299 116 c 0
 293 116 287 115 281 115 c 0
111 220 m 0
 137 220 174 218 174 204 c 0
 174 187 121 153 112 100 c 1
 139 95 232 99 232 55 c 0
 232 26 213 23 174 23 c 0
 133 23 81 32 44 48 c 0
 22 57 21 66 21 80 c 0
 21 82 21 84 21 86 c 0
 24 129 72 176 84 218 c 1
 93 220 102 220 111 220 c 0
EndSplineSet
Validated: 1
EndChar

StartChar: uniEEB3
Encoding: 61107 61107 131
Width: 1542
VWidth: 0
Flags: W
HStem: 21 21G<108.5 131> 83 96<855.27 939.259> 102 52<44.1703 103.733> 137 93<1127.54 1197.95> 152 52<238.147 297.552>
VStem: 104 87<63.2307 101.237> 298 87<113.353 151.237> 839 113<99.0314 165.179> 1119 84<144.465 221.374>
DStem2: 536 215 570 153 0.958306 0.285743<-2.63092 987.756>
AnchorPoint: "Right" 1578.24 478.8 basechar 0
AnchorPoint: "Tonal" 849.964 391.607 basechar 0
AnchorPoint: "Podchashie" 724.56 26.2002 basechar 0
LayerCount: 2
Fore
SplineSet
1119 188 m 0x9780
 1119 213 1147 230 1168 230 c 0
 1196 230 1203 202 1203 178 c 0
 1203 155 1184 137 1163 137 c 0
 1138 137 1119 163 1119 188 c 0x9780
839 141 m 0
 839 167 864 179 888 179 c 0
 920 179 952 158 952 125 c 0
 952 98 930 83 906 83 c 0xc780
 872 83 839 109 839 141 c 0
311 70 m 0
 293 70 273 81 273 106 c 0
 273 115 283 116 295 129 c 0
 297 131 298 133 298 136 c 0
 298 144 290 152 281 152 c 0
 273 152 266 143 259 143 c 0
 257 143 256 144 254 144 c 8
 235 151 230 164 214 176 c 17
 214 178 l 2
 214 197 244 204 274 204 c 0x8f80
 330 204 379 169 385 125 c 1
 385 93 339 70 311 70 c 0
117 21 m 0
 100 21 80 32 80 57 c 0
 80 65 89 67 101 79 c 0
 103 81 104 83 104 86 c 0
 104 94 96 102 88 102 c 0
 80 102 73 94 65 94 c 0
 64 94 62 94 61 95 c 8
 42 102 36 114 20 126 c 17
 20 128 l 2
 20 147 50 154 80 154 c 0xa780
 137 154 186 119 191 75 c 1
 191 44 145 21 117 21 c 0
392 280 m 1
 411 285 431 290 448 290 c 0
 475 290 505 274 519 251 c 0
 527 236 529 229 536 215 c 25
 888 318 1140 399 1441 482 c 1
 1458 489 1473 491 1485 491 c 0
 1511 491 1522 476 1522 460 c 0
 1522 459 1522 457 1522 456 c 1
 1522 429 1332 375 1302 368 c 1
 1099 304 943 266 570 153 c 0
 554 148 545 142 527 142 c 27
 452 142 406 266 392 280 c 1
EndSplineSet
Validated: 1
EndChar

StartChar: uniEEB4
Encoding: 61108 61108 132
Width: 1685
VWidth: 0
Flags: W
HStem: 21 21G<108.5 131> 91 46<226.625 256> 102 53<44.6834 103.733> 128 88<427.485 500.985>
VStem: 104 87<62.8775 101.737> 318 88<192 278.503> 348 79<79.7522 118>
DStem2: 679 264 712 202 0.957839 0.287305<-2.86458 987.701>
AnchorPoint: "Right" 1717.44 518.08 basechar 0
AnchorPoint: "Tonal" 992.684 441.008 basechar 0
AnchorPoint: "Podchashie" 784.56 49.2002 basechar 0
LayerCount: 2
Fore
SplineSet
362 285 m 0xcc
 416 285 394 243 406 192 c 1xcc
 436 200 469 216 497 216 c 0
 513 216 543 199 543 185 c 0
 543 151 427 128 427 128 c 1
 430 114 439 95 439 79 c 0
 439 58 420 54 399 54 c 0
 360 54 367 93 348 118 c 25x9a
 313 107 256 91 256 91 c 1
 252 91 l 2
 240 91 226 104 226 118 c 0
 226 125 228 130 226 137 c 1
 262 155 284 155 318 169 c 1
 318 177 l 2
 318 194 314 205 314 218 c 0
 314 250 327 285 362 285 c 0xcc
117 21 m 0
 100 21 80 32 80 57 c 0
 80 65 89 67 101 79 c 0
 103 81 104 84 104 86 c 0
 104 94 96 102 88 102 c 0xa8
 80 102 73 94 65 94 c 0
 64 94 62 94 61 95 c 8
 42 102 36 114 20 127 c 17
 20 128 l 2x98
 20 148 50 155 80 155 c 0xa8
 137 155 186 120 191 76 c 1
 191 44 145 21 117 21 c 0
535 329 m 1
 554 334 573 340 591 340 c 0
 617 340 647 324 661 301 c 0
 670 285 672 278 679 264 c 25
 1031 368 1283 449 1584 531 c 1
 1601 538 1615 540 1628 540 c 0
 1655 540 1665 524 1665 507 c 0
 1665 507 1665 506 1665 505 c 1
 1665 479 1474 424 1445 417 c 1
 1242 354 1086 315 712 202 c 0
 697 197 688 192 670 192 c 27
 594 192 549 315 535 329 c 1
EndSplineSet
Validated: 1
EndChar

StartChar: uniEEB6
Encoding: 61110 61110 133
Width: 1322
VWidth: 0
Flags: W
HStem: 23 21G<108.5 131> 104 52<44.1703 103.733>
VStem: 104 87<65.2307 103.237>
DStem2: 305 190 335 127 0.972876 0.231329<-2.14495 978.557>
AnchorPoint: "Right" 1357.5 401.2 basechar 0
AnchorPoint: "Podchashie" 794.534 136.562 basechar 0
AnchorPoint: "Tonal" 635.381 356.854 basechar 0
LayerCount: 2
Fore
SplineSet
117 23 m 0
 100 23 80 34 80 59 c 0
 80 67 89 69 101 81 c 0
 103 83 104 85 104 88 c 0
 104 96 96 104 88 104 c 0
 80 104 73 96 65 96 c 0
 64 96 62 96 61 97 c 8
 42 104 36 116 20 128 c 17
 20 130 l 2
 20 149 50 156 80 156 c 0
 137 156 186 121 191 77 c 1
 191 46 145 23 117 23 c 0
166 262 m 1
 182 266 200 269 214 269 c 0
 247 269 274 259 291 227 c 1
 298 211 300 204 305 190 c 25
 662 273 919 340 1224 405 c 0
 1236 408 1249 410 1259 410 c 0
 1283 410 1304 401 1304 380 c 0
 1304 378 1303 376 1303 373 c 0
 1303 348 1110 304 1080 299 c 1
 874 246 715 216 335 127 c 1
 321 121 312 118 298 118 c 0
 219 118 178 248 166 262 c 1
EndSplineSet
Validated: 1
EndChar

StartChar: uniEEB7
Encoding: 61111 61111 134
Width: 1560
VWidth: 0
Flags: W
HStem: 23 21G<127.5 156> 47 93<312.099 409.344> 122 63<49.3433 121.903> 204 88<238.353 319.975>
VStem: 122 106<79.109 121.758> 222 114<221.25 275.097> 299 123<60.4822 125.5>
DStem2: 542 244 572 181 0.971808 0.235774<-2.12507 979.65>
AnchorPoint: "Right" 1592.4 457.64 basechar 0
AnchorPoint: "Podchashie" 923.542 192.901 basechar 0
AnchorPoint: "Tonal" 881.545 395.743 basechar 0
LayerCount: 2
Fore
SplineSet
401 318 m 1x90
 419 322 436 323 451 323 c 0
 484 323 510 313 526 283 c 0
 535 267 537 258 542 244 c 25
 899 329 1156 397 1461 462 c 1
 1471 468 1485 469 1496 469 c 0
 1521 469 1540 461 1540 438 c 0
 1540 436 1540 434 1540 432 c 0
 1540 406 1346 362 1315 357 c 1
 1111 304 952 274 572 181 c 0
 558 178 550 173 537 173 c 0
 454 173 417 300 401 318 c 1x90
422 93 m 0xd2
 422 58 387 47 359 47 c 0
 324 47 299 75 299 100 c 0
 299 123 320 140 357 140 c 0
 387 140 422 117 422 93 c 0xd2
268 292 m 0
 301 292 336 265 336 239 c 0
 336 214 313 204 290 204 c 0
 255 204 222 232 222 258 c 0x94
 222 274 238 292 268 292 c 0
122 104 m 0xb8
 122 111 112 122 102 122 c 0
 92 122 83 112 73 112 c 0
 71 112 70 112 68 112 c 0
 45 121 40 137 20 153 c 1
 20 155 l 2
 20 176 57 185 93 185 c 0
 163 185 223 142 228 88 c 1
 228 51 174 23 138 23 c 0
 117 23 98 33 93 61 c 0
 92 63 92 65 92 66 c 0
 92 77 105 79 117 93 c 0
 121 97 122 100 122 104 c 0xb8
EndSplineSet
Validated: 1
EndChar

StartChar: uniEEBA
Encoding: 61114 61114 135
Width: 1565
VWidth: 0
Flags: W
HStem: 23 97<126.399 188.628> 183 102<244.148 329.018> 195 20G<86 105.5> 243 102<420.148 504.621>
VStem: 20 76<90 195.682> 34 79<117.731 206.482> 231 113<196.631 268.939> 407 113<256.295 328.875>
AnchorPoint: "Tonal" 948.88 534.2 basechar 0
AnchorPoint: "Podchashie" 1151.28 381.08 basechar 0
AnchorPoint: "Right" 1581.6 623.96 basechar 0
LayerCount: 2
Fore
SplineSet
611 324 m 0x83
 600 324 591 338 591 347 c 0
 591 356 595 364 602 367 c 0
 970 490 1192 543 1482 626 c 0
 1489 627 1500 633 1510 633 c 0
 1524 633 1542 626 1542 610 c 0
 1542 594 1526 578 1510 575 c 0
 1183 494 912 409 634 328 c 1
 625 328 618 324 611 324 c 0x83
450 345 m 0x93
 485 345 520 318 520 297 c 0
 520 267 499 243 467 243 c 27
 435 243 407 267 407 299 c 19
 407 324 421 345 450 345 c 0x93
274 285 m 0xc3
 309 285 344 259 344 237 c 0
 344 208 323 183 291 183 c 27
 259 183 231 208 231 239 c 19
 231 264 245 285 274 285 c 0xc3
80 23 m 0
 38 23 20 33 20 70 c 0xab
 20 104 34 148 34 181 c 0
 34 186 34 190 34 193 c 1
 57 211 78 215 94 215 c 0
 96 215 99 215 101 215 c 0
 110 215 113 211 113 204 c 0xa7
 113 186 96 153 96 116 c 0xab
 96 107 98 98 99 90 c 9
 145 102 168 120 217 120 c 0
 237 120 252 114 252 86 c 0
 252 61 149 23 80 23 c 0
EndSplineSet
Validated: 1
EndChar

StartChar: uniEEBE
Encoding: 61118 61118 136
Width: 1402
VWidth: 0
Flags: W
HStem: 22 21G<169 180.5> 218 99<416.189 458.653> 489 41<1288.13 1310.04>
DStem2: 33 177 66 121 0.932694 0.360668<0.665085 221.429> 156 80 191 24 0.930253 0.366918<0.24608 243.283>
AnchorPoint: "Right" 1431.12 589.68 basechar 0
AnchorPoint: "Podchashie" 704.24 114.48 basechar 0
AnchorPoint: "Tonal" 700.72 438.32 basechar 0
LayerCount: 2
Fore
SplineSet
1320 590 m 0
 1341 590 1380 576 1380 535 c 0
 1380 514 1350 493 1315 489 c 1
 1303 489 1294 493 1290 507 c 1
 1283 514 1285 525 1297 530 c 9
 1304 532 1311 533 1310 540 c 16
 1306 549 1297 547 1287 542 c 0
 974 415 639 278 495 222 c 1
 486 220 479 218 472 218 c 0
 461 218 451 222 438 227 c 9
 414 241 372 262 372 290 c 0
 372 301 403 317 421 317 c 0
 451 317 461 283 490 269 c 1
 819 400 1287 583 1287 583 c 2
 1296 586 1308 590 1320 590 c 0
179 22 m 0
 159 22 145 40 145 62 c 0
 145 70 148 77 156 80 c 0
 265 122 277 129 372 166 c 0
 376 168 379 168 383 168 c 0
 401 168 415 149 415 131 c 0
 415 122 409 114 399 108 c 0
 313 73 274 55 191 24 c 0
 186 22 182 22 179 22 c 0
56 119 m 0
 36 119 20 135 20 158 c 0
 20 166 24 173 33 177 c 0
 140 219 137 216 230 254 c 0
 233 256 237 256 240 256 c 0
 260 256 274 237 274 219 c 0
 274 209 269 200 258 196 c 0
 170 161 151 152 66 121 c 0
 63 119 59 119 56 119 c 0
EndSplineSet
Validated: 1
EndChar

StartChar: hyphen
Encoding: 45 45 137
Width: 570
VWidth: 1760
Flags: W
HStem: 308 52.7998<68.6396 501.6>
LayerCount: 2
Fore
SplineSet
68.6396 360.8 m 1
 501.6 360.8 l 1
 501.6 308 l 1
 68.6396 308 l 1
 68.6396 360.8 l 1
EndSplineSet
Validated: 1
EndChar

StartChar: slash
Encoding: 47 47 138
Width: 427
VWidth: 1760
Flags: W
DStem2: 8.7998 -24.6396 68.6396 -24.6396 0.443661 0.896195<26.5486 793.399>
LayerCount: 2
Fore
SplineSet
418.88 686.4 m 1
 68.6396 -24.6396 l 1
 8.7998 -24.6396 l 1
 360.8 686.4 l 1
 418.88 686.4 l 1
EndSplineSet
Validated: 1
EndChar

StartChar: zero
Encoding: 48 48 139
Width: 501
VWidth: 1617
Flags: W
HStem: -14.5078 26.3994<207.107 294.893> 650.772 26.3994<208.691 295.823>
VStem: 23.96 96.7998<177.822 490.22> 381.24 96.7998<176.402 488.138>
LayerCount: 2
Fore
SplineSet
251 -14.5078 m 0
 111.96 -14.5078 23.96 133.332 23.96 335.732 c 0
 23.96 524.052 108.44 677.172 254.52 677.172 c 0
 386.52 677.172 478.04 536.372 478.04 330.452 c 0
 478.04 129.812 390.04 -14.5078 251 -14.5078 c 0
252.76 650.772 m 0
 166.52 650.772 120.76 539.892 120.76 326.932 c 0
 120.76 119.252 164.76 11.8916 251 11.8916 c 0
 337.24 11.8916 381.24 119.252 381.24 328.692 c 0
 381.24 538.132 335.48 650.772 252.76 650.772 c 0
EndSplineSet
Validated: 1
EndChar

StartChar: one
Encoding: 49 49 140
Width: 366
VWidth: 1760
Flags: W
HStem: -7.04004 14.0801<44 99.6143 262.786 330.88>
VStem: 142.56 88<26.7388 584.667>
LayerCount: 2
Fore
SplineSet
110.88 586.08 m 0
 95.04 586.08 77.4404 579.04 36.96 563.2 c 1
 36.96 577.28 l 1
 223.52 672.32 l 1
 230.56 670.56 l 1
 230.56 70.4004 l 2
 230.56 19.3604 248.16 7.04004 330.88 7.04004 c 1
 330.88 -7.04004 l 1
 44 -7.04004 l 1
 44 7.04004 l 1
 117.92 7.04004 142.56 28.1602 142.56 96.7998 c 2
 142.56 536.8 l 2
 142.56 570.24 132 586.08 110.88 586.08 c 0
EndSplineSet
Validated: 1
EndChar

StartChar: two
Encoding: 50 50 141
Width: 517
VWidth: 1760
Flags: W
HStem: -5.28027 75.6807<133.76 427.68> 598.4 73.9199<151.648 282.609>
VStem: 36.96 21.1201<471.69 490.052> 344.96 86.2402<395.598 535.528>
DStem2: 35.2002 7.04004 133.76 70.4004 0.689991 0.723818<113.867 387.334>
LayerCount: 2
Fore
SplineSet
36.96 473.44 m 1
 47.5195 519.2 84.4805 672.32 244.64 672.32 c 0
 350.24 672.32 431.2 594.88 431.2 494.56 c 0
 431.2 417.12 392.48 339.68 302.72 246.4 c 2
 133.76 70.4004 l 1
 373.12 70.4004 l 2
 418.88 70.4004 431.2 79.2002 469.92 137.28 c 1
 482.24 132 l 1
 427.68 -5.28027 l 1
 35.2002 -5.28027 l 1
 35.2002 7.04004 l 1
 214.72 195.36 l 2
 299.2 285.12 344.96 378.4 344.96 457.6 c 0
 344.96 540.32 286.88 598.4 204.16 598.4 c 0
 133.76 598.4 98.5596 566.72 58.0801 468.16 c 1
 36.96 473.44 l 1
EndSplineSet
Validated: 1
EndChar

StartChar: three
Encoding: 51 51 142
Width: 491
VWidth: 1760
Flags: W
HStem: -8.7998 36.96<120.56 280.185> 327.36 12.3193<154.88 170.218> 617.76 59.8398<151.452 286.761>
VStem: 332.64 86.2402<468.681 575.272> 378.4 77.4395<133.783 259.031>
LayerCount: 2
Fore
SplineSet
77.4404 84.4805 m 0xe8
 130.24 84.4805 167.2 28.1602 235.84 28.1602 c 0
 316.8 28.1602 378.4 93.2803 378.4 179.52 c 0xe8
 378.4 318.56 246.4 327.36 154.88 327.36 c 1
 154.88 339.68 l 1
 235.84 366.08 332.64 406.56 332.64 508.64 c 0
 332.64 572 285.12 617.76 214.72 617.76 c 0
 146.08 617.76 98.5596 584.32 54.5596 508.64 c 1
 36.96 513.92 l 1
 66.8799 589.6 117.92 677.6 249.92 677.6 c 0
 350.24 677.6 418.88 621.28 418.88 538.56 c 0xf0
 418.88 484 390.72 447.04 316.8 397.76 c 1
 388.96 369.6 455.84 337.92 455.84 227.04 c 0
 455.84 80.96 323.84 -8.7998 158.4 -8.7998 c 0
 82.7197 -8.7998 35.2002 14.0801 35.2002 49.2803 c 0
 35.2002 70.4004 51.04 84.4805 77.4404 84.4805 c 0xe8
EndSplineSet
Validated: 1
EndChar

StartChar: four
Encoding: 52 52 143
Width: 535
VWidth: 1760
Flags: W
HStem: 146.08 66.8799<77.4404 327.36 408.32 513.92>
VStem: 327.36 80.96<0 146.08 212.96 568.48>
DStem2: 36.96 212.96 77.4404 212.96 0.576805 0.816882<23.3493 457.923>
LayerCount: 2
Fore
SplineSet
513.92 212.96 m 1
 513.92 146.08 l 1
 408.32 146.08 l 1
 408.32 0 l 1
 329.12 0 l 1
 329.12 146.08 l 1
 36.96 146.08 l 1
 36.96 212.96 l 1
 362.56 674.08 l 1
 408.32 674.08 l 1
 408.32 212.96 l 1
 513.92 212.96 l 1
327.36 212.96 m 1
 327.36 568.48 l 1
 77.4404 212.96 l 1
 327.36 212.96 l 1
EndSplineSet
Validated: 1
EndChar

StartChar: five
Encoding: 53 53 144
Width: 487
VWidth: 1760
Flags: W
HStem: -8.7998 36.96<125.84 275.226> 582.56 77.4404<191.84 415.195>
VStem: 371.36 70.3994<136.826 285.801>
DStem2: 72.1602 425.92 147.84 498.08 0.433611 0.9011<97.8391 193.042>
LayerCount: 2
Fore
SplineSet
371.36 197.12 m 0
 371.36 381.92 147.84 413.6 84.4805 413.6 c 0
 75.6797 413.6 72.1602 415.36 72.1602 420.64 c 0
 72.1602 422.4 72.1602 424.16 72.1602 425.92 c 2
 184.8 660 l 1
 397.76 660 l 2
 418.88 660 429.44 665.28 443.52 686.4 c 1
 454.08 679.36 l 1
 415.36 591.36 l 2
 411.84 584.32 408.32 582.56 390.72 582.56 c 2
 191.84 582.56 l 1
 147.84 498.08 l 1
 337.92 464.64 441.76 399.52 441.76 244.64 c 0
 441.76 42.2402 271.04 -8.7998 163.68 -8.7998 c 0
 88 -8.7998 38.7197 15.8398 38.7197 52.7998 c 0
 38.7197 77.4404 52.7998 89.7598 82.7197 89.7598 c 0
 140.8 89.7598 174.24 28.1602 228.8 28.1602 c 0
 308 28.1602 371.36 102.08 371.36 197.12 c 0
EndSplineSet
Validated: 1
EndChar

StartChar: six
Encoding: 54 54 145
Width: 499
VWidth: 1760
Flags: W
HStem: -10.5596 28.1592<215.577 317.48> 380.16 45.7598<193.736 309.347> 663.52 15.8408<409.805 443.315>
VStem: 35.2002 93.2803<146.112 349.515> 374.88 89.7598<110.446 305.675>
LayerCount: 2
Fore
SplineSet
256.96 -10.5596 m 0
 124.96 -10.5596 35.2002 105.6 35.2002 279.84 c 0
 35.2002 394.24 91.5195 647.68 441.76 679.36 c 1
 445.28 663.52 l 1
 290.4 637.12 179.52 531.52 153.12 381.92 c 1
 214.72 418.88 235.84 425.92 278.08 425.92 c 0
 392.48 425.92 464.64 346.72 464.64 220 c 0
 464.64 82.7197 380.16 -10.5596 256.96 -10.5596 c 0
241.12 380.16 m 0
 144.32 380.16 128.48 332.64 128.48 264 c 0
 128.48 110.88 181.28 17.5996 267.52 17.5996 c 0
 336.16 17.5996 374.88 77.4404 374.88 186.56 c 0
 374.88 309.76 325.6 380.16 241.12 380.16 c 0
EndSplineSet
Validated: 1
EndChar

StartChar: seven
Encoding: 55 55 146
Width: 505
VWidth: 1760
Flags: W
HStem: 594.88 73.9199<99.8243 390.72>
VStem: 190.08 66.8799<-8.7998 58.0801>
LayerCount: 2
Fore
SplineSet
469.92 668.8 m 1
 469.92 652.96 l 1
 256.96 -8.7998 l 1
 190.08 -8.7998 l 1
 390.72 594.88 l 1
 170.72 594.88 l 2
 116.16 594.88 96.7998 580.8 52.7998 512.16 c 1
 36.96 520.96 l 1
 96.7998 668.8 l 1
 469.92 668.8 l 1
EndSplineSet
Validated: 1
EndChar

StartChar: eight
Encoding: 56 56 147
Width: 459
VWidth: 1760
Flags: W
HStem: -12.3203 28.1602<181.686 294.047> 645.92 28.1602<167.799 282.076>
VStem: 35.2002 77.4395<75.9847 229.994> 42.2402 75.6797<472.68 590.94> 332.64 70.4004<453.534 603.527> 346.72 77.4404<73.0412 201.444>
LayerCount: 2
Fore
SplineSet
265.76 362.56 m 1xd8
 388.96 271.04 424.16 239.36 424.16 160.16 c 0
 424.16 54.5596 350.24 -12.3203 228.8 -12.3203 c 0
 112.64 -12.3203 35.2002 56.3203 35.2002 156.64 c 0xe4
 35.2002 225.28 58.0801 239.36 168.96 323.84 c 1
 61.5996 417.12 42.2402 447.04 42.2402 513.92 c 0
 42.2402 605.44 121.44 674.08 232.32 674.08 c 0
 334.4 674.08 403.04 612.48 403.04 529.76 c 0
 403.04 459.36 366.08 417.12 265.76 362.56 c 1xd8
195.36 302.72 m 1
 135.52 255.2 112.64 228.8 112.64 163.68 c 0
 112.64 75.6797 161.92 15.8398 239.36 15.8398 c 0
 306.24 15.8398 346.72 61.5996 346.72 128.48 c 0
 346.72 214.72 293.92 230.56 195.36 302.72 c 1
241.12 381.92 m 1
 269.28 403.04 332.64 440 332.64 529.76 c 0
 332.64 600.16 293.92 645.92 223.52 645.92 c 0
 160.16 645.92 117.92 603.68 117.92 545.6 c 0xd8
 117.92 487.52 149.6 440 241.12 381.92 c 1
EndSplineSet
Validated: 1
EndChar

StartChar: nine
Encoding: 57 57 148
Width: 487
VWidth: 1760
Flags: W
HStem: -3.51953 19.3594<62.7237 94.6665> 246.4 42.2393<186.009 301.749> 644.16 28.1602<184.245 279.346>
VStem: 35.2002 89.7598<361.018 549.912> 357.28 93.2793<318.327 522.697>
LayerCount: 2
Fore
SplineSet
63.3604 -3.51953 m 1
 61.5996 15.8398 l 1
 207.68 40.4805 315.04 144.32 355.52 302.72 c 1
 304.48 262.24 264 246.4 211.2 246.4 c 0
 105.6 246.4 35.2002 325.6 35.2002 443.52 c 0
 35.2002 573.76 121.44 672.32 237.6 672.32 c 0
 362.56 672.32 450.56 557.92 450.56 399.52 c 0
 450.56 292.16 406.56 35.2002 63.3604 -3.51953 c 1
244.64 288.64 m 0
 272.8 288.64 357.28 302.72 357.28 360.8 c 2
 357.28 399.52 l 2
 357.28 561.44 313.28 644.16 228.8 644.16 c 0
 146.08 644.16 124.96 547.36 124.96 476.96 c 0
 124.96 360.8 172.48 288.64 244.64 288.64 c 0
EndSplineSet
Validated: 1
EndChar

StartChar: equal
Encoding: 61 61 151
Width: 850
VWidth: 1760
Flags: W
HStem: 193.6 73.9199<52.7998 797.28> 447.04 75.6797<52.7998 797.28>
LayerCount: 2
Fore
SplineSet
797.28 522.72 m 1
 797.28 447.04 l 1
 52.7998 447.04 l 1
 52.7998 522.72 l 1
 797.28 522.72 l 1
797.28 267.52 m 1
 797.28 193.6 l 1
 52.7998 193.6 l 1
 52.7998 267.52 l 1
 797.28 267.52 l 1
EndSplineSet
Validated: 1
EndChar

StartChar: at
Encoding: 64 64 152
Width: 804
VWidth: 1760
Flags: W
HStem: -29.9199 40.4795<323.727 550.577> 135.52 35.2002<554.783 639.412> 137.28 45.7598<319.44 416.972> 475.2 45.7598<418.149 508.758> 665.28 33.4395<325.959 517.871>
VStem: 35.2002 89.7598<213.015 448.677> 251.68 75.6807<202.335 362.233> 725.12 42.2402<280.046 479.636>
LayerCount: 2
Fore
SplineSet
422.4 665.28 m 0xdf
 241.12 665.28 124.96 510.4 124.96 325.6 c 0
 124.96 142.56 253.44 10.5596 432.96 10.5596 c 0
 503.36 10.5596 557.92 24.6396 640.64 61.5996 c 1
 652.96 29.9199 l 1
 549.12 -15.8398 496.32 -29.9199 422.4 -29.9199 c 0
 204.16 -29.9199 35.2002 126.72 35.2002 329.12 c 0
 35.2002 535.04 207.68 698.72 420.64 698.72 c 0
 616 698.72 767.36 563.2 767.36 388.96 c 0
 767.36 253.44 677.6 135.52 573.76 135.52 c 0xdf
 522.72 135.52 484 167.2 476.96 212.96 c 1
 441.76 165.44 390.72 137.28 344.96 137.28 c 0xbf
 293.92 137.28 251.68 188.32 251.68 255.2 c 0
 251.68 371.36 334.4 520.96 459.36 520.96 c 0
 496.32 520.96 512.16 510.4 535.04 466.4 c 1
 545.6 506.88 l 1
 619.52 506.88 l 1
 549.12 237.6 l 2
 549.12 232.32 547.36 227.04 547.36 220 c 0
 547.36 186.56 561.44 170.72 589.6 170.72 c 0
 658.24 170.72 725.12 272.8 725.12 378.4 c 0
 725.12 536.8 587.84 665.28 422.4 665.28 c 0xdf
517.44 413.6 m 0
 517.44 462.88 491.04 475.2 471.68 475.2 c 0
 422.4 475.2 327.36 397.76 327.36 272.8 c 0
 327.36 216.48 352 183.04 390.72 183.04 c 0xbf
 462.88 183.04 517.44 327.36 517.44 413.6 c 0
EndSplineSet
Validated: 1
EndChar

StartChar: backslash
Encoding: 92 92 153
Width: 380
VWidth: 1760
Flags: W
VStem: 52.7998 302.72
DStem2: 124.96 679.36 52.7998 679.36 0.318414 -0.947952<0 700.551>
LayerCount: 2
Fore
SplineSet
52.7998 679.36 m 1
 124.96 679.36 l 1
 355.52 -7.04004 l 1
 281.6 -7.04004 l 1
 52.7998 679.36 l 1
EndSplineSet
Validated: 1
EndChar

StartChar: asciicircum
Encoding: 94 94 154
Width: 438
VWidth: 1760
Flags: W
HStem: 668.8 63.3604<163.68 276.32>
DStem2: 45.7598 429.44 102.08 429.44 0.443041 0.896502<24.9522 291.782> 244.64 732.16 220 668.8 0.443041 -0.896502<45.8863 312.716>
LayerCount: 2
Fore
SplineSet
102.08 429.44 m 1
 45.7598 429.44 l 1
 195.36 732.16 l 1
 244.64 732.16 l 1
 394.24 429.44 l 1
 337.92 429.44 l 1
 220 668.8 l 1
 102.08 429.44 l 1
EndSplineSet
Validated: 1
EndChar

StartChar: underscore
Encoding: 95 95 155
Width: 737
VWidth: 1758
Flags: W
HStem: 0 42.2402<21.1201 702.24>
LayerCount: 2
Fore
SplineSet
21.1201 42.2402 m 1
 723.36 42.2402 l 1
 702.24 0 l 1
 0 0 l 1
 21.1201 42.2402 l 1
EndSplineSet
Validated: 1
EndChar

StartChar: grave
Encoding: 96 96 156
Width: 295
VWidth: 1760
Flags: W
HStem: 520.96 177.76
VStem: 35.2002 232.319
LayerCount: 2
Fore
SplineSet
267.52 520.96 m 1
 225.28 520.96 l 1
 66.8799 623.04 l 2
 47.5195 635.36 35.2002 649.44 35.2002 667.04 c 0
 35.2002 686.4 49.2803 698.72 70.4004 698.72 c 0
 86.2402 698.72 96.7998 693.44 114.4 675.84 c 2
 267.52 520.96 l 1
EndSplineSet
Validated: 1
EndChar

StartChar: braceleft
Encoding: 123 123 157
Width: 295
VWidth: 1760
Flags: W
HStem: -24.6396 10.5596<244.25 260.48> 742.72 8.7998<247.395 260.48>
VStem: 112.64 66.8799<17.6792 331.841 395.63 710.427>
LayerCount: 2
Fore
SplineSet
260.48 -24.6396 m 5
 165.44 -22.8799 112.64 -5.28027 112.64 102.08 c 2
 112.64 262.24 l 2
 112.64 323.84 96.7998 344.96 35.2002 364.32 c 1
 96.7998 381.92 112.64 403.04 112.64 466.4 c 2
 112.64 626.56 l 2
 112.64 733.92 165.44 749.76 260.48 751.52 c 1
 260.48 742.72 l 1
 198.88 725.12 179.52 698.72 179.52 631.84 c 2
 179.52 480.48 l 2
 179.52 404.8 161.92 381.92 95.04 362.56 c 1
 161.92 346.72 179.52 322.08 179.52 248.16 c 2
 179.52 96.7998 l 2
 179.52 29.9199 198.88 1.75977 260.48 -14.0801 c 1
 260.48 -24.6396 l 5
EndSplineSet
Validated: 1
EndChar

StartChar: braceright
Encoding: 125 125 158
Width: 293
VWidth: 1760
Flags: W
HStem: -14.0801 8.7998<35.2002 48.2857> 751.52 10.5605<35.2002 51.4302>
VStem: 116.16 66.8799<27.0129 341.809 405.599 719.761>
LayerCount: 2
Fore
SplineSet
35.2002 762.08 m 1
 130.24 760.32 183.04 742.72 183.04 635.36 c 2
 183.04 475.2 l 2
 183.04 413.6 198.88 392.48 260.48 373.12 c 1
 198.88 355.52 183.04 334.4 183.04 271.04 c 2
 183.04 110.88 l 2
 183.04 3.51953 130.24 -12.3203 35.2002 -14.0801 c 1
 35.2002 -5.28027 l 1
 96.7998 12.3203 116.16 38.7197 116.16 105.6 c 2
 116.16 256.96 l 2
 116.16 332.64 133.76 355.52 200.64 374.88 c 1
 133.76 390.72 116.16 415.36 116.16 489.28 c 2
 116.16 640.64 l 2
 116.16 707.52 96.7998 735.68 35.2002 751.52 c 1
 35.2002 762.08 l 1
EndSplineSet
Validated: 1
EndChar

StartChar: asciitilde
Encoding: 126 126 159
Width: 536
VWidth: 1760
Flags: W
HStem: 274.56 63.3604<293.676 424.154> 339.68 61.6006<113.169 241.083>
LayerCount: 2
Fore
SplineSet
160.16 401.28 m 0
 255.2 401.28 295.68 337.92 371.36 337.92 c 0
 403.04 337.92 420.64 348.48 445.28 385.44 c 1
 499.84 355.52 l 1
 454.08 293.92 422.4 274.56 376.64 274.56 c 0
 281.6 274.56 239.36 339.68 165.44 339.68 c 0
 133.76 339.68 116.16 327.36 91.5195 290.4 c 1
 36.96 320.32 l 1
 82.7197 381.92 114.4 401.28 160.16 401.28 c 0
EndSplineSet
Validated: 1
EndChar

StartChar: bar
Encoding: 124 124 160
Width: 133
VWidth: 1760
Flags: W
VStem: 36.96 58.0801<0 672.32>
LayerCount: 2
Fore
SplineSet
95.04 672.32 m 1
 95.04 0 l 1
 36.96 0 l 1
 36.96 672.32 l 1
 95.04 672.32 l 1
EndSplineSet
Validated: 1
EndChar

StartChar: currency
Encoding: 164 164 161
Width: 559
VWidth: 1760
Flags: W
HStem: 142.56 56.3203<208.111 349.624> 469.92 58.0801<208.265 350.707>
VStem: 86.2402 61.5996<260.838 408.738> 410.08 61.5996<261.496 408.839>
DStem2: 79.2002 579.04 35.2002 536.8 0.707107 -0.707107<0 127.036 500.284 627.232> 123.2 221.76 165.44 179.52 0.708505 0.705705<-123.085 4.5321 377.784 505.27>
LayerCount: 2
Fore
SplineSet
35.2002 135.52 m 1
 123.2 221.76 l 1
 96.7998 260.48 86.2402 292.16 86.2402 334.4 c 0
 86.2402 378.4 96.7998 411.84 123.2 448.8 c 1
 35.2002 536.8 l 1
 79.2002 579.04 l 1
 165.44 492.8 l 1
 205.92 519.2 235.84 528 279.84 528 c 0
 322.08 528 357.28 517.44 392.48 492.8 c 1
 480.48 579.04 l 1
 522.72 536.8 l 1
 436.48 448.8 l 1
 462.88 410.08 471.68 380.16 471.68 336.16 c 0
 471.68 292.16 462.88 262.24 436.48 221.76 c 1
 522.72 135.52 l 1
 480.48 91.5195 l 1
 392.48 179.52 l 1
 357.28 153.12 322.08 142.56 279.84 142.56 c 0
 239.36 142.56 204.16 153.12 165.44 179.52 c 1
 79.2002 91.5195 l 1
 35.2002 135.52 l 1
281.6 469.92 m 0
 205.92 469.92 147.84 410.08 147.84 334.4 c 0
 147.84 260.48 205.92 198.88 279.84 198.88 c 0
 352 198.88 410.08 260.48 410.08 336.16 c 0
 410.08 410.08 352 469.92 281.6 469.92 c 0
EndSplineSet
Validated: 1
EndChar

StartChar: brokenbar
Encoding: 166 166 162
Width: 135
VWidth: 1760
Flags: W
VStem: 35.2002 65.1201<0 272.8 392.48 663.52>
LayerCount: 2
Fore
SplineSet
35.2002 0 m 1
 35.2002 272.8 l 1
 100.32 272.8 l 1
 100.32 0 l 1
 35.2002 0 l 1
35.2002 392.48 m 1
 35.2002 663.52 l 1
 100.32 663.52 l 1
 100.32 392.48 l 1
 35.2002 392.48 l 1
EndSplineSet
Validated: 1
EndChar

StartChar: section
Encoding: 167 167 163
Width: 369
VWidth: 1760
Flags: W
HStem: -12.3203 19.3604<138.266 221.333> 218.24 19.3594<221.899 264.111> 425.92 17.5996<106.854 151.537> 654.72 17.6006<148.577 223.635>
VStem: 35.2002 44<318.724 408.898> 63.3604 56.3193<23.8422 93.6186 538.428 625.166> 239.36 54.5596<570.096 640> 253.44 47.5195<30.7823 121.878> 290.4 44<253.805 342.494>
LayerCount: 2
Fore
SplineSet
211.2 580.8 m 0xfa
 211.2 608.96 239.36 619.52 239.36 628.32 c 0xfa
 239.36 642.4 214.72 654.72 186.56 654.72 c 0
 144.32 654.72 116.16 630.08 116.16 594.88 c 0
 116.16 573.76 126.72 549.12 144.32 535.04 c 2
 258.72 440 l 2
 308 399.52 334.4 364.32 334.4 320.32 c 0xf080
 334.4 260.48 293.92 218.24 235.84 218.24 c 0
 230.56 218.24 227.04 218.24 221.76 218.24 c 1
 285.12 163.68 300.96 139.04 300.96 96.7998 c 0
 300.96 31.6797 253.44 -12.3203 179.52 -12.3203 c 0
 114.4 -12.3203 63.3604 26.4004 63.3604 73.9199 c 0
 63.3604 100.32 82.7197 119.68 109.12 119.68 c 0
 132 119.68 149.6 103.84 149.6 82.7197 c 0
 149.6 58.0801 119.68 45.7598 119.68 36.96 c 0
 119.68 21.1201 149.6 7.04004 179.52 7.04004 c 0
 225.28 7.04004 253.44 31.6797 253.44 72.1602 c 0xf5
 253.44 170.72 35.2002 197.12 35.2002 344.96 c 0
 35.2002 401.28 75.6797 443.52 132 443.52 c 0
 137.28 443.52 144.32 443.52 153.12 443.52 c 1
 84.4805 499.84 68.6396 524.48 68.6396 570.24 c 0
 68.6396 630.08 116.16 672.32 184.8 672.32 c 0
 246.4 672.32 293.92 637.12 293.92 589.6 c 0
 293.92 561.44 276.32 545.6 249.92 545.6 c 0
 227.04 545.6 211.2 559.68 211.2 580.8 c 0xfa
290.4 292.16 m 0xf880
 290.4 355.52 172.48 425.92 137.28 425.92 c 0
 103.84 425.92 79.2002 403.04 79.2002 369.6 c 0
 79.2002 311.52 179.52 237.6 232.32 237.6 c 0
 264 237.6 290.4 262.24 290.4 292.16 c 0xf880
EndSplineSet
Validated: 1
EndChar

StartChar: logicalnot
Encoding: 172 172 164
Width: 658
VWidth: 1760
Flags: W
HStem: 320.32 61.5996<35.2002 545.6>
VStem: 545.6 77.4404<123.2 320.32>
LayerCount: 2
Fore
SplineSet
545.6 123.2 m 1
 545.6 320.32 l 1
 35.2002 320.32 l 1
 35.2002 381.92 l 1
 623.04 381.92 l 1
 623.04 123.2 l 1
 545.6 123.2 l 1
EndSplineSet
Validated: 1
EndChar

StartChar: macron
Encoding: 175 175 165
Width: 455
VWidth: 1760
Flags: W
HStem: 594.88 66.8799<36.96 418.88>
LayerCount: 2
Fore
SplineSet
36.96 661.76 m 1
 418.88 661.76 l 1
 418.88 594.88 l 1
 36.96 594.88 l 1
 36.96 661.76 l 1
EndSplineSet
Validated: 1
EndChar

StartChar: degree
Encoding: 176 176 166
Width: 367
VWidth: 1760
Flags: W
HStem: 376.64 35.2002<129.514 241.762> 638.88 35.2002<129.909 240.053>
VStem: 36.96 40.4805<461.021 590.991> 293.92 40.4805<462.689 589.549>
LayerCount: 2
Fore
SplineSet
184.8 674.08 m 0
 267.52 674.08 334.4 608.96 334.4 524.48 c 0
 334.4 441.76 267.52 376.64 183.04 376.64 c 0
 102.08 376.64 36.96 443.52 36.96 526.24 c 0
 36.96 608.96 102.08 674.08 184.8 674.08 c 0
184.8 638.88 m 0
 126.72 638.88 77.4404 587.84 77.4404 526.24 c 0
 77.4404 464.64 126.72 411.84 184.8 411.84 c 0
 244.64 411.84 293.92 462.88 293.92 526.24 c 0
 293.92 587.84 242.88 638.88 184.8 638.88 c 0
EndSplineSet
Validated: 1
EndChar

StartChar: paragraph
Encoding: 182 182 167
Width: 473
VWidth: 1760
Flags: W
HStem: -15.8398 15.8398<126.72 173.908 397.023 440> 350.24 17.5996<166.994 202.4> 663.52 17.6006<161.356 202.4 258.72 308 388.111 440>
VStem: 36.96 65.1201<420.887 619.744> 202.4 56.3193<11.7911 350.24 367.84 663.52> 308 56.3203<12.5239 653.948>
LayerCount: 2
Fore
SplineSet
202.4 350.24 m 1
 103.84 352 36.96 392.48 36.96 522.72 c 0
 36.96 635.36 89.7598 681.12 214.72 681.12 c 2
 440 681.12 l 1
 440 665.28 l 1
 373.12 660 364.32 649.44 364.32 587.84 c 2
 364.32 80.96 l 2
 364.32 19.3604 374.88 5.28027 440 0 c 1
 440 -15.8398 l 1
 308 -15.8398 l 1
 308 663.52 l 1
 258.72 663.52 l 1
 258.72 -15.8398 l 1
 126.72 -15.8398 l 1
 126.72 0 l 1
 193.6 3.51953 202.4 17.5996 202.4 89.7598 c 2
 202.4 350.24 l 1
202.4 663.52 m 1
 139.04 658.24 102.08 638.88 102.08 526.24 c 0
 102.08 418.88 128.48 376.64 202.4 367.84 c 1
 202.4 663.52 l 1
EndSplineSet
Validated: 1
EndChar

StartChar: uniEE59
Encoding: 61017 61017 168
Width: 0
VWidth: 0
Flags: W
HStem: 312 56<-403.324 -277.611>
VStem: -282 50<364.734 444.457>
AnchorPoint: "Tonal" -193.6 266.64 mark 0
LayerCount: 2
Fore
SplineSet
-180 290 m 0
 -180 278 -185 269 -201 269 c 0
 -211 269 -218 273 -229 276 c 8
 -252 283 -264 289 -285 296 c 25
 -304 301 -313 312 -333 312 c 24
 -356 312 -364 289 -389 289 c 24
 -407 289 -417 299 -429 312 c 16
 -435 317 -442 326 -442 333 c 0
 -442 334 -440 336 -438 338 c 8
 -412 359 -391 368 -356 368 c 0
 -331 368 -320 350 -282 350 c 0
 -273 350 -271 354 -271 361 c 0
 -271 377 -282 401 -282 419 c 0
 -282 433 -275 445 -253 445 c 0
 -245 445 -238 442 -232 433 c 8
 -215 407 -229 375 -201 356 c 1
 -176 380 -134 422 -79 438 c 9
 -62 428 -42 429 -32 410 c 16
 -25 398 -21 387 -21 375 c 0
 -21 366 -25 357 -28 347 c 1
 -31 341 -36 339 -42 339 c 0
 -49 339 -57 342 -63 345 c 8
 -77 350 -76 366 -88 373 c 24
 -97 378 -106 377 -114 371 c 24
 -141 356 -158 348 -178 324 c 16
 -180 320 -181 315 -181 310 c 0
 -181 304 -180 297 -180 290 c 0
EndSplineSet
Validated: 1
EndChar

StartChar: uniEE5B
Encoding: 61019 61019 169
Width: 0
VWidth: 0
Flags: W
HStem: 156.64 72.16<-77.2777 -23.8357> 248.16 66.88<-161.773 -113.327>
VStem: -168.96 63.36<255.574 308.636> -84.4805 66.8809<161.95 221.762>
AnchorPoint: "Right" -116.16 218.24 mark 0
LayerCount: 2
Fore
SplineSet
-56.3203 156.64 m 0
 -70.4004 156.64 -84.4805 174.24 -84.4805 186.56 c 0
 -84.4805 205.92 -63.3604 228.8 -42.2402 228.8 c 0
 -28.1602 228.8 -17.5996 214.72 -17.5996 200.64 c 0
 -17.5996 177.76 -36.96 156.64 -56.3203 156.64 c 0
-168.96 281.6 m 0
 -168.96 297.44 -160.16 315.04 -144.32 315.04 c 0
 -126.72 315.04 -105.6 290.4 -105.6 271.04 c 0
 -105.6 260.48 -114.4 248.16 -128.48 248.16 c 0
 -142.56 248.16 -153.12 260.48 -160.16 267.52 c 0
 -163.68 272.8 -168.96 276.32 -168.96 281.6 c 0
EndSplineSet
Validated: 1
EndChar

StartChar: uniEE8C
Encoding: 61068 61068 170
Width: 750
VWidth: 0
Flags: W
HStem: 110.56 56.32<446.322 655.022> 129.92 66.88<622.125 722.039> 260.16 52.8<521.574 648.95> 267.2 52.8<79.8297 232.971> 427.36 63.36<99.6128 290.754>
LayerCount: 2
Fore
SplineSet
34.04 232 m 0x98
 21.7197 232 19.96 237.28 19.96 240.8 c 0
 19.96 253.12 23.4805 260.16 32.2803 265.44 c 0
 65.7197 293.6 107.96 320 166.04 320 c 2
 187.16 320 l 2
 291 320 354.36 240.8 403.64 210.88 c 0
 461.72 173.92 507.48 166.88 576.12 166.88 c 18
 583.16 166.88 l 2x98
 625.4 166.88 650.04 196.8 697.56 196.8 c 0
 715.16 196.8 729.24 189.76 729.24 172.16 c 0
 729.24 147.52 706.36 138.72 685.24 129.92 c 16x48
 655.32 117.6 620.12 110.56 581.4 110.56 c 0
 563.8 110.56 509.24 115.84 491.64 119.36 c 0
 414.2 135.2 398.36 149.28 364.92 166.88 c 0
 327.96 186.24 306.84 200.32 269.88 223.2 c 24
 250.52 235.52 241.72 244.32 220.6 253.12 c 1
 190.68 261.92 159 267.2 134.36 267.2 c 0
 116.76 267.2 86.8398 258.4 63.96 244.32 c 0
 53.4004 237.28 46.3604 233.76 34.04 232 c 0x98
699.32 316.48 m 0
 699.32 279.52 634.2 260.16 599 260.16 c 0
 546.2 260.16 512.76 267.2 468.76 291.84 c 0
 403.64 330.56 356.12 369.28 306.84 397.44 c 0
 268.12 418.56 250.52 427.36 213.56 427.36 c 0
 194.2 427.36 173.08 427.36 153.72 422.08 c 1
 132.6 418.56 123.8 415.04 102.68 415.04 c 0
 83.3203 415.04 65.7197 418.56 65.7197 437.92 c 0
 65.7197 448.48 74.5195 457.28 83.3203 462.56 c 0
 116.76 481.92 143.16 490.72 180.12 490.72 c 0
 250.52 490.72 292.76 476.64 350.84 446.72 c 0
 431.8 406.24 502.2 332.32 563.8 316.48 c 1
 569.08 312.96 588.44 312.96 593.72 312.96 c 0x28
 625.4 312.96 637.72 339.36 674.68 339.36 c 0
 688.76 339.36 699.32 328.8 699.32 316.48 c 0
EndSplineSet
Validated: 1
EndChar

StartChar: A
Encoding: 65 65 171
Width: 721
Flags: W
HStem: 0 19<15 52.5415 162.049 213 451 507.837 666.414 706> 216 41<216 447>
DStem2: 139 183 153 99 0.390068 0.920786<-110.396 53.79 98.1734 396.247> 367 674 331 532 0.401495 -0.915861<115.598 414.034 506.233 629.969>
LayerCount: 2
Fore
SplineSet
706 19 m 1
 706 0 l 1
 451 0 l 1
 451 19 l 1
 504 20 521 28 521 53 c 0
 521 67 514 93 502 120 c 2
 461 216 l 1
 199 216 l 1
 153 99 l 2
 148 86 145 72 145 60 c 0
 145 32 165 19 213 19 c 1
 213 0 l 1
 15 0 l 1
 15 19 l 1
 63 21 77 36 139 183 c 2
 347 674 l 1
 367 674 l 1
 616 106 l 2
 648.866 31.0283 661 22 706 19 c 1
216 257 m 1
 447 257 l 1
 331 532 l 1
 216 257 l 1
EndSplineSet
Validated: 1
EndChar

StartChar: B
Encoding: 66 66 172
Width: 631
Flags: W
HStem: 0 37<217.251 398.861> 0 19<15 80.0084> 326 40<213 390.03> 625 37<214.015 376.733> 643 19<15 76.5513>
VStem: 111 102<42.6316 326 366 623.875> 455 102<415.383 565.388> 476 115<99.5121 258.795>
LayerCount: 2
Fore
SplineSet
591 180 m 0x35
 591 108 543 0 349 0 c 2xb5
 15 0 l 1
 15 19 l 1
 98 22 111 35 111 109 c 2
 111 553 l 2
 111 627 99 638 15 643 c 1
 15 662 l 1x6d
 295 662 l 2
 468 662 557 604 557 492 c 0x36
 557 377 455 357 420 348 c 1
 460 338 591 310 591 180 c 0x35
276 37 m 0
 385 37 476 61 476 179 c 0
 476 320.845 346.798 326 213 326 c 1
 213 78 l 2
 213 46 227 37 276 37 c 0
213 366 m 1
 308 366 l 2
 402 366 455 410 455 488 c 0x36
 455 577 394 625 279 625 c 2
 235 625 l 2
 220 625 213 616 213 595 c 2
 213 366 l 1
EndSplineSet
Validated: 1
EndChar

StartChar: C
Encoding: 67 67 173
Width: 670
Flags: W
HStem: -14 44<296.776 492.499> 636 40<294.935 481.812>
VStem: 35 116<193.989 453.295> 597 21<656.986 676> 604 23<450 480.914>
LayerCount: 2
Fore
SplineSet
35 325 m 0xe8
 35 536 183 676 370 676 c 0
 479 676 519 643 555 643 c 0
 575 643 591 655 597 676 c 1
 618 676 l 1xf0
 627 450 l 1
 604 450 l 1
 576 545 518 636 389 636 c 0
 244 636 151 519 151 338 c 0
 151 94 287 30 399 30 c 0
 482 30 548 60 622 131 c 1
 640 113 l 1
 579 32 480 -14 367 -14 c 0
 171 -14 35 120 35 325 c 0xe8
EndSplineSet
Validated: 1
EndChar

StartChar: D
Encoding: 68 68 174
Width: 719
Flags: W
HStem: 0 37<208.591 391.974> 0 19<15 70.9777> 625 37<208.033 380.667> 643 19<15 70.4163>
VStem: 103 102<41.3888 621.94> 575 109<210.722 451.324>
LayerCount: 2
Fore
SplineSet
684 334 m 0x2c
 684 196 607 0 299 0 c 2xac
 15 0 l 1
 15 19 l 1
 91 24 103 37 103 109 c 2
 103 553 l 2
 103 627 94 636 15 643 c 1
 15 662 l 1x5c
 285 662 l 2
 602 662 684 479 684 334 c 0x2c
575 327 m 0
 575 461 511 625 257 625 c 0
 216 625 205 617 205 586 c 2
 205 78 l 2
 205 46 217 37 257 37 c 0
 445 37 575 110 575 327 c 0
EndSplineSet
Validated: 1
EndChar

StartChar: E
Encoding: 69 69 175
Width: 610
Flags: W
HStem: 0 37<207.53 471.625> 0 19<15 67.5256> 327 41<204 440.315> 624 38<205.018 484> 643 19<15 67.9688>
VStem: 102 102<42.2158 327 368 623.195> 468 23<231 281.016 413.792 463> 524 25<519 565.063>
LayerCount: 2
Fore
SplineSet
204 80 m 2x37
 204 42 211 37 309 37 c 2
 336 37 l 2xb7
 479 37 522 61 572 169 c 1
 600 169 l 1
 555 0 l 1
 15 0 l 1
 15 19 l 1
 88 24 102 39 102 109 c 2
 102 553 l 2
 102 623 89 637 15 643 c 1
 15 662 l 1
 546 662 l 1x6f
 549 519 l 1
 524 519 l 1
 507 609 485 624 372 624 c 2
 237 624 l 2
 210 624 204 618 204 590 c 2
 204 368 l 1
 358 368 l 2
 451 368 457 397 468 463 c 1
 491 463 l 1
 491 231 l 1
 468 231 l 1
 455 314 440 327 358 327 c 2
 204 327 l 1
 204 80 l 2x37
EndSplineSet
Validated: 1
EndChar

StartChar: F
Encoding: 70 70 176
Width: 564
Flags: W
HStem: 0 19<15 68.855 237.821 295> 327 41<204 431.338> 624 38<204.896 484> 643 19<15 67.9688>
VStem: 102 102<36.1617 327 368 623.195> 459 23<231 280.172 414.406 463> 524 25<519 565.063>
LayerCount: 2
Fore
SplineSet
482 231 m 1xee
 459 231 l 1
 447 312 430 327 349 327 c 2
 204 327 l 1
 204 119 l 2
 204 37.5 218 23 295 19 c 1
 295 0 l 1
 15 0 l 1
 15 19 l 1
 91 24 102 37 102 120 c 2
 102 553 l 2
 102 623 89 637 15 643 c 1
 15 662 l 1
 546 662 l 1xde
 549 519 l 1
 524 519 l 1
 507 609 485 624 372 624 c 2
 236 624 l 2
 209 624 204 618 204 590 c 2
 204 368 l 1
 349 368 l 2
 429 368 447 383 459 463 c 1
 482 463 l 1
 482 231 l 1xee
EndSplineSet
Validated: 1
EndChar

StartChar: G
Encoding: 71 71 177
Width: 722
Flags: W
HStem: -14 40<307.947 508.374> 336 18<457 513.467 668.563 712> 636 40<298.195 487.162>
VStem: 35 114<193.446 451.076> 545 97<54.3595 322.547> 603 22<657.871 676> 610 23<465 488.168>
LayerCount: 2
Fore
SplineSet
395 636 m 0xf2
 198 636 149 449 149 326 c 0
 149 140 249 26 412 26 c 0
 484 26 545 53 545 85 c 2
 545 247 l 2
 545 324 530 331 457 336 c 1
 457 354 l 1
 712 354 l 1
 712 336 l 1
 654 331 642 318 642 259 c 2
 642 56 l 1xf8
 602 21 477 -14 391 -14 c 0
 255 -14 35 54 35 325 c 0
 35 529 178 676 378 676 c 0
 478 676 523 643 558 643 c 0
 579 643 597 657 603 676 c 1
 625 676 l 1xf4
 633 465 l 1
 610 465 l 1
 576 547 525 636 395 636 c 0xf2
EndSplineSet
Validated: 1
EndChar

StartChar: H
Encoding: 72 72 178
Width: 714
Flags: W
HStem: 0 19<15 71.8664 239.356 293 420 476.866 644.356 698> 315 44<205 508> 643 19<15 69.53 238.47 293 420 474.53 643.47 698>
VStem: 103 102<35.1653 315 359 627.725> 508 102<35.1653 315 359 627.725>
LayerCount: 2
Fore
SplineSet
205 359 m 1
 508 359 l 1
 508 553 l 2
 508 625 497 636 420 643 c 1
 420 662 l 1
 698 662 l 1
 698 643 l 1
 621 636 610 625 610 553 c 2
 610 109 l 2
 610 38 623 25 698 19 c 1
 698 0 l 1
 420 0 l 1
 420 19 l 1
 498 24 508 36 508 120 c 2
 508 315 l 1
 205 315 l 1
 205 109 l 2
 205 38 218 25 293 19 c 1
 293 0 l 1
 15 0 l 1
 15 19 l 1
 93 24 103 36 103 120 c 2
 103 553 l 2
 103 625 92 636 15 643 c 1
 15 662 l 1
 293 662 l 1
 293 643 l 1
 216 636 205 625 205 553 c 2
 205 359 l 1
EndSplineSet
Validated: 1
EndChar

StartChar: I
Encoding: 73 73 179
Width: 327
Flags: W
HStem: 0 19<15 80.7454 248.803 312> 643 19<15 77.248 247.915 312>
VStem: 112 102<35.4136 627.204>
LayerCount: 2
Fore
SplineSet
112 109 m 2
 112 553 l 2
 112 627 100 638 15 643 c 1
 15 662 l 1
 312 662 l 1
 312 643 l 1
 228 639 214 626 214 553 c 2
 214 109 l 2
 214 36 230 22 312 19 c 1
 312 0 l 1
 15 0 l 1
 15 19 l 1
 99 22 112 34 112 109 c 2
EndSplineSet
Validated: 1
EndChar

StartChar: J
Encoding: 74 74 180
Width: 385
Flags: W
HStem: -14 38<80 166.292> 643 19<83 140.905 312.77 370>
VStem: 176 102<73.6536 627.481>
LayerCount: 2
Fore
SplineSet
59 108 m 0
 120 108 102 24 138 24 c 0
 164 24 176 45 176 90 c 2
 176 553 l 2
 176 626 165 637 83 643 c 1
 83 662 l 1
 370 662 l 1
 370 643 l 1
 289 637 278 626 278 553 c 2
 278 183 l 2
 278 58 217 -14 109 -14 c 0
 51 -14 10 16 10 58 c 0
 10 85 32 108 59 108 c 0
EndSplineSet
Validated: 1
EndChar

StartChar: K
Encoding: 75 75 181
Width: 709
Flags: W
HStem: 0 19<15 70.8801 239.629 297 399 459.139 655.467 704> 643 19<15 70.437 241.77 299 394 452.25 595.689 656>
VStem: 105 102<35.3481 296 348 626.835>
DStem2: 207 348 314 377 0.710838 0.703356<96.457 366.208> 314 377 233 317 0.681797 -0.731542<0 349.87>
LayerCount: 2
Fore
SplineSet
394 643 m 1
 394 662 l 1
 656 662 l 1
 656 643 l 1
 588 638 571 631 504 565 c 2
 314 377 l 1
 547 127 l 2
 638 30 652 20 704 19 c 1
 704 0 l 1
 399 0 l 1
 399 19 l 1
 425.808 21.2344 469 21 469 42 c 0
 469 66 415 137 339 212 c 2
 233 317 l 1
 207 296 l 1
 207 109 l 2
 207 36 219 24 297 19 c 1
 297 0 l 1
 15 0 l 1
 15 19 l 1
 94 24 105 37 105 120 c 2
 105 553 l 2
 105 624 93 637 15 643 c 1
 15 662 l 1
 299 662 l 1
 299 643 l 1
 218 637 207 626 207 553 c 2
 207 348 l 1
 384 509 l 2
 439 560 462 590 462 612 c 0
 462 632 450 640 420 642 c 0
 416 642 406 642 394 643 c 1
EndSplineSet
Validated: 1
EndChar

StartChar: L
Encoding: 76 76 182
Width: 611
Flags: W
HStem: 0 39<207.633 472.094> 0 19<15 67.5256> 643 19<15 67.9688 240.424 297>
VStem: 102 102<44.9387 626.194>
LayerCount: 2
Fore
SplineSet
357 39 m 2xb0
 532 39 556 128 576 174 c 1
 601 174 l 1
 553 0 l 1
 15 0 l 1
 15 19 l 1x70
 88 24 102 39 102 109 c 2
 102 553 l 2
 102 623 89 637 15 643 c 1
 15 662 l 1
 297 662 l 1
 297 643 l 1
 218 638 204 624 204 553 c 2
 204 80 l 2
 204 45 217 39 290 39 c 2
 357 39 l 2xb0
EndSplineSet
Validated: 1
EndChar

StartChar: M
Encoding: 77 77 183
Width: 881
Flags: W
HStem: 0 19<15 67.5662 198.313 250 586 642.112 813.474 866> 643 19<17 77.4103 813.031 866>
VStem: 112 44<43.3196 550> 677 102<35.3481 571.481>
DStem2: 215 662 156 550 0.415173 -0.909742<77.3959 555.325> 446 157 421 0 0.407912 0.913021<0 474.044>
LayerCount: 2
Fore
SplineSet
677 573 m 1
 421 0 l 1
 407 0 l 1
 156 550 l 1
 156 147 l 2
 156 46 173 23 250 19 c 1
 250 0 l 1
 15 0 l 1
 15 19 l 1
 98 25 112 44 112 147 c 2
 112 553 l 2
 112 626 99 638 17 643 c 1
 17 662 l 1
 215 662 l 1
 446 157 l 1
 667 662 l 1
 866 662 l 1
 866 643 l 1
 792 637 779 624 779 553 c 2
 779 109 l 2
 779 38 793 24 866 19 c 1
 866 0 l 1
 586 0 l 1
 586 19 l 1
 665 24 677 37 677 120 c 2
 677 573 l 1
EndSplineSet
Validated: 1
EndChar

StartChar: N
Encoding: 78 78 184
Width: 725
Flags: W
HStem: 0 19<15 67.5662 198.313 250> 643 19<15 63.3229 475 524.813 660.936 710>
VStem: 112 44<43.3196 539> 571 44<178 617.342>
DStem2: 186 662 112 588 0.630056 -0.77655<0 10.8406 76.614 618.422>
LayerCount: 2
Fore
SplineSet
710 643 m 1
 649 637 615 632 615 515 c 2
 615 -11 l 1
 598 -11 l 1
 156 539 l 1
 156 147 l 2
 156 46 173 23 250 19 c 1
 250 0 l 1
 15 0 l 1
 15 19 l 1
 98 25 112 44 112 147 c 2
 112 588 l 1
 72 635 58 643 15 643 c 1
 15 662 l 1
 186 662 l 1
 571 178 l 1
 571 515 l 2
 571 619 552 637 475 643 c 1
 475 662 l 1
 710 662 l 1
 710 643 l 1
EndSplineSet
Validated: 1
EndChar

StartChar: O
Encoding: 79 79 185
Width: 724
Flags: W
HStem: -14 36<280.995 443.651> 640 36<284.688 440.102>
VStem: 35 114<204.381 462.197> 575 114<197.101 459.705>
LayerCount: 2
Fore
SplineSet
356 -14 m 0
 181 -14 35 121 35 331 c 0
 35 532 171 676 362 676 c 0
 552 676 689 536 689 327 c 0
 689 126 553 -14 356 -14 c 0
575 328 m 0
 575 577 450 640 362 640 c 0
 190 640 149 453 149 329 c 0
 149 208 191 22 360 22 c 0
 532 22 575 208 575 328 c 0
EndSplineSet
Validated: 1
EndChar

StartChar: P
Encoding: 80 80 186
Width: 576
Flags: W
HStem: 0 19<15 66.2779 234.228 295> 288 40<201 358.189> 625 37<202.321 348.788> 643 19<15 65.3973>
VStem: 99 102<34.7922 291 329.292 624.252> 432 109<392.908 557.55>
LayerCount: 2
Fore
SplineSet
541 481 m 0xec
 541 404 500 288 270 288 c 0
 244 288 227 289 201 291 c 1
 201 109 l 2
 201 36 216 22 295 19 c 1
 295 0 l 1
 15 0 l 1
 15 19 l 1
 91 26 99 36 99 120 c 2
 99 553 l 2
 99 625 89 635 15 643 c 1
 15 662 l 1xdc
 279 662 l 2
 387 662 541 626 541 481 c 0xec
201 591 m 2
 201 331 l 1
 224 329 238 328 258 328 c 0
 373 328 432 378 432 475 c 0
 432 578 370 625 235 625 c 0xec
 208 625 201 618 201 591 c 2
EndSplineSet
Validated: 1
EndChar

StartChar: Q
Encoding: 81 81 187
Width: 723
Flags: W
HStem: -178 19<636.886 702> 640 36<282.867 440.154>
VStem: 35 114<198.338 460.137> 575 114<199.468 460.837>
LayerCount: 2
Fore
SplineSet
689 331 m 0
 689 61 481 3 427 -7 c 1
 508 -112 588 -156 702 -159 c 1
 702 -177 l 1
 686.25 -178 678 -178 661 -178 c 0
 398 -178 322 -65 266 -1 c 1
 151 38 35 131 35 329 c 0
 35 532 171 676 362 676 c 0
 553 676 689 532 689 331 c 0
575 333 m 0
 575 520 491 640 365 640 c 0
 192 640 149 456 149 335 c 0
 149 87 271 22 362 22 c 0
 532 22 575 207 575 333 c 0
EndSplineSet
Validated: 1
EndChar

StartChar: R
Encoding: 82 82 188
Width: 667
Flags: W
HStem: 0 19<15 67.948 235.073 292 615.2 657> 308 35<202 258> 625 37<204.666 361.399> 643 19<15 66.0497>
VStem: 100 102<34.6779 306 343 621.625> 436 109<408.233 567.423>
DStem2: 364 319 258 308 0.611448 -0.791285<0 333.131>
LayerCount: 2
Fore
SplineSet
291 662 m 2xec
 389 662 545 636 545 486 c 0
 545 348 405 327 364 319 c 1
 570 66 l 2
 599 32 619 22 657 19 c 1
 657 0 l 1
 496 0 l 1
 258 308 l 1
 202 306 l 1
 202 109 l 2
 202 37 215 24 292 19 c 1
 292 0 l 1
 15 0 l 1
 15 19 l 1
 90 25 100 37 100 120 c 2
 100 553 l 2
 100 624 90 635 15 643 c 1
 15 662 l 1xdc
 291 662 l 2xec
202 343 m 1
 350 346 436 371 436 488 c 0
 436 582 378 625 253 625 c 0xec
 213 625 202 617 202 589 c 2
 202 343 l 1
EndSplineSet
Validated: 1
EndChar

StartChar: S
Encoding: 83 83 189
Width: 529
Flags: W
HStem: 20 2<110 255> 635 41<181.969 327.205>
VStem: 59 86<484.127 588.923> 60 22<-13 12.7146> 378 101<84.0294 202.661>
LayerCount: 2
Fore
SplineSet
378 135 m 0xd8
 378 306 59 300 59 505 c 0
 59 611 143 676 232 676 c 0
 306 676 351 642 382 642 c 0
 399 642 410 653 414 676 c 1
 435 676 l 1
 457 463 l 1
 432 463 l 1
 398 587 322 635 249 635 c 0
 187 635 145 597 145 542 c 0xe8
 145 488 187 444 292 386 c 0
 424 315 479 250 479 168 c 0
 479 65 390 -14 275 -14 c 0
 188 -14 147 20 110 20 c 0
 95 20 83 6 82 -13 c 1
 60 -13 l 1
 30 199 l 1
 53 199 l 1
 103 77 166 22 255 22 c 0
 328 22 378 68 378 135 c 0xd8
EndSplineSet
Validated: 1
EndChar

StartChar: T
Encoding: 84 84 190
Width: 606
Flags: W
HStem: 0 19<158 218.602 387.35 450> 620 42<89.8973 252 354 517.247>
VStem: 15 24<492 536.773> 252 102<34.7261 620> 567 24<492 537.107>
CounterMasks: 1 38
LayerCount: 2
Fore
SplineSet
252 620 m 1
 198 620 l 2
 86 620 63 601 39 492 c 1
 15 492 l 1
 21 662 l 1
 585 662 l 1
 591 492 l 1
 567 492 l 1
 544 602 522 620 408 620 c 2
 354 620 l 1
 354 109 l 2
 354 36 368 23 450 19 c 1
 450 0 l 1
 158 0 l 1
 158 19 l 1
 241 24 252 35 252 120 c 2
 252 620 l 1
EndSplineSet
Validated: 1
EndChar

StartChar: U
Encoding: 85 85 191
Width: 721
Flags: W
HStem: -14 44<282.28 479.899> 643 19<15 70.8801 241.445 298 474 523.895 659.133 706>
VStem: 105 102<111.184 626.742> 568 44<117.258 618.268>
LayerCount: 2
Fore
SplineSet
207 233 m 2
 207 111 241 30 379 30 c 0
 454 30 518 61 545 109 c 0
 561 139 568 177 568 245 c 2
 568 515 l 2
 568 615 552 637 474 643 c 1
 474 662 l 1
 706 662 l 1
 706 643 l 1
 624 633 612 617 612 515 c 2
 612 254 l 2
 612 111 570 -14 356 -14 c 0
 186 -14 105 68 105 241 c 2
 105 553 l 2
 105 626 94 637 15 643 c 1
 15 662 l 1
 298 662 l 1
 298 643 l 1
 218 636 207 625 207 553 c 2
 207 233 l 2
EndSplineSet
Validated: 1
EndChar

StartChar: V
Encoding: 86 86 192
Width: 701
Flags: W
HStem: 643 19<10 52.9824 215.001 276 486 538.532 650.599 691>
DStem2: 242 499 116 538 0.408913 -0.912574<-117.411 370.196> 393 161 377 -11 0.367959 0.929842<0 469.505>
LayerCount: 2
Fore
SplineSet
691 662 m 1
 691 643 l 1
 643 640 631 630 599 550 c 2
 377 -11 l 1
 362 -11 l 1
 116 538 l 2
 76 628 59 641 10 643 c 1
 10 662 l 1
 276 662 l 1
 276 643 l 1
 262 642 251 641 247 641 c 0
 215 639 201 629 201 610 c 0
 201 595 209 572 242 499 c 2
 393 161 l 1
 540 528 l 2
 552 558 559 585 559 601 c 0
 559 629 541 640 486 643 c 1
 486 662 l 1
 691 662 l 1
EndSplineSet
Validated: 1
EndChar

StartChar: W
Encoding: 87 87 193
Width: 947
Flags: W
HStem: 643 19<10 47.9786 202.468 255 318 369.547 525.098 585 739 784.553 901.136 937>
DStem2: 201 565 113 526 0.338223 -0.941066<-46.5191 402.545> 345 189 321 -11 0.3421 0.939664<0 254.018> 535 527 419 553 0.357647 -0.933857<-84.5461 22.6113 85.9347 365.655> 667 186 650 -11 0.345962 0.938249<0 436.287>
LayerCount: 2
Fore
SplineSet
937 662 m 1
 937 643 l 1
 884 633 873 624 854 572 c 0
 745 278 735 250 650 -11 c 1
 635 -11 l 1
 475 412 l 1
 321 -11 l 1
 306 -11 l 1
 113 526 l 2
 79 621 61 638 10 643 c 1
 10 662 l 1
 255 662 l 1
 255 643 l 1
 204 640 190 633 190 611 c 0
 190 600 194 583 201 565 c 2
 345 189 l 1
 452 471 l 1
 419 553 l 2
 387 634 375 642 318 643 c 1
 318 662 l 1
 585 662 l 1
 585 643 l 1
 531 642 508 632 508 608 c 0
 508 591 520 566 535 527 c 2
 667 186 l 1
 792 525 l 2
 802 553 808 579 808 600 c 0
 808 627 790 638 739 643 c 1
 739 662 l 1
 937 662 l 1
EndSplineSet
Validated: 1
EndChar

StartChar: X
Encoding: 88 88 194
Width: 714
Flags: W
HStem: 0 19<10 53.6918 185.539 243 407 463.013 659.668 704> 643 19<22 73.4465 258.197 324 458 515.187 641.75 696>
DStem2: 155 133 219 140 0.631377 0.775476<-53.1281 235.741 349.057 605.629> 333 463 203 486 0.574946 -0.818192<-170.733 72.421 146.058 424.136>
LayerCount: 2
Fore
SplineSet
696 662 m 1
 696 643 l 1
 632 639 611 628 547 549 c 2
 401 367 l 1
 593 93 l 2
 634 34 651 25 704 19 c 1
 704 0 l 1
 407 0 l 1
 407 19 l 1
 457 24 484 30 484 50 c 0
 484 65 466 99 433 148 c 2
 338 288 l 1
 219 140 l 2
 182 94 167 69 167 54 c 0
 167 31 185 23 243 19 c 1
 243 0 l 1
 10 0 l 1
 10 19 l 1
 61 23 68 26 155 133 c 2
 312 326 l 25
 203 486 l 2
 107 627 87 640 22 643 c 1
 22 662 l 1
 324 662 l 1
 324 643 l 1
 296 642 l 2
 263 641 248 633 248 613 c 0
 248 591 272 548 333 463 c 2
 375 404 l 1
 488 542 l 2
 517 578 528 596 528 611 c 0
 528 634 512 641 458 643 c 1
 458 662 l 1
 696 662 l 1
EndSplineSet
Validated: 1
EndChar

StartChar: Y
Encoding: 89 89 195
Width: 701
Flags: W
HStem: 0 19<202 270.014 436.299 508> 643 19<10 51.1585 235.711 290 472 528.854 650.247 691>
VStem: 303 102<34.7389 294>
DStem2: 236 569 172 486 0.5547 -0.83205<-45.605 265.979> 384 347 405 303 0.547848 0.836578<0 305.637>
LayerCount: 2
Fore
SplineSet
691 662 m 1
 691 643 l 1
 640 639 612 619 553 529 c 2
 405 303 l 1
 405 109 l 2
 405 33 419 21 508 19 c 1
 508 0 l 1
 202 0 l 1
 202 19 l 1
 293 23 303 33 303 120 c 2
 303 294 l 1
 172 486 l 2
 75 629 58 641 10 643 c 1
 10 662 l 1
 290 662 l 1
 290 643 l 1
 249 640 219 634.667 219 613 c 0
 219 602 225 585 236 569 c 2
 384 347 l 1
 527 573 l 2
 536 588 541 600 541 610 c 0
 541 634 524 642 472 643 c 1
 472 662 l 1
 691 662 l 1
EndSplineSet
Validated: 1
EndChar

StartChar: Z
Encoding: 90 90 196
Width: 613
Flags: W
HStem: 0 38<146 498.685> 624 38<123.111 447>
VStem: 32 26<491 543.391> 575 23<141.833 176>
DStem2: 10 15 146 38 0.583004 0.81247<97.9753 749.567>
LayerCount: 2
Fore
SplineSet
403 38 m 2
 538 38 555 110 575 176 c 1
 598 176 l 1
 574 0 l 1
 10 0 l 1
 10 15 l 1
 447 624 l 1
 226 624 l 2
 84 624 70 559 58 491 c 1
 32 491 l 1
 52 662 l 1
 578 662 l 1
 578 647 l 1
 146 38 l 1
 403 38 l 2
EndSplineSet
Validated: 1
EndChar

StartChar: a
Encoding: 97 97 197
Width: 435
Flags: W
HStem: -10 58<99.5 205.493 319.5 400.598> 436 24<152.767 242.713>
VStem: 25 88<66.7336 165.371> 44 83<310.859 403.823> 275 81<73.7695 268 285.046 406.606>
LayerCount: 2
Fore
SplineSet
25 97 m 0xe8
 25 205 151 242 275 292 c 1
 275 353 l 2
 275 407 248 436 199 436 c 0
 159 436 127 414 127 387 c 0
 127 373 132 356 132 347 c 0
 132 325 111 305 87 305 c 0
 64 305 44 325 44 348 c 0xd8
 44 411 118 460 212 460 c 0
 328 460 356 400 356 300 c 2
 356 105 l 2
 356 61 363 47 386 47 c 0
 401 47 413 52 430 66 c 1
 430 40 l 1
 395 2 374 -10 340 -10 c 0
 299 -10 281 11 276 63 c 1
 215 11 174 -10 130 -10 c 0
 69 -10 25 34 25 97 c 0xe8
275 123 m 2
 275 268 l 1
 154 224 113 188 113 129 c 0xe8
 113 68.8018 150.8 48 176 48 c 0
 197 48 225 57 249 71 c 0
 270 83 275 92 275 123 c 2
EndSplineSet
Validated: 1
EndChar

StartChar: b
Encoding: 98 98 198
Width: 500
Flags: W
HStem: -10 32<188.04 317.464> 397 63<219.105 322.612> 623 16<10 26.6741>
VStem: 76 84<41.004 367.28 375 620.992> 387 88<136.397 315.81>
LayerCount: 2
Fore
SplineSet
160 681 m 1
 160 375 l 1
 180 424 238 460 299 460 c 0
 399 460 475 366 475 243 c 0
 475 100 373 -10 241 -10 c 0
 161 -10 76 23 76 54 c 2
 76 573 l 2
 76 615 67 624 27 624 c 0
 20 624 16 624 10 623 c 1
 10 639 l 1
 58.6621 651.105 107.032 665.49 155 683 c 1
 160 681 l 1
160 322 m 2
 160 70 l 2
 160 45 205 22 257 22 c 0
 339 22 387 86 387 197 c 0
 387 319 337 397 259 397 c 0
 207 397 160 361 160 322 c 2
EndSplineSet
Validated: 1
EndChar

StartChar: c
Encoding: 99 99 199
Width: 444
Flags: W
HStem: -10 72<184.362 297.679> 431 29<181.036 279.846>
VStem: 25 77<153.814 322.927> 303 95<324.666 383>
LayerCount: 2
Fore
SplineSet
25 213 m 0
 25 367 133 460 244 460 c 0
 328 460 398 413 398 357 c 0
 398 334 376 315 350 315 c 0
 329 315 311 333 303 361 c 2
 297 383 l 2
 287 420 274 431 238 431 c 0
 157 431 102 360 102 257 c 0
 102 142 166 62 257 62 c 0
 314 62 350 86 398 156 c 1
 412 147 l 1
 391 106 333 -10 215 -10 c 0
 104 -10 25 83 25 213 c 0
EndSplineSet
Validated: 1
EndChar

StartChar: d
Encoding: 100 100 200
Width: 499
Flags: W
HStem: -10 52<184.033 291.394> 432 28<185.197 284.996> 623 16<270 291.626>
VStem: 25 86<127.042 316.819> 338 84<66.838 390.874 417 621.16>
LayerCount: 2
Fore
SplineSet
342 -10 m 1
 338 -7 l 1
 338 57 l 1
 304 10 266 -10 210 -10 c 0
 100 -10 25 77 25 205 c 0
 25 347 118 460 233 460 c 0
 273 460 300 449 338 417 c 1
 338 573 l 2
 338 614 329 624 292 624 c 0
 284 624 278 624 270 623 c 1
 270 639 l 1
 334 656 369 666 417 683 c 1
 422 681 l 1
 422 114 l 2
 422 68 430 57 466 57 c 0
 469 57 471 57 489 58 c 1
 489 42 l 1
 342 -10 l 1
249 42 m 0
 306 42 338 85 338 102 c 2
 338 332 l 2
 338 385 289 432 236 432 c 0
 160 432 111 358 111 245 c 0
 111 122 166 42 249 42 c 0
EndSplineSet
Validated: 1
EndChar

StartChar: e
Encoding: 101 101 201
Width: 444
Flags: W
HStem: -10 69<180.291 303.739> 277 32<99 303> 424 36<149.903 263.03>
VStem: 25 72<158.961 277 309 329.86>
LayerCount: 2
Fore
SplineSet
97 277 m 1
 103 99 188 59 253 59 c 0
 317 59 360 88 408 164 c 1
 424 157 l 1
 382 49 307 -10 212 -10 c 0
 97 -10 25 76 25 214 c 0
 25 363 113 460 234 460 c 0
 337 460 390 398 405 277 c 1
 97 277 l 1
99 309 m 1
 303 309 l 1
 290 396 266 424 205 424 c 0
 144 424 110 387 99 309 c 1
EndSplineSet
Validated: 1
EndChar

StartChar: f
Encoding: 102 102 202
Width: 373
Flags: W
HStem: 0 15<10 59.3046 212.095 270> 418 32<11 93 177 299> 655 28<198.225 299>
VStem: 93 84<28.3135 418 450 584.057>
LayerCount: 2
Fore
SplineSet
331 580 m 0
 283 580 290 655 233 655 c 0
 195 655 176 624 176 566 c 2
 176 450 l 1
 299 450 l 1
 299 418 l 1
 177 418 l 1
 177 104 l 2
 177 29 188 18 270 15 c 1
 270 0 l 1
 10 0 l 1
 10 15 l 1
 82 19 93 31 93 104 c 2
 93 418 l 1
 11 418 l 1
 11 450 l 1
 93 450 l 1
 95 589 137 683 269 683 c 0
 329 683 373 657 373 621 c 0
 373 598 354 580 331 580 c 0
EndSplineSet
Validated: 1
EndChar

StartChar: g
Encoding: 103 103 203
Width: 467
Flags: W
HStem: -218 57<123.716 307.166> -15 79<135.581 390.416> 149 25<199.645 281.514> 388 39<374.409 457> 432 28<171.949 256.204>
VStem: 15 70<-128.683 -67.1825> 56 83<230.739 378.073> 60 60<43.5 97.9692> 316 77<224.278 368.005> 420 28<-101.821 -34.2394>
LayerCount: 2
Fore
SplineSet
60 54 m 0xf9c0
 60 80 70 89 149 163 c 1
 83 196 56 234 56 297 c 0xfac0
 56 388 130 460 223 460 c 0
 297.575 460 319.163 427 380 427 c 2
 457 427 l 1
 457 388 l 1
 374 388 l 1
 388 356 393 333 393 304 c 0
 393 208 317 149 237 149 c 0
 225.6 149 191.371 152.737 180 154 c 1
 153 146 120 111 120 91 c 0xf9c0
 120 75 145 66 198 64 c 2
 327 58 l 2
 401 55 448 13 448 -49 c 0
 448 -150.4 306.193 -218 188 -218 c 0
 93 -218 15 -174 15 -121 c 0xfcc0
 15 -84 42 -51 113 1 c 1
 72 21 60 33 60 54 c 0xf9c0
134 -2 m 1
 92 -52 85 -65 85 -88 c 0xfcc0
 85 -132 143 -161 231 -161 c 0
 344 -161 420 -122 420 -64 c 0
 420 -28 387 -15 296 -15 c 0
 247 -15 167 -9 134 -2 c 1
316 265 m 0
 316 298 301 432 213 432 c 0
 167 432 139 397 139 338 c 0xfac0
 139 210.824 200.2 174 241 174 c 0
 287 174 316 209 316 265 c 0
EndSplineSet
Validated: 1
EndChar

StartChar: h
Encoding: 104 104 204
Width: 498
Flags: W
HStem: 0 15<10 44.4688 189.229 226 276 312.771 459.013 488> 406 54<223.642 320.65> 623 16<11 27.8116>
VStem: 74 84<26.9707 364.21 376 622.626> 344 84<27.2344 380.953>
LayerCount: 2
Fore
SplineSet
158 343 m 1
 158 102 l 2
 158 33 168 21 226 15 c 1
 226 0 l 1
 10 0 l 1
 10 15 l 1
 68 23 74 32 74 102 c 2
 74 573 l 2
 74 616 66.667 625 28 625 c 0
 24.0625 625 14.9092 623.818 11 623 c 1
 11 639 l 1
 68 654 97 663 153 683 c 1
 158 680 l 1
 158 376 l 1
 204 436 246 460 305 460 c 0
 386 460 428 406 428 301 c 2
 428 102 l 2
 428 33 434 25 488 15 c 1
 488 0 l 1
 276 0 l 1
 276 15 l 1
 334 21 344 34 344 102 c 2
 344 300 l 2
 344 370 319 406 269 406 c 0
 230 406 200 389 158 343 c 1
EndSplineSet
Validated: 1
EndChar

StartChar: i
Encoding: 105 105 205
Width: 278
Flags: W
HStem: 0 15<16 64.8977 208.246 253> 390 15<20 44.2187> 581 102<87.3961 170.485>
VStem: 78 102<590.456 673.544> 95 84<26.9614 391.6>
LayerCount: 2
Fore
SplineSet
62 393 m 0xe8
 53 393 35.3333 392.333 20 390 c 1
 20 405 l 1
 71.6667 419.597 123.333 438.595 175 460 c 1
 179 457 l 1
 179 102 l 2
 179 30 187 20 253 15 c 1
 253 0 l 1
 16 0 l 1
 16 15 l 1
 85 19 95 30 95 102 c 2
 95 334 l 2
 95 378 86 393 62 393 c 0xe8
128 683 m 0
 157 683 180 660 180 632 c 0
 180 603 157 581 128 581 c 0
 100 581 78 604 78 632 c 0xf0
 78 660 101 683 128 683 c 0
EndSplineSet
Validated: 1
EndChar

StartChar: j
Encoding: 106 106 206
Width: 348
Flags: W
HStem: -218 34<67 162.803> 390 16<102 125.762> 581 102<171.396 254.485>
VStem: 162 102<590.456 673.544> 179 84<-122.635 391.526>
LayerCount: 2
Fore
SplineSet
147 393 m 0xe8
 123 393 102 390 102 390 c 1
 102 406 l 1
 161 424 199 437 258 460 c 1
 263 457 l 1
 263 0 l 2
 263 -142 204 -218 94 -218 c 0
 40 -218 0 -195 0 -163 c 0
 0 -141 18 -124 41 -124 c 0
 82 -124 93 -184 131 -184 c 0
 173 -184 179 -139 179 -45 c 2
 179 334 l 2
 179 377 170 393 147 393 c 0xe8
212 683 m 0
 241 683 264 660 264 632 c 0
 264 603 241 581 212 581 c 0
 184 581 162 604 162 632 c 0xf0
 162 660 185 683 212 683 c 0
EndSplineSet
Validated: 1
EndChar

StartChar: k
Encoding: 107 107 207
Width: 513
Flags: W
HStem: 0 15<10 48.0356 207.166 244 290 327.547 471.622 508> 436 14<279 322.951 433.532 483> 623 16<10 40.0744>
VStem: 85 84<27.832 251 261 621.836>
DStem2: 169 261 238 282 0.746808 0.66504<65.4956 222.978> 238 282 169 251 0.619251 -0.785194<0 254.465>
LayerCount: 2
Fore
SplineSet
10 623 m 1
 10 639 l 1
 72 654 110.333 664.667 165 683 c 1
 169 681 l 1
 169 261 l 1
 306 383 l 2
 320 395 329 409 329 417 c 0
 329 431 318 435 279 436 c 1
 279 450 l 1
 483 450 l 1
 483 435 l 1
 434.464 435 400.732 433.51 267 309 c 2
 238 282 l 1
 391 88 l 2
 433 37 464 18 508 15 c 1
 508 0 l 1
 290 0 l 1
 290 15 l 1
 317 15 330 17 330 30 c 0
 330 40 317 52 309 64 c 2
 169 251 l 1
 169 80 l 2
 169 31.5 175 26.5 244 15 c 1
 244 0 l 1
 10 0 l 1
 10 15 l 1
 82 27 85 30 85 82 c 2
 85 564 l 2
 85 612 75 625 42 625 c 0
 32 625 21.6367 624.273 10 623 c 1
EndSplineSet
Validated: 1
EndChar

StartChar: l
Encoding: 108 108 208
Width: 258
Flags: W
HStem: 0 15<12 56.0693 201.079 248> 623 16<10 40.2449>
VStem: 89 84<28.0774 622.078>
LayerCount: 2
Fore
SplineSet
10 623 m 1
 10 639 l 1
 79 656 117 666 169 683 c 1
 173 681 l 1
 173 84 l 2
 173 29 185 19 248 15 c 1
 248 0 l 1
 12 0 l 1
 12 15 l 1
 75 20 89 33 89 87 c 2
 89 564 l 2
 89 611 79 625 47 625 c 0
 33.7754 625 22.667 624.5 10 623 c 1
EndSplineSet
Validated: 1
EndChar

StartChar: m
Encoding: 109 109 209
Width: 779
Flags: W
HStem: 0 15<10 53.9987 187.193 232 280 321.029 460.503 504 550 588.007 743 769> 398 17<13 41.9731> 408 52<240.541 327.777 498.129 597.802>
VStem: 80 84<24.384 372.979 383 399.885> 348 84<26.085 373.205> 616 84<25.1622 390.068>
CounterMasks: 1 1c
LayerCount: 2
Fore
SplineSet
13 398 m 1xdc
 13 415 l 1xdc
 68 430 102 441 153 460 c 1
 160 458 l 1
 160 383 l 1
 243 446 271 460 315 460 c 0
 369 460 403 433 421 376 c 1
 475 434 526 460 584 460 c 0
 661 460 700 400 700 282 c 2
 700 76 l 2
 700 37 713 19 743 17 c 2
 769 15 l 1
 769 0 l 1
 550 0 l 1
 550 15 l 1
 608 22 616 30 616 87 c 2
 616 298 l 2
 616 381 598 408 541 408 c 0
 495 408 462 390 432 347 c 1
 432 95 l 2
 432 33 447 16 504 15 c 1
 504 0 l 1
 280 0 l 1
 280 15 l 1
 337 19 348 30 348 86 c 2
 348 303 l 2
 348 373 326 408 282 408 c 0xbc
 252.718 408 195.384 394.65 164 349 c 1
 164 67 l 2
 164 28 179 17 232 15 c 1
 232 0 l 1
 10 0 l 1
 10 15 l 1
 66 16 80 31 80 85 c 2
 80 338 l 2
 80 386 71 402 45 402 c 0
 34 402 26 401 13 398 c 1xdc
EndSplineSet
Validated: 1
EndChar

StartChar: n
Encoding: 110 110 210
Width: 489
Flags: W
HStem: 0 15<12 47.6045 184.683 224 271 304.941 444.488 479> 398 17<10 36.4851> 405 55<226.961 313.525>
VStem: 74 84<24.7187 366.757 379 399.648> 334 84<26.7246 383.2>
LayerCount: 2
Fore
SplineSet
10 398 m 1xd8
 10 415 l 1xd8
 65 431 99 442 148 460 c 1
 155 458 l 1
 155 379 l 1
 223 443 254 460 300 460 c 0
 374 460 418 404 418 310 c 2
 418 81 l 2
 418 32 430 20 479 15 c 1
 479 0 l 1
 271 0 l 1
 271 15 l 1
 321 19 334 36 334 99 c 2
 334 308 l 2
 334 374 310 405 261 405 c 0xb8
 228 405 206 393 158 348 c 1
 158 67 l 2
 158 31 173 19 224 15 c 1
 224 0 l 1
 12 0 l 1
 12 15 l 1
 63 19 74 33 74 90 c 2
 74 338 l 2
 74 387 65 402 37 402 c 0
 26 402 16 401 10 398 c 1xd8
EndSplineSet
Validated: 1
EndChar

StartChar: o
Encoding: 111 111 211
Width: 491
Flags: W
HStem: -10 28<208.557 307.555> 432 28<182.311 282.592>
VStem: 25 90<135.072 331.786> 376 90<127.031 328.965>
LayerCount: 2
Fore
SplineSet
246 460 m 0
 374 460 466 365 466 234 c 0
 466 96 370 -10 244 -10 c 0
 118 -10 25 91 25 226 c 0
 25 364 116 460 246 460 c 0
115 275 m 0
 115 136 170 18 256 18 c 0
 331 18 376 86 376 199 c 0
 376 336 317 432 233 432 c 0
 162 432 115 370 115 275 c 0
EndSplineSet
Validated: 1
EndChar

StartChar: p
Encoding: 112 112 212
Width: 500
Flags: W
HStem: -217 17<10 52.3792 192.888 252> -10 32<209.607 319.088> 393 16<14 38.4652> 400 60<227.787 326.589>
VStem: 80 84<-188.428 33 53.9336 369.399 381 392.004> 389 86<133.177 323.133>
LayerCount: 2
Fore
SplineSet
14 393 m 1xec
 14 409 l 1xec
 69 426 104 439 158 460 c 1
 164 458 l 1
 164 381 l 1
 208 435 252 460 308 460 c 0xdc
 405 460 475 371 475 247 c 0
 475 102 383 -10 265 -10 c 0
 223 -10 199 0 164 33 c 1
 164 -124 l 2
 164 -187 177 -198 252 -199 c 1
 252 -217 l 1
 10 -217 l 1
 10 -200 l 1
 69 -194 80 -183 80 -131 c 2
 80 337 l 2
 80 384 73 394 39 394 c 0
 30 394 23 394 14 393 c 1xec
164 334 m 2
 164 88 l 2
 164 58 221 22 268 22 c 0
 340 22 389 97 389 208 c 0
 389 324 340 400 266 400 c 0xdc
 220 400 164 364 164 334 c 2
EndSplineSet
Validated: 1
EndChar

StartChar: q
Encoding: 113 113 213
Width: 499
Flags: W
HStem: -217 14<253 285.09 462.762 489> -10 61<175.164 273.924> 433 28<193.375 304.978>
VStem: 25 86<128.702 316.729> 342 84<-184.059 64 82.3787 406.542>
LayerCount: 2
Fore
SplineSet
361 425 m 1
 415 457 l 1
 426 457 l 1
 426 -141 l 2
 426 -183 434 -191 489 -203 c 1
 489 -217 l 1
 253 -217 l 1
 253 -200 l 1
 324 -195 342 -180 342 -124 c 2
 342 64 l 1
 298 16 243 -10 185 -10 c 0
 91 -10 25 79 25 205 c 0
 25 349 121 461 246 461 c 0
 285 461 315 452 361 425 c 1
111 241 m 0
 111 167 137 51 242 51 c 0
 273 51 306 63 328 82 c 0
 338 90 342 103 342 127 c 2
 342 333 l 2
 342 400 311 433 249 433 c 0
 164 433 111 359 111 241 c 0
EndSplineSet
Validated: 1
EndChar

StartChar: r
Encoding: 114 114 214
Width: 345
Flags: W
HStem: 0 15<10 42.3636 200.154 250> 397 63<225.76 302>
VStem: 81 84<29.2608 363.261 366 392.233>
LayerCount: 2
Fore
SplineSet
301 362 m 0
 274 362 251 397 235 397 c 0
 208 397 165 347 165 315 c 2
 165 90 l 2
 165 33 182 18 250 15 c 1
 250 0 l 1
 10 0 l 1
 10 15 l 1
 74 27 81 34 81 84 c 2
 81 334 l 2
 81 378 72 394 47 394 c 0
 35 394 26 393 12 390 c 1
 12 406 l 1
 71 425 107 438 160 460 c 1
 165 458 l 1
 165 366 l 1
 214 437 243 460 285 460 c 0
 319 460 340 440 340 407 c 0
 340 379 325 362 301 362 c 0
EndSplineSet
Validated: 1
EndChar

StartChar: s
Encoding: 115 115 215
Width: 367
Flags: W
HStem: -10 22<129.07 225.983> 437 22<130.907 219.959>
VStem: 35 62<317.807 404.721> 36 16<118.812 152> 262 70<51.4369 135.87> 284 15<314 337.598>
DStem2: 140 301 152 192 0.860292 -0.509802<-59.4226 202.545>
LayerCount: 2
Fore
SplineSet
268 440 m 0xe8
 274 440 278 446 284 450 c 1
 295 450 l 1
 299 314 l 1
 284 314 l 1
 261 403 231 437 174 437 c 0
 128 437 97 409 97 369 c 0xe4
 97 342 112 317 140 301 c 2
 248 237 l 2
 308 201 332 168 332 118 c 0
 332 48 268 -10 191 -10 c 0
 146 -10 97 8 72 8 c 0
 60 8 56 6 49 -4 c 1
 36 -4 l 1
 36 152 l 1
 52 152 l 1xd8
 61 112 77 12 179 12 c 0
 230 12 262 40 262 84 c 0
 262 115 245 139 210 159 c 2
 152 192 l 2
 67 240 35 280 35 336 c 0
 35 408 92 459 171 459 c 0
 229 459 246 440 268 440 c 0xe8
EndSplineSet
Validated: 1
EndChar

StartChar: t
Encoding: 116 116 216
Width: 283
Flags: W
HStem: -10 52<133.5 233.354> 418 32<158 259>
VStem: 74 84<53.0804 418>
LayerCount: 2
Fore
SplineSet
259 450 m 1
 259 418 l 1
 158 418 l 1
 158 132 l 2
 158 69 173 42 210 42 c 0
 232 42 249 52 270 77 c 1
 283 66 l 1
 250 14 212 -10 163 -10 c 0
 104 -10 74 33 74 117 c 2
 74 418 l 1
 21 418 l 1
 18 420 17 422 17 425 c 0
 17 445 42 423 131 551 c 0
 138 561 144 570 151 579 c 1
 157 579 158 576 158 566 c 2
 158 450 l 1
 259 450 l 1
EndSplineSet
Validated: 1
EndChar

StartChar: u
Encoding: 117 117 217
Width: 490
Flags: W
HStem: -10 58<178.854 267.029> 36 14<457.082 480> 436 14<10 45.6494 260 295.843>
VStem: 72 84<70.25 426.561> 334 84<54.8743 76 81.0178 424.313>
LayerCount: 2
Fore
SplineSet
480 50 m 1x78
 480 36 l 1x78
 429 22 393 11 343 -9 c 1
 339 -7 l 1
 339 76 l 1
 304.283 41.2832 265.178 -10 193 -10 c 0
 120 -10 72 41 72 120 c 2
 72 372 l 2
 72 418 58 433 10 436 c 1
 10 450 l 1
 156 450 l 1
 156 124 l 2
 156 82 188 48 227 48 c 0xb8
 247.38 48 334 58.7129 334 135 c 2
 334 370 l 2
 334 420 322 430 260 433 c 1
 260 450 l 1
 418 450 l 1
 418 107 l 2
 418 61 429 50 475 50 c 2
 480 50 l 1x78
EndSplineSet
Validated: 1
EndChar

StartChar: v
Encoding: 118 118 218
Width: 468
Flags: W
HStem: 435 15<5 35.4054 166.996 201 324 354.717 437.277 463>
DStem2: 164 370 96 320 0.385756 -0.922601<-37.2146 275.533> 266 114 270 36 0.370393 0.928875<0 306.9>
LayerCount: 2
Fore
SplineSet
463 450 m 1
 463 435 l 1
 433 432 425 426 398 357 c 2
 270 36 l 2
 255 -1 248 -14 242 -14 c 0
 237 -14 230 -10 216 33 c 2
 96 320 l 2
 52.4844 424.074 43 433 5 435 c 1
 5 450 l 1
 201 450 l 1
 201 435 l 1
 166 432 155 425 155 407 c 0
 155 398 158 384 164 370 c 2
 266 114 l 1
 365 373 l 2
 369 383 371 393 371 403 c 0
 371 422 356 432 324 435 c 1
 324 450 l 1
 463 450 l 1
EndSplineSet
Validated: 1
EndChar

StartChar: w
Encoding: 119 119 219
Width: 683
Flags: W
HStem: 435 15<5 26.4997 153.785 185 246 274.386 413.479 449 555 581.211 663.052 678>
DStem2: 244 111 193 30 0.367167 -0.930155<-308.791 0> 244 111 244 25 0.422885 0.906183<0 186.915> 408 340 335 310 0.351123 -0.936329<-60.6506 2.45786 51.9663 239.232> 492 116 499 35 0.370465 0.928847<0 306.487>
LayerCount: 2
Fore
SplineSet
335 310 m 1
 299 419 289 430 246 435 c 1
 246 450 l 1
 449 450 l 1
 449 435 l 1
 402 428 391 421 391 399 c 0
 391 386 391 386 408 340 c 2
 492 116 l 1
 582 338 l 2
 593 365 599 389 599 404 c 0
 599 421 589 428 555 435 c 1
 555 450 l 1
 678 450 l 1
 678 435 l 1
 658 428 654 423 637 381 c 2
 499 35 l 2
 483 -5 478 -14 471 -14 c 0
 465 -14 461 -8 447 29 c 2
 356 265 l 1
 244 25 l 2
 232 -1 224 -14 219 -14 c 0
 213 -14 205 0 193 30 c 2
 58 372 l 2
 37.6064 423.663 28 433 5 435 c 1
 5 450 l 1
 185 450 l 1
 185 435 l 1
 151 431 139 423 139 402 c 0
 139 392 141 382 145 372 c 2
 244 111 l 1
 335 310 l 1
EndSplineSet
Validated: 1
EndChar

StartChar: x
Encoding: 120 120 220
Width: 482
Flags: W
HStem: 0 15<10 42.0081 119.416 155 271 305.389 440.192 472> 435 15<17 55.6465 189.38 224 268 300.378 391.318 426>
DStem2: 83 66 135 74 0.55227 0.833665<-9.59552 181.558 285.671 412.667> 227 324 197 231 0.536188 -0.844098<-99.2551 24.3886 100.23 285.37>
LayerCount: 2
Fore
SplineSet
241 304 m 1
 279 362 308 391 308 413 c 0
 308 427 298 433 268 435 c 1
 268 450 l 1
 426 450 l 1
 426 435 l 1
 394 434 364 418 345 391 c 2
 262 271 l 1
 390 75 l 2
 419.431 29.9346 441 15 472 15 c 1
 472 0 l 1
 271 0 l 1
 271 15 l 1
 304 17 311 21 311 39 c 0
 311 45 309 51 305 57 c 2
 214 197 l 1
 135 74 l 2
 122 54 115 39 115 33 c 0
 115 20 127 15 155 15 c 1
 155 0 l 1
 10 0 l 1
 10 15 l 1
 43 18 54 24 83 66 c 2
 197 231 l 1
 103 375 l 2
 64.9482 433.292 49.75 434.25 17 435 c 1
 17 450 l 1
 224 450 l 1
 224 435 l 1
 194 434 181 427 181 413 c 0
 181 400 199 366 227 324 c 2
 241 304 l 1
EndSplineSet
Validated: 1
EndChar

StartChar: y
Encoding: 121 121 221
Width: 471
Flags: W
HStem: -218 84<51.1022 158.006> 435 15<5 32.2314 165.875 211 331 368.453 443.43 466>
DStem2: 278 117 188 120 0.421487 -0.906835<-316.105 0> 278 117 264 -18 0.353133 0.935573<0 309.612>
LayerCount: 2
Fore
SplineSet
142 -134 m 0
 183 -134 232 -11 232 19 c 0
 232 34 213.628 68.7441 188 120 c 2
 56 404 l 2
 48 421 31 432 5 436 c 1
 5 450 l 1
 211 450 l 1
 211 435 l 1
 168 433 153 426 153 408 c 0
 153 397 157 384 163 370 c 2
 278 117 l 1
 375 393 l 2
 378 400 379 406 379 410 c 0
 379 426 363 435 331 435 c 1
 331 450 l 1
 466 450 l 1
 466 435 l 1
 442 432 430 422 418 390 c 2
 264 -18 l 2
 210 -162 162 -218 95 -218 c 0
 53 -218 21 -193 21 -160 c 0
 21 -136 41 -116 64 -116 c 0
 102 -116 125 -134 142 -134 c 0
EndSplineSet
Validated: 1
EndChar

StartChar: z
Encoding: 122 122 222
Width: 417
Flags: W
HStem: 0 30<117 338.127> 420 30<79.2712 276>
VStem: 36 18<332 376.547> 383 18<100.719 136.556>
DStem2: 10 15 117 30 0.553275 0.832998<71.6954 484.536>
LayerCount: 2
Fore
SplineSet
255 30 m 2
 361 30 368 63 383 139 c 1
 401 135 l 1
 387 0 l 1
 10 0 l 1
 10 15 l 1
 276 420 l 1
 138 420 l 2
 78 420 63 405 54 332 c 1
 36 332 l 1
 39 450 l 1
 386 450 l 1
 386 435 l 1
 117 30 l 1
 255 30 l 2
EndSplineSet
Validated: 1
EndChar

StartChar: uniEEAB
Encoding: 61099 61099 223
Width: 1514
VWidth: 0
Flags: W
HStem: 22 21G<200 224> 149 63<499.503 668.531> 178 35<86.9109 165.44 280.56 339.394> 288 23<100.656 167.532> 299 63<486.639 667.954> 342 49<1285.74 1493.41>
VStem: 20 61<220.175 280.218> 166 107<51.2812 174> 180 102<312.562 392.074> 351 58<222.873 275.579>
AnchorPoint: "Tonal" 1077.62 392.067 basechar 0
AnchorPoint: "Podchashie" 1144.6 228.646 basechar 0
AnchorPoint: "Right" 1570.38 374.434 basechar 0
LayerCount: 2
Fore
SplineSet
168 284 m 5xb340
 158 287 149 288 140 288 c 4
 127 288 114 285 100 280 c 4
 88 276 81 262 81 248 c 4
 81 238 85 227 96 223 c 5
 111 216 123 213 136 213 c 4
 145 213 154 214 166 217 c 5
 165 222 165 227 165 231 c 4
 165 246 168 257 168 284 c 5xb340
351 246 m 4
 351 274 317 283 290 283 c 4
 286 283 282 283 279 282 c 5
 279 275 278 269 278 264 c 4
 278 248 280 238 280 222 c 5
 292 217 300 216 308 216 c 4
 319 216 327 219 340 225 c 4
 348 229 351 237 351 246 c 4
226 454 m 4
 236 454 248 454 260 450 c 12
 284 443 310 438 310 410 c 4
 310 391 289 381 285 360 c 4
 284 352 282 344 282 337 c 4xb2c0
 282 329 284 323 291 318 c 12
 319 299 345 316 375 300 c 28
 394 290 409 279 409 255 c 4
 409 233 409 221 395 209 c 28
 368 186 351 172 312 172 c 4
 299 172 287 174 273 174 c 5
 273 150 l 22
 273 134 274 122 274 109 c 4
 274 101 273 92 273 83 c 6
 273 69 l 6
 273 63 272 57 267 51 c 12
 250 33 236 22 212 22 c 4
 188 22 184 27 172 39 c 20
 167 44 166 50 166 57 c 6
 166 102 l 6xb340
 166 130 169 148 169 178 c 5
 155 178 l 6
 119 178 88 184 49 202 c 4
 24 214 20 236 20 263 c 4
 20 306 59 313 101 313 c 4
 122 313 143 311 160 311 c 4
 165 311 170 312 174 312 c 5
 178 324 180 336 180 347 c 4xb2c0
 180 359 178 371 172 382 c 12
 165 396 150 398 150 417 c 4
 150 450 193 454 226 454 c 4
1465 391 m 0x8640
 1483 391 1494 385 1494 370 c 0
 1494 348 1477 344 1458 342 c 0
 1167 307 1019 289 840 258 c 9
 826 268 804 259 804 283 c 0
 804 298 808 312 823 315 c 0
 887 329 1141 363 1442 389 c 0
 1448 390 1457 391 1465 391 c 0x8640
531 149 m 0xc240
 509 149 497 165 497 186 c 0
 497 198 501 210 513 212 c 0
 630 227 643 231 744 244 c 0
 746 245 748 245 750 245 c 0
 767 245 778 228 778 211 c 0
 778 198 771 185 756 182 c 0
 664 168 622 160 534 149 c 0
 533 149 532 149 531 149 c 0xc240
517 299 m 2x8a40
 497 299 484 316 484 335 c 0
 484 349 489 360 501 362 c 0x8a40
 616 378 612 375 711 390 c 0
 712 391 714 391 715 391 c 0x8640
 735 391 747 371 747 353 c 0
 747 340 740 329 725 327 c 0
 631 314 610 310 521 299 c 1
 517 299 l 2x8a40
EndSplineSet
Validated: 1
EndChar

StartChar: uniEEAC
Encoding: 61100 61100 224
Width: 1083
VWidth: 0
Flags: W
HStem: 20 21G<570.5 581.5> 150 59<444.888 505.691> 156 35<86.9109 165.44 280.56 339.394> 166 62<887.52 957.06> 266 23<100.656 167.532>
VStem: 20 61<198.175 258.218> 166 107<29.2812 152> 180 102<290.562 370.074> 351 58<200.873 253.579>
DStem2: 452 209 487 153 0.930253 0.366918<0.809681 244.579> 556 79 591 22 0.927702 0.373321<0.370304 243.683>
AnchorPoint: "Right" 1083.04 214.32 basechar 0
AnchorPoint: "Podchashie" 723 -18 basechar 0
AnchorPoint: "Tonal" 808.48 328.72 basechar 0
LayerCount: 2
Fore
SplineSet
168 262 m 1xce80
 158 265 149 266 140 266 c 0
 127 266 114 263 100 258 c 0
 88 254 81 240 81 226 c 0
 81 216 85 205 96 201 c 1
 111 194 123 191 136 191 c 0xae80
 145 191 154 192 166 195 c 1
 165 200 165 205 165 209 c 0
 165 224 168 235 168 262 c 1xce80
351 224 m 0
 351 252 317 261 290 261 c 0
 286 261 282 261 279 260 c 1
 279 253 278 247 278 242 c 0
 278 226 280 216 280 200 c 1
 292 195 300 194 308 194 c 0
 319 194 327 197 340 203 c 0
 348 207 351 215 351 224 c 0
226 432 m 0
 236 432 248 432 260 428 c 8
 284 421 310 416 310 388 c 0
 310 369 289 359 285 338 c 0
 284 330 282 322 282 315 c 0xad80
 282 307 284 301 291 296 c 8
 319 277 345 294 375 278 c 24
 394 268 409 257 409 233 c 0
 409 211 409 199 395 187 c 24
 368 164 351 150 312 150 c 0
 299 150 287 152 273 152 c 1
 273 128 l 18
 273 112 274 100 274 87 c 0
 274 79 273 70 273 61 c 2
 273 47 l 2
 273 41 272 35 267 29 c 8
 250 11 236 0 212 0 c 0
 188 0 184 5 172 17 c 16
 167 22 166 28 166 35 c 2
 166 80 l 2xce80
 166 108 169 126 169 156 c 1
 155 156 l 2
 119 156 88 162 49 180 c 0
 24 192 20 214 20 241 c 0
 20 284 59 291 101 291 c 0
 122 291 143 289 160 289 c 0
 165 289 170 290 174 290 c 1
 178 302 180 314 180 325 c 0xad80
 180 337 178 349 172 360 c 8
 165 374 150 376 150 395 c 0
 150 428 193 432 226 432 c 0
958 146 m 0
 958 154 947 166 936 166 c 0x9c80
 927 166 919 155 909 155 c 0
 908 155 906 156 904 156 c 8xac80
 881 165 874 181 855 197 c 17
 855 198 l 2
 855 221 892 228 927 228 c 0x9c80
 998 228 1057 186 1063 132 c 1
 1063 95 1008 66 973 66 c 0
 952 66 932 77 927 105 c 0
 927 107 927 108 927 110 c 0
 927 121 939 123 954 137 c 0
 956 140 958 143 958 146 c 0
580 20 m 0
 561 20 545 37 545 59 c 0
 545 68 548 76 556 79 c 0
 665 121 679 128 772 165 c 0
 776 167 780 168 783 168 c 0
 801 168 815 149 815 132 c 0
 815 122 810 112 799 107 c 0
 712 72 675 54 591 22 c 0
 587 21 583 20 580 20 c 0
476 150 m 0xcc80
 455 150 441 169 441 191 c 0xac80
 441 199 444 206 452 209 c 0
 561 251 573 258 668 295 c 0
 672 297 676 298 680 298 c 0
 697 298 711 279 711 262 c 0
 711 252 706 242 695 237 c 0
 609 202 570 184 487 153 c 0
 483 151 479 150 476 150 c 0xcc80
EndSplineSet
Validated: 1
EndChar

StartChar: uniEE53
Encoding: 61011 61011 225
Width: 500
Flags: W
HStem: 0 19<66 435> 748 22<66 435>
VStem: 37 22<34 733> 442 22<34 733>
DStem2: 66 748 59 733 0.465951 -0.884811<10.0105 395.419 421.078 806.952> 59 34 66 19 0.465951 0.884811<0 385.408 411.068 796.942>
LayerCount: 2
Fore
SplineSet
37 770 m 1
 464 770 l 1
 464 0 l 1
 37 0 l 1
 37 770 l 1
66 748 m 1
 250 398 l 1
 435 748 l 1
 66 748 l 1
258 383 m 1
 442 34 l 1
 442 733 l 1
 258 383 l 1
435 19 m 1
 250 369 l 1
 66 19 l 1
 435 19 l 1
59 733 m 1
 59 34 l 1
 243 383 l 1
 59 733 l 1
EndSplineSet
Validated: 1
EndChar

StartChar: uniEE54
Encoding: 61012 61012 226
Width: 500
Flags: W
HStem: 0 19<66 435> 748 22<66 435>
VStem: 37 22<34 733> 442 22<34 733>
DStem2: 66 748 59 733 0.465951 -0.884811<10.0105 395.419 421.078 806.952> 59 34 66 19 0.465951 0.884811<0 385.408 411.068 796.942>
LayerCount: 2
Fore
SplineSet
37 770 m 1
 464 770 l 1
 464 0 l 1
 37 0 l 1
 37 770 l 1
66 748 m 1
 250 398 l 1
 435 748 l 1
 66 748 l 1
258 383 m 1
 442 34 l 1
 442 733 l 1
 258 383 l 1
435 19 m 1
 250 369 l 1
 66 19 l 1
 435 19 l 1
59 733 m 1
 59 34 l 1
 243 383 l 1
 59 733 l 1
EndSplineSet
Validated: 1
EndChar

StartChar: uniEE56
Encoding: 61014 61014 227
Width: 0
VWidth: 0
Flags: W
HStem: 381 74<-301.892 -180.468>
VStem: -362 281<428.731 454.821>
AnchorPoint: "Tonal" -226.101 374.436 mark 0
LayerCount: 2
Fore
SplineSet
-81 461 m 0
 -81 434 -117 422 -140 407 c 1
 -174 394 -203 381 -246 381 c 0
 -275 381 -310 387 -358 403 c 1
 -361 408 -362 416 -362 424 c 0
 -362 447 -351 482 -323 482 c 0
 -299 482 -272 455 -236 455 c 0
 -192 455 -171 490 -142 505 c 0
 -136 508 -130 509 -125 509 c 0
 -105 509 -81 486 -81 461 c 0
EndSplineSet
Validated: 1
EndChar

StartChar: uniEE57
Encoding: 61015 61015 228
Width: 0
VWidth: 0
Flags: W
HStem: 378 74<-301.892 -180.468> 509 76<-276.453 -199.969>
VStem: -288 99<521.701 572.973>
AnchorPoint: "Tonal" -226.101 371.836 mark 0
LayerCount: 2
Fore
SplineSet
-247 585 m 0
 -219 585 -189 562 -189 539 c 0
 -189 518 -208 509 -230 509 c 0
 -259 509 -288 534 -288 555 c 0
 -288 569 -275 585 -247 585 c 0
-81 458 m 0
 -81 431 -117 419 -140 404 c 1
 -174 391 -203 378 -246 378 c 0
 -275 378 -310 384 -358 400 c 1
 -361 405 -362 413 -362 421 c 0
 -362 444 -351 479 -323 479 c 0
 -299 479 -272 452 -236 452 c 0
 -192 452 -171 487 -142 502 c 0
 -136 505 -130 506 -125 506 c 0
 -105 506 -81 483 -81 458 c 0
EndSplineSet
Validated: 1
EndChar

StartChar: uniEE5C
Encoding: 61020 61020 229
Width: 500
Flags: W
HStem: 0 19<66 435> 748 22<66 435>
VStem: 37 22<34 733> 442 22<34 733>
DStem2: 66 748 59 733 0.465951 -0.884811<10.0105 395.419 421.078 806.952> 59 34 66 19 0.465951 0.884811<0 385.408 411.068 796.942>
LayerCount: 2
Fore
SplineSet
37 770 m 1
 464 770 l 1
 464 0 l 1
 37 0 l 1
 37 770 l 1
66 748 m 1
 250 398 l 1
 435 748 l 1
 66 748 l 1
258 383 m 1
 442 34 l 1
 442 733 l 1
 258 383 l 1
435 19 m 1
 250 369 l 1
 66 19 l 1
 435 19 l 1
59 733 m 1
 59 34 l 1
 243 383 l 1
 59 733 l 1
EndSplineSet
Validated: 1
EndChar

StartChar: uniEE5D
Encoding: 61021 61021 230
Width: 500
Flags: W
HStem: 0 19<66 435> 748 22<66 435>
VStem: 37 22<34 733> 442 22<34 733>
DStem2: 66 748 59 733 0.465951 -0.884811<10.0105 395.419 421.078 806.952> 59 34 66 19 0.465951 0.884811<0 385.408 411.068 796.942>
LayerCount: 2
Fore
SplineSet
37 770 m 1
 464 770 l 1
 464 0 l 1
 37 0 l 1
 37 770 l 1
66 748 m 1
 250 398 l 1
 435 748 l 1
 66 748 l 1
258 383 m 1
 442 34 l 1
 442 733 l 1
 258 383 l 1
435 19 m 1
 250 369 l 1
 66 19 l 1
 435 19 l 1
59 733 m 1
 59 34 l 1
 243 383 l 1
 59 733 l 1
EndSplineSet
Validated: 1
EndChar

StartChar: uniEE5E
Encoding: 61022 61022 231
Width: 500
Flags: W
HStem: 0 19<66 435> 748 22<66 435>
VStem: 37 22<34 733> 442 22<34 733>
DStem2: 66 748 59 733 0.465951 -0.884811<10.0105 395.419 421.078 806.952> 59 34 66 19 0.465951 0.884811<0 385.408 411.068 796.942>
LayerCount: 2
Fore
SplineSet
37 770 m 1
 464 770 l 1
 464 0 l 1
 37 0 l 1
 37 770 l 1
66 748 m 1
 250 398 l 1
 435 748 l 1
 66 748 l 1
258 383 m 1
 442 34 l 1
 442 733 l 1
 258 383 l 1
435 19 m 1
 250 369 l 1
 66 19 l 1
 435 19 l 1
59 733 m 1
 59 34 l 1
 243 383 l 1
 59 733 l 1
EndSplineSet
Validated: 1
EndChar

StartChar: uniEE60
Encoding: 61024 61024 232
Width: 901
VWidth: 0
Flags: W
HStem: 21 52<20.1897 58.8118>
DStem2: 34 73 59 21 0.926113 0.377246<-26.4678 887.882>
AnchorPoint: "Tonal" 266.68 243.32 basechar 0
AnchorPoint: "Podchashie" 488.2 119.48 basechar 0
AnchorPoint: "Right" 930.08 412.32 basechar 0
LayerCount: 2
Fore
SplineSet
858 405 m 0
 874 405 879 398 881 381 c 1
 881 367 865 359 851 354 c 0
 545 224 330 126 59 21 c 1
 55 22 50 21 46 21 c 0
 44 21 41 21 39 21 c 0
 31 21 24 22 20 29 c 0
 18 34 17 39 17 44 c 0
 17 56 23 68 34 73 c 0
 288 176 464 247 825 396 c 1
 832 402 847 405 858 405 c 0
EndSplineSet
Validated: 1
EndChar

StartChar: uniEE61
Encoding: 61025 61025 233
Width: 429
VWidth: 0
Flags: W
HStem: 22 21G<200 224> 178 35<86.9109 165.44 280.56 339.394> 288 23<100.656 167.532>
VStem: 20 61<220.175 280.218> 166 107<51.2812 174> 180 102<312.562 392.074> 351 58<222.873 275.579>
LayerCount: 2
Fore
SplineSet
168 284 m 1xfa
 158 287 149 288 140 288 c 0
 127 288 114 285 100 280 c 0
 88 276 81 262 81 248 c 0
 81 238 85 227 96 223 c 1
 111 216 123 213 136 213 c 0
 145 213 154 214 166 217 c 1
 165 222 165 227 165 231 c 0
 165 246 168 257 168 284 c 1xfa
351 246 m 0
 351 274 317 283 290 283 c 0
 286 283 282 283 279 282 c 1
 279 275 278 269 278 264 c 0
 278 248 280 238 280 222 c 1
 292 217 300 216 308 216 c 0
 319 216 327 219 340 225 c 0
 348 229 351 237 351 246 c 0
226 454 m 0
 236 454 248 454 260 450 c 8
 284 443 310 438 310 410 c 0
 310 391 289 381 285 360 c 0
 284 352 282 344 282 337 c 0xf6
 282 329 284 323 291 318 c 8
 319 299 345 316 375 300 c 24
 394 290 409 279 409 255 c 0
 409 233 409 221 395 209 c 24
 368 186 351 172 312 172 c 0
 299 172 287 174 273 174 c 1
 273 150 l 18
 273 134 274 122 274 109 c 0
 274 101 273 92 273 83 c 2
 273 69 l 2
 273 63 272 57 267 51 c 8
 250 33 236 22 212 22 c 0
 188 22 184 27 172 39 c 16
 167 44 166 50 166 57 c 2
 166 102 l 2xfa
 166 130 169 148 169 178 c 1
 155 178 l 2
 119 178 88 184 49 202 c 0
 24 214 20 236 20 263 c 0
 20 306 59 313 101 313 c 0
 122 313 143 311 160 311 c 0
 165 311 170 312 174 312 c 1
 178 324 180 336 180 347 c 0xf6
 180 359 178 371 172 382 c 8
 165 396 150 398 150 417 c 0
 150 450 193 454 226 454 c 0
EndSplineSet
Validated: 1
EndChar

StartChar: uniEE62
Encoding: 61026 61026 234
Width: 500
Flags: W
HStem: 0 19<66 435> 748 22<66 435>
VStem: 37 22<34 733> 442 22<34 733>
DStem2: 66 748 59 733 0.465951 -0.884811<10.0105 395.419 421.078 806.952> 59 34 66 19 0.465951 0.884811<0 385.408 411.068 796.942>
LayerCount: 2
Fore
SplineSet
37 770 m 1
 464 770 l 1
 464 0 l 1
 37 0 l 1
 37 770 l 1
66 748 m 1
 250 398 l 1
 435 748 l 1
 66 748 l 1
258 383 m 1
 442 34 l 1
 442 733 l 1
 258 383 l 1
435 19 m 1
 250 369 l 1
 66 19 l 1
 435 19 l 1
59 733 m 1
 59 34 l 1
 243 383 l 1
 59 733 l 1
EndSplineSet
Validated: 1
EndChar

StartChar: uniEEAD
Encoding: 61101 61101 235
Width: 500
Flags: W
HStem: 0 19<66 435> 748 22<66 435>
VStem: 37 22<34 733> 442 22<34 733>
DStem2: 66 748 59 733 0.465951 -0.884811<10.0105 395.419 421.078 806.952> 59 34 66 19 0.465951 0.884811<0 385.408 411.068 796.942>
LayerCount: 2
Fore
SplineSet
37 770 m 1
 464 770 l 1
 464 0 l 1
 37 0 l 1
 37 770 l 1
66 748 m 1
 250 398 l 1
 435 748 l 1
 66 748 l 1
258 383 m 1
 442 34 l 1
 442 733 l 1
 258 383 l 1
435 19 m 1
 250 369 l 1
 66 19 l 1
 435 19 l 1
59 733 m 1
 59 34 l 1
 243 383 l 1
 59 733 l 1
EndSplineSet
Validated: 1
EndChar

StartChar: uniEE71
Encoding: 61041 61041 236
Width: 500
Flags: W
HStem: 0 19<66 435> 748 22<66 435>
VStem: 37 22<34 733> 442 22<34 733>
DStem2: 66 748 59 733 0.465951 -0.884811<10.0105 395.419 421.078 806.952> 59 34 66 19 0.465951 0.884811<0 385.408 411.068 796.942>
LayerCount: 2
Fore
SplineSet
37 770 m 1
 464 770 l 1
 464 0 l 1
 37 0 l 1
 37 770 l 1
66 748 m 1
 250 398 l 1
 435 748 l 1
 66 748 l 1
258 383 m 1
 442 34 l 1
 442 733 l 1
 258 383 l 1
435 19 m 1
 250 369 l 1
 66 19 l 1
 435 19 l 1
59 733 m 1
 59 34 l 1
 243 383 l 1
 59 733 l 1
EndSplineSet
Validated: 1
EndChar

StartChar: uniEE9B
Encoding: 61083 61083 237
Width: 500
Flags: W
HStem: 0 19<66 435> 748 22<66 435>
VStem: 37 22<34 733> 442 22<34 733>
DStem2: 66 748 59 733 0.465951 -0.884811<10.0105 395.419 421.078 806.952> 59 34 66 19 0.465951 0.884811<0 385.408 411.068 796.942>
LayerCount: 2
Fore
SplineSet
37 770 m 1
 464 770 l 1
 464 0 l 1
 37 0 l 1
 37 770 l 1
66 748 m 1
 250 398 l 1
 435 748 l 1
 66 748 l 1
258 383 m 1
 442 34 l 1
 442 733 l 1
 258 383 l 1
435 19 m 1
 250 369 l 1
 66 19 l 1
 435 19 l 1
59 733 m 1
 59 34 l 1
 243 383 l 1
 59 733 l 1
EndSplineSet
Validated: 1
EndChar
